<?xml version="1.0" encoding="utf-8"?>
<!-- Generator: Adobe Illustrator 24.0.0, SVG Export Plug-In . SVG Version: 6.00 Build 0)  -->
<svg version="1.1" id="Layer_1" xmlns="http://www.w3.org/2000/svg" xmlns:xlink="http://www.w3.org/1999/xlink" x="0px" y="0px"
	 viewBox="0 0 50 50" style="enable-background:new 0 0 50 50;" xml:space="preserve">
<style type="text/css">
	.st0{fill:none;stroke:#FFFFFF;stroke-width:2.6197;stroke-miterlimit:10;}
	.st1{fill:none;stroke:#FFFFFF;stroke-width:2.6197;stroke-linecap:round;stroke-linejoin:round;stroke-miterlimit:10;}
</style>
<path class="st0" d="M23.12,41.22c-1.72-0.99-3.63-2.53-3.63-2.53c-2.4-2.5-4.14-3.38-4.14-3.38c-0.85-0.45-1.78-0.73-2.73-0.87
	c-0.96-0.14-1.62-0.18-2.46-0.7c-0.6-0.36-1.21-0.7-1.81-1.05l-5.54-3.2c-0.56-0.32-0.75-1.03-0.43-1.59l9.52-16.47
	c0.32-0.55,1.03-0.75,1.59-0.43l10.04,5.74c0.09,0.05,0.19,0.1,0.3,0.12c0.5,0.11,2.15,0.35,4.44-0.67
	c0.47-0.21,1.03-0.07,1.36,0.33l10.31,12.64c0,0,1.45,1.67,2.2,2.11"/>
<line class="st1" x1="31.67" y1="19.03" x2="27.06" y2="20.94"/>
<line class="st1" x1="33.6" y1="21.67" x2="28.99" y2="23.58"/>
<line class="st1" x1="35.91" y1="24.31" x2="31.29" y2="26.22"/>
<path class="st1" d="M9.02,16.42c0,0,5.95,1.19,8.18,5.11c0,0,3.1,5.04-0.79,10.09"/>
<path class="st0" d="M31.48,39.44c4.04-8.06,10.66-8.17,10.66-8.17c0.69,0.42,1.37,0.86,2.04,1.3c1.13,0.75,2.13,1.69,3.26,2.42
	c0.35,0.23,0.97,0.5,0.99,0.99c0.03,0.94,0.17,1.89,0.05,2.83c-0.15,1.15-0.85,1.7-1.68,2.45c-1.26,1.13-2.86,1.7-4.44,2.23
	c-1.64,0.55-3.33,0.99-5.08,1c-1.44,0-2.89,0.01-4.33,0.01c-1.32,0-2.7,0.16-3.98-0.25c-1.15-0.37-2.25-0.95-3.29-1.55
	c-2.56-1.48-2.56-1.48-2.56-1.48"/>
<path class="st1" d="M16.81,20.93c3.01,1.4,6.42,2.88,8.43,5.65c1.63,2.24,3.27,4.91,5.68,6.41c0,0,2.95,1.68,3.84,1.87"/>
<path class="st1" d="M4.31,24.59l1.14,0.7l18.61,10.75c0,0,0,0,2.56,1.48c2.12,1.22,3.52,1.64,3.95,1.75
	c2.9,0.74,5.97,1.06,8.93,1.46c0.94,0.13,1.95-0.78,2.67-1.31c0.87-0.65,1.85-1.46,2.25-2.51c0,0,0.87-0.56,1.8-0.56
	c0.93,0,0.93,0,0.93,0s1.28,0.03,1.28,0.56"/>
<path class="st0" d="M28.74,16.11v-3.07c0,0,0.11-1.31-1.68-1.31l-5.93,0.38c0,0-1.19,0.08-1.03,1.42l-0.01,1.24"/>
<path class="st0" d="M11.9,11.44l-1.73-3.46c0,0-0.58-1.74,1.73-2.07c0,0,1.16,0.27,1.27,1.42c0.11,1.14,0.11,1.14,0.11,1.14
	s0.06,1.42-0.27,2.4"/>
</svg>
