<?xml version="1.0" encoding="utf-8"?>
<!-- Generator: Adobe Illustrator 24.0.0, SVG Export Plug-In . SVG Version: 6.00 Build 0)  -->
<svg version="1.1" id="Layer_1" xmlns="http://www.w3.org/2000/svg" xmlns:xlink="http://www.w3.org/1999/xlink" x="0px" y="0px"
	 viewBox="0 0 50 50" style="enable-background:new 0 0 50 50;" xml:space="preserve">
<style type="text/css">
	.st0{fill:none;stroke:#FC4C02;stroke-width:3;stroke-linecap:round;stroke-linejoin:round;stroke-miterlimit:10;}
</style>
<g id="Group_219" transform="translate(74 -1.469)">
	<path id="Path_21" class="st0" d="M-64.24,20.2c-0.41-7.71,5.02-16.01,13.31-16.01c0,0,10.27-2.06,13.98,10.27
		c0,0,0.2,1.02,2.26,1.45c2.06,0.43,2.06,0.41,2.06,0.41s2.26,0.2,1.02,2.06c0,0-1.65,1.45-0.82,3.08c0.84,0.18,1.37,1.01,1.19,1.85
		c0,0,0,0,0,0.01c0,0-0.98,1.85,1.48,3.08c0,0,1.85,1.65-1.85,4.52c-1.11,0.87-3.22,1.11-4.52,2.09c-1.38,1.02-2.48,2.38-3.19,3.95
		c-1.61,3.69-0.82,8.4,0.52,12.03h-22.41c0,0,8.01-9.03,7.19-14.77c-0.04-0.22-1.46-0.94-1.65-1.08c-1.81-1.34-3.5-2.84-5.04-4.49
		C-62.88,26.34-64.13,23.35-64.24,20.2z"/>
	<path id="Path_22" class="st0" d="M-49.92,20.83c-1.44,0.05-2.56,1.26-2.51,2.7c0,0.13,0.02,0.25,0.04,0.38c0,0-0.33,3.91,5.6,3.71
		"/>
</g>
</svg>
