<?xml version="1.0" encoding="utf-8"?>
<!-- Generator: Adobe Illustrator 24.0.0, SVG Export Plug-In . SVG Version: 6.00 Build 0)  -->
<svg version="1.1" id="Layer_1" xmlns="http://www.w3.org/2000/svg" xmlns:xlink="http://www.w3.org/1999/xlink" x="0px" y="0px"
	 viewBox="0 0 100 100" style="enable-background:new 0 0 100 100;" xml:space="preserve">
<style type="text/css">
	.st0{fill:#FEFEFE;}
	.st1{fill:#F3EEEA;}
	.st2{fill:#9BDB79;}
	.st3{fill:#E3E0D9;}
	.st4{fill:#9CDE7B;}
	.st5{fill:#3393E2;}
	.st6{fill:#FECBD4;}
	.st7{fill:#FED534;}
	.st8{fill:#90C36D;}
	.st9{fill:#C7C5BF;}
	.st10{fill:#FAAB1C;}
	.st11{fill:#0279D9;}
	.st12{fill:#DFB3BB;}
	.st13{fill:#DFBB30;}
	.st14{fill:#FAF9FB;}
	.st15{fill:#DD1D26;}
</style>
<path class="st0" d="M21.13,1.38c0,0-2.01-0.29-5.64,1.34v95.42c0,0,1.43,1.05,4.4,1.15s2.96,0,2.96,0l15.93,0.04L37.67,1.38H21.13z
	"/>
<path class="st1" d="M46.37,1.39c6.91,0,13.83,0,20.74,0c0.04,2.79,0.31,5.55,0.86,8.28c0.81,3.99,2.32,7.68,4.74,10.99
	c1.6,2.18,3.55,4.03,5.58,5.8c2.14,1.85,4.45,3.44,7.05,4.58c3.75,1.64,7.71,2.31,11.74,2.67c0.68,0.06,1.37,0.01,2.04,0.18
	c0,6.95,0,13.89,0,20.84c-0.46-0.03-0.92-0.08-1.38-0.08c-2.18-0.01-4.35-0.21-6.51-0.52c-3.71-0.52-7.32-1.42-10.84-2.73
	c-4.46-1.66-8.59-3.92-12.42-6.74c-2.02-1.48-3.87-3.15-5.8-4.74c-0.96-0.79-1.95-1.54-2.8-2.45c-2.41-2.57-4.32-5.5-5.97-8.6
	c-2.04-3.83-3.63-7.85-4.82-12.02c-0.84-2.95-1.47-5.95-1.85-9C46.51,5.72,46.38,3.56,46.37,1.39z"/>
<path class="st2" d="M46.37,1.39c0,2.16,0.13,4.32,0.4,6.47c0.37,3.05,1,6.04,1.85,9c1.19,4.17,2.78,8.19,4.82,12.02
	c1.65,3.1,3.56,6.03,5.97,8.6c0.85,0.91,1.84,1.66,2.8,2.45c1.92,1.59,3.78,3.26,5.8,4.74c3.83,2.81,7.96,5.08,12.42,6.74
	c3.51,1.31,7.13,2.21,10.84,2.73c2.16,0.3,4.32,0.51,6.51,0.52c0.46,0,0.92,0.05,1.38,0.08c0,8.7,0,17.4,0,26.1
	c-0.2,0.36-0.09,0.81-0.29,1.17c-0.62-0.33-1.16-0.78-1.73-1.18c-1.12-0.8-2.29-1.55-3.36-2.42c0.02-0.16,0.03-0.32,0.06-0.47
	c0.86-4.22,0.36-8.28-1.47-12.18c-0.17-0.36-0.41-0.63-0.77-0.81c-0.53-0.27-1.04-0.16-1.56,0.06c-1.74,0.75-3.57,1.15-5.46,1.2
	c-3.04,0.08-5.84-0.71-8.44-2.29c-0.66-0.4-1.36-0.52-2.04-0.01c-0.16,0.12-0.36,0.2-0.54,0.3c-0.12-0.1-0.24-0.21-0.37-0.3
	c-4.32-3.06-8.65-6.11-12.97-9.17c-5.43-3.84-10.85-7.67-16.28-11.51c-2.09-1.48-4.17-2.97-6.26-4.45c0-12.46,0-24.93,0-37.39
	C40.57,1.39,43.47,1.39,46.37,1.39z"/>
<path class="st3" d="M80.88,99.28c-14.4,0-28.81,0-43.21,0c0-8.8,0-17.59,0-26.39c1.03-1,1.98-2.07,2.81-3.26
	c4.9,3.46,9.79,6.93,14.7,10.38c0.72,0.51,1.41,1.08,2.2,1.48l-0.01,0c0.03,0.05,0.07,0.1,0.1,0.15c0.14,0.08,0.15,0.23,0.21,0.36
	c1.44,3.07,3.53,5.61,6.29,7.58c2.91,2.08,6.17,3.23,9.73,3.52c0.03,0.02,0.07,0.04,0.1,0.06l-0.01-0.01
	c0.98,0.71,1.96,1.41,2.94,2.11c1.73,1.24,3.47,2.47,5.2,3.71C81.62,99.17,81.2,99.04,80.88,99.28z"/>
<path class="st4" d="M68.84,1.39c3.51,0,7.01,0,10.52,0c0.05,0.08,0.13,0.08,0.21,0.09c1.07,0.06,2.12,0.22,3.15,0.49
	c8.04,2.15,13.31,7.18,15.78,15.14c0.3,0.96,0.41,1.95,0.65,2.92c0,4.01,0,8.03,0,12.04c-2.11-0.04-4.19-0.32-6.27-0.66
	c-2.72-0.45-5.35-1.21-7.83-2.43c-2.66-1.3-4.94-3.15-7.09-5.16c-1.41-1.32-2.77-2.7-3.93-4.28c-1.07-1.46-1.96-3.01-2.68-4.66
	c-0.99-2.26-1.6-4.63-1.97-7.08C69.06,5.69,68.9,3.55,68.84,1.39z"/>
<path class="st5" d="M21.14,1.39c3.54,0,7.07,0,10.61,0c0,13.78,0,27.56,0,41.34c0,0.24,0.01,0.48,0.01,0.72
	c-1.38-0.41-2.77-0.74-4.22-0.87c-1.72-0.16-3.41-0.03-5.11,0.26c-0.88,0.15-1.7,0.49-2.56,0.7c0-0.22,0.01-0.45,0.01-0.67
	c0-13.53,0-27.07,0-40.6c0-0.13,0.01-0.26,0-0.38c-0.02-0.22,0.08-0.28,0.29-0.33C20.49,1.49,20.84,1.58,21.14,1.39z"/>
<path class="st6" d="M13.96,97.48c-0.95-0.29-1.78-0.84-2.61-1.35c-1.64-1.02-3.13-2.24-4.42-3.67c-2.73-3.01-4.5-6.51-5.27-10.5
	c-0.16-0.82-0.31-1.65-0.3-2.49c0-0.1-0.01-0.19-0.09-0.26c0-12.43,0-24.85,0-37.28c1.87,1.32,3.75,2.63,5.61,3.95
	c1.69,1.19,3.36,2.4,5.04,3.59c-0.09,0.13-0.17,0.27-0.26,0.4c-3.81,5.76-4.23,11.76-1.27,17.99c0.87,1.84,2.16,3.4,3.6,4.83
	c0,0.21-0.01,0.41-0.01,0.62c0,7.08,0,14.17,0,21.25C13.97,95.54,13.96,96.51,13.96,97.48z"/>
<path class="st7" d="M1.25,40.2c0-6.31,0-12.62,0-18.93c0.1-0.63,0.18-1.27,0.29-1.9c0.22-1.24,0.48-2.47,0.97-3.64
	C4.76,17.32,7,18.9,9.24,20.49c1.58,1.12,3.15,2.24,4.73,3.37c0,7.77,0,15.54,0,23.31c-0.38,0.39-0.76,0.78-1.14,1.17
	c-1.23-0.97-2.55-1.83-3.82-2.74c-1.78-1.27-3.55-2.55-5.35-3.79C2.86,41.27,2.13,40.63,1.25,40.2z"/>
<path class="st0" d="M31.76,43.45c0-0.24-0.01-0.48-0.01-0.72c0-13.78,0-27.56,0-41.34c1.43,0,2.87,0,4.3,0
	c0,0.21,0.01,0.41,0.01,0.62c0,11.69,0,23.39,0,35.08c0,0.21,0.01,0.41,0.01,0.62c0,0.04,0,0.07,0,0.11c0,0.57,0,1.14,0.01,1.71
	c-0.01,2.04-0.02,4.08-0.03,6.12C34.7,44.76,33.29,43.97,31.76,43.45z"/>
<path class="st8" d="M68.84,1.39c0.06,2.15,0.22,4.29,0.55,6.43c0.37,2.44,0.98,4.82,1.97,7.08c0.72,1.65,1.61,3.2,2.68,4.66
	c1.16,1.57,2.52,2.95,3.93,4.28c2.14,2.01,4.42,3.86,7.09,5.16c2.48,1.21,5.11,1.98,7.83,2.43c2.08,0.34,4.16,0.62,6.27,0.66
	c0,0.61,0,1.21,0,1.82c-0.67-0.17-1.36-0.12-2.04-0.18c-4.04-0.37-8-1.04-11.74-2.67c-2.61-1.14-4.92-2.73-7.05-4.58
	c-2.03-1.76-3.98-3.61-5.58-5.8c-2.43-3.3-3.93-6.99-4.74-10.99c-0.55-2.73-0.82-5.5-0.86-8.28C67.69,1.39,68.26,1.39,68.84,1.39z"
	/>
<path class="st8" d="M36.07,37.71c0-0.21-0.01-0.41-0.01-0.62c0-11.69,0-23.39,0-35.08c0-0.21,0-0.41-0.01-0.62
	c0.54,0,1.08,0,1.63,0c0,12.46,0,24.93,0,37.39c-0.48-0.32-0.96-0.64-1.44-0.97C36.2,37.74,36.14,37.72,36.07,37.71z"/>
<path class="st9" d="M36.05,99.28c0-8.36,0-16.72,0-25.09c0.54-0.43,1.08-0.87,1.63-1.3c0,8.8,0,17.59,0,26.39
	C37.13,99.28,36.59,99.28,36.05,99.28z"/>
<path class="st10" d="M1.25,40.2c0.87,0.43,1.61,1.06,2.4,1.61c1.8,1.24,3.57,2.52,5.35,3.79c1.28,0.91,2.59,1.77,3.82,2.74
	c-0.31,0.38-0.61,0.75-0.92,1.13c-1.68-1.2-3.36-2.4-5.04-3.59C5,44.55,3.12,43.24,1.25,41.93C1.25,41.35,1.25,40.78,1.25,40.2z"/>
<path class="st11" d="M73.71,93.1c-3.56-0.29-6.82-1.44-9.73-3.52c-2.76-1.97-4.85-4.51-6.29-7.58c-0.06-0.12-0.08-0.28-0.21-0.36
	c0-0.07,0.02-0.16-0.1-0.15c0,0,0.01,0,0.01,0c-0.16-0.79-0.52-1.52-0.75-2.29c-0.02-0.11-0.04-0.22-0.06-0.33
	c-1.15-4.48-0.74-8.82,1.21-13.01c0.45-0.98,1.25-1.3,2.23-0.89c1.54,0.65,3.13,1.06,4.79,1.19c2.53,0.2,4.97-0.18,7.3-1.22
	c0.51-0.19,1.01-0.42,1.46-0.73c0.18-0.1,0.38-0.17,0.54-0.3c0.69-0.51,1.38-0.4,2.04,0.01c2.59,1.58,5.4,2.37,8.44,2.29
	c1.89-0.05,3.72-0.45,5.46-1.2c0.52-0.22,1.03-0.33,1.56-0.06c0.36,0.18,0.6,0.45,0.77,0.81c1.83,3.9,2.33,7.96,1.47,12.18
	c-0.03,0.15-0.04,0.31-0.06,0.47c-0.21,0.51-0.33,1.04-0.46,1.57c-0.05,0.11-0.11,0.23-0.15,0.34c-1.98,5.38-5.6,9.19-10.88,11.42
	c-1.89,0.8-3.87,1.21-5.91,1.38c-0.85,0.01-1.71,0.03-2.56,0.04c0,0,0.01,0.01,0.01,0.01C73.82,93.07,73.76,93.11,73.71,93.1z
	 M75.04,92.38c2.36-0.02,4.64-0.45,6.85-1.31c9.74-3.79,14.34-15.42,9.82-24.85c-0.33-0.68-0.62-0.79-1.33-0.5
	c-5.07,2.04-9.95,1.66-14.64-1.13c-0.43-0.26-0.8-0.27-1.24-0.01c-4.71,2.8-9.61,3.19-14.69,1.15c-0.73-0.29-1.03-0.18-1.36,0.54
	c-1.58,3.45-2.1,7.05-1.46,10.8C58.48,85.89,66.09,92.34,75.04,92.38z"/>
<path class="st10" d="M73.54,64.21c-0.45,0.31-0.95,0.54-1.46,0.73c-1.94-1.38-3.87-2.76-5.81-4.13c-2.27-1.6-4.54-3.2-6.81-4.8
	c-3.61-2.55-7.22-5.11-10.83-7.67c-3.65-2.58-7.3-5.17-10.95-7.75c-0.55-0.33-1-0.81-1.61-1.06c0-0.57,0-1.14-0.01-1.71
	c0.05,0,0.11,0,0.16,0c0.48,0.32,0.96,0.64,1.44,0.97c2.08,1.48,4.17,2.97,6.26,4.45c5.42,3.84,10.85,7.67,16.28,11.51
	c4.32,3.06,8.65,6.11,12.97,9.17C73.31,64,73.42,64.11,73.54,64.21z"/>
<path class="st10" d="M93.3,79.97c0.13-0.53,0.25-1.06,0.46-1.57c1.07,0.87,2.23,1.62,3.36,2.42c0.57,0.4,1.1,0.86,1.73,1.18
	c0.01,0.52-0.17,1.01-0.3,1.51c-0.09-0.02-0.2-0.02-0.27-0.07c-0.58-0.41-1.15-0.84-1.74-1.24C95.46,81.46,94.43,80.65,93.3,79.97z"
	/>
<path class="st11" d="M11.91,49.47c0.31-0.38,0.61-0.75,0.92-1.13c0.38-0.39,0.76-0.78,1.14-1.17c0.54-0.45,1.08-0.9,1.63-1.35
	c1.34-0.92,2.74-1.73,4.28-2.28c0.86-0.2,1.69-0.54,2.56-0.7c1.69-0.3,3.38-0.42,5.11-0.26c1.45,0.13,2.84,0.46,4.22,0.87
	c1.53,0.53,2.94,1.31,4.28,2.2c0.54,0.43,1.07,0.86,1.61,1.29c0.12,0.12,0.24,0.25,0.37,0.37c4.41,4.43,6.1,9.74,5.07,15.9
	c-0.3,1.8-0.98,3.47-1.8,5.1c-0.27,0.44-0.55,0.89-0.82,1.33c-0.82,1.18-1.78,2.26-2.81,3.26c-0.54,0.43-1.08,0.87-1.63,1.3
	c-1.94,1.31-4.02,2.31-6.33,2.78c-4.98,1.03-9.59,0.12-13.81-2.75c-0.1-0.07-0.22-0.13-0.32-0.2c-0.54-0.45-1.08-0.89-1.61-1.34
	c-1.44-1.43-2.73-2.99-3.6-4.83c-2.96-6.23-2.54-12.24,1.27-17.99C11.74,49.73,11.82,49.6,11.91,49.47z M33.77,69.57
	c0.01-0.12-0.05-0.29-0.11-0.45c-2.2-6.37-4.4-12.74-6.61-19.11c-0.22-0.63-0.59-0.92-1.13-0.92c-0.52,0-0.89,0.29-1.1,0.89
	c-2.22,6.41-4.44,12.83-6.66,19.24c-0.08,0.23-0.11,0.46-0.04,0.7c0.25,0.88,1.26,1.1,1.98,0.41c1.84-1.76,3.68-3.53,5.5-5.31
	c0.23-0.23,0.36-0.29,0.64-0.03c1.44,1.42,2.91,2.81,4.37,4.22c0.44,0.42,0.86,0.85,1.32,1.25c0.37,0.33,0.8,0.38,1.24,0.15
	C33.57,70.43,33.77,70.09,33.77,69.57z"/>
<path class="st10" d="M40.48,69.63c0.27-0.44,0.55-0.89,0.82-1.33c0.01,0.15,0.13,0.21,0.24,0.28c2.37,1.68,4.74,3.35,7.11,5.03
	c2.01,1.42,4,2.85,6.02,4.26c0.65,0.45,1.26,0.96,1.97,1.33c0.23,0.77,0.59,1.5,0.75,2.29c-0.8-0.4-1.48-0.97-2.2-1.48
	C50.27,76.56,45.38,73.09,40.48,69.63z"/>
<path class="st10" d="M73.81,93.16c0.85-0.01,1.71-0.03,2.56-0.04c0.04,0.11,0.12,0.18,0.22,0.24c1.84,1.3,3.67,2.59,5.5,3.9
	c0.57,0.41,1.21,0.74,1.69,1.28c-0.59,0.23-1.19,0.39-1.82,0.44c-1.73-1.24-3.47-2.47-5.2-3.71C75.77,94.57,74.79,93.86,73.81,93.16
	z"/>
<path class="st10" d="M57.37,81.49c0.12-0.01,0.1,0.08,0.1,0.15C57.44,81.6,57.4,81.54,57.37,81.49z"/>
<path class="st10" d="M73.71,93.1c0.05,0,0.11-0.03,0.1,0.06C73.78,93.14,73.75,93.12,73.71,93.1z"/>
<path class="st12" d="M13.98,72.69c0.54,0.45,1.08,0.89,1.61,1.34c0,7.82,0,15.64-0.01,23.46c0,0.14,0,0.29,0,0.43
	c0,0.17-0.09,0.24-0.25,0.17c-0.47-0.19-0.96-0.31-1.38-0.62c0-0.97,0.01-1.94,0.01-2.91c0-7.08,0-14.17,0-21.25
	C13.97,73.1,13.97,72.9,13.98,72.69z"/>
<path class="st13" d="M15.59,45.82c-0.54,0.45-1.08,0.9-1.63,1.35c0-7.77,0-15.54,0-23.31c0.57,0.29,1.01,0.78,1.6,1.05
	c0.01,0.19,0.02,0.38,0.02,0.57c0,6.57,0,13.15,0,19.72C15.58,45.41,15.59,45.61,15.59,45.82z"/>
<path class="st10" d="M15.56,24.9c-0.59-0.26-1.02-0.76-1.6-1.05c-1.58-1.12-3.15-2.25-4.73-3.37C7,18.9,4.76,17.32,2.52,15.73
	c0.14-0.47,0.32-0.93,0.55-1.37c1.63,1.14,3.25,2.28,4.88,3.42c1.98,1.39,3.95,2.78,5.93,4.17c0.57,0.42,1.14,0.83,1.71,1.25
	C15.57,23.77,15.57,24.34,15.56,24.9z"/>
<path class="st3" d="M13.87,21.96c-1.98-1.39-3.95-2.78-5.93-4.17c-1.63-1.14-3.25-2.28-4.88-3.42c0.77-1.94,1.9-3.66,3.23-5.25
	c1.92-2.3,4.23-4.11,6.9-5.47c0.24-0.12,0.49-0.23,0.76-0.26c0.01,0.06,0.02,0.13,0.02,0.19c0,5.99,0,11.99,0,17.98
	C13.97,21.7,14,21.85,13.87,21.96z"/>
<path class="st9" d="M13.87,21.96c0.13-0.11,0.1-0.26,0.1-0.4c0-5.99,0-11.99,0-17.98c0-0.06-0.01-0.13-0.02-0.19
	C14.36,3,14.92,2.93,15.4,2.7c0.12-0.06,0.18,0.01,0.18,0.13c0,0.08,0,0.16,0,0.24c0,6.66,0,13.33,0,19.99
	c0,0.05-0.01,0.1-0.01,0.14C15.01,22.79,14.44,22.37,13.87,21.96z"/>
<path class="st13" d="M37.66,46.94c-0.54-0.43-1.07-0.86-1.61-1.29c0.01-2.04,0.02-4.08,0.03-6.12c0.6,0.25,1.06,0.73,1.61,1.06
	C37.67,42.71,37.66,44.82,37.66,46.94z"/>
<path class="st13" d="M36.23,37.81c-0.05,0-0.11,0-0.16,0c0-0.04,0-0.07,0-0.11C36.14,37.72,36.2,37.74,36.23,37.81z"/>
<path class="st7" d="M83.77,98.54c-0.48-0.54-1.12-0.87-1.69-1.28c-1.82-1.31-3.66-2.6-5.5-3.9c-0.09-0.07-0.18-0.13-0.22-0.24
	c2.04-0.18,4.02-0.58,5.91-1.38c5.27-2.24,8.9-6.05,10.88-11.42c0.04-0.12,0.1-0.23,0.15-0.34c1.13,0.68,2.15,1.5,3.24,2.24
	c0.59,0.4,1.16,0.83,1.74,1.24c0.07,0.05,0.18,0.05,0.27,0.07c-0.74,2.89-2.08,5.49-3.93,7.81c-2.68,3.36-6.08,5.7-10.15,7.07
	C84.24,98.46,84.01,98.55,83.77,98.54z"/>
<path class="st7" d="M37.66,46.94c0.01-2.11,0.02-4.23,0.02-6.34c3.65,2.58,7.3,5.16,10.95,7.75c3.61,2.56,7.22,5.12,10.83,7.67
	c2.27,1.6,4.54,3.19,6.81,4.8c1.94,1.37,3.88,2.76,5.81,4.13c-2.33,1.05-4.77,1.42-7.3,1.22c-1.66-0.13-3.25-0.55-4.79-1.19
	c-0.98-0.41-1.77-0.09-2.23,0.89c-1.94,4.19-2.36,8.53-1.21,13.01c0.03,0.11,0.04,0.22,0.06,0.33c-0.71-0.37-1.32-0.87-1.97-1.33
	c-2.01-1.41-4.01-2.84-6.02-4.26c-2.37-1.68-4.74-3.35-7.11-5.03c-0.1-0.07-0.23-0.13-0.24-0.28c0.81-1.62,1.49-3.3,1.8-5.1
	c1.03-6.16-0.66-11.47-5.07-15.9C37.9,47.19,37.78,47.06,37.66,46.94z"/>
<path class="st14" d="M75.04,92.38c-8.95-0.04-16.56-6.49-18.06-15.31c-0.64-3.75-0.12-7.35,1.46-10.8
	c0.33-0.72,0.63-0.83,1.36-0.54c5.09,2.03,9.99,1.64,14.69-1.15c0.44-0.26,0.8-0.25,1.24,0.01c4.69,2.79,9.57,3.18,14.64,1.13
	c0.72-0.29,1.01-0.18,1.33,0.5c4.52,9.43-0.08,21.07-9.82,24.85C79.68,91.93,77.4,92.35,75.04,92.38z M75.09,72.42
	c-5.69,0-11.37,0-17.06-0.01c-0.36,0-0.47,0.08-0.5,0.46c-0.11,1.36-0.03,2.7,0.2,4.04c1.71,10.09,11.6,16.6,21.52,14.17
	c8.31-2.04,13.91-9.68,13.39-18.24c-0.03-0.43-0.23-0.43-0.54-0.42C86.43,72.43,80.76,72.42,75.09,72.42z M75.05,71.19
	c5.61,0,11.21,0,16.82,0c0.58,0,0.58,0,0.46-0.57c-0.27-1.3-0.67-2.55-1.17-3.77c-0.19-0.45-0.36-0.48-0.79-0.31
	c-5.15,2-10.12,1.57-14.89-1.21c-0.27-0.16-0.45-0.17-0.72-0.01c-4.85,2.82-9.89,3.22-15.12,1.16c-0.33-0.13-0.43-0.04-0.56,0.24
	c-0.56,1.25-0.99,2.55-1.24,3.9c-0.11,0.57-0.11,0.57,0.49,0.57C63.9,71.19,69.47,71.19,75.05,71.19z"/>
<path class="st0" d="M33.77,69.57c0,0.52-0.2,0.86-0.61,1.06c-0.44,0.22-0.88,0.17-1.24-0.15c-0.45-0.4-0.88-0.83-1.32-1.25
	c-1.46-1.4-2.92-2.8-4.37-4.22c-0.27-0.27-0.4-0.2-0.64,0.03c-1.83,1.78-3.66,3.54-5.5,5.31c-0.71,0.68-1.72,0.47-1.98-0.41
	c-0.07-0.24-0.04-0.47,0.04-0.7c2.22-6.41,4.44-12.83,6.66-19.24c0.21-0.61,0.58-0.89,1.1-0.89c0.54,0,0.92,0.29,1.13,0.92
	c2.2,6.37,4.4,12.74,6.61,19.11C33.72,69.28,33.78,69.45,33.77,69.57z"/>
<path class="st11" d="M75.09,72.42c5.67,0,11.34,0,17.01,0c0.31,0,0.52-0.01,0.54,0.42c0.52,8.56-5.08,16.21-13.39,18.24
	c-9.92,2.43-19.81-4.08-21.52-14.17c-0.23-1.34-0.31-2.68-0.2-4.04c0.03-0.38,0.14-0.46,0.5-0.46
	C63.72,72.43,69.41,72.42,75.09,72.42z M73.16,79.13c-0.13,0.07-0.2,0.11-0.27,0.14c-1.92,0.98-2.05,3.48-0.22,4.61
	c1.37,0.84,2.85,0.87,4.29,0.17c1.21-0.59,1.79-1.97,1.43-3.22c-0.24-0.84-0.85-1.34-1.67-1.68c0.1-0.07,0.16-0.12,0.23-0.15
	c0.79-0.44,1.23-1.09,1.17-2.02c-0.05-0.94-0.56-1.59-1.38-1.96c-1.2-0.53-2.45-0.53-3.66-0.02c-1.01,0.43-1.51,1.35-1.38,2.42
	C71.8,78.28,72.35,78.78,73.16,79.13z M79.82,79.67c-0.02,0.68,0.04,1.42,0.21,2.16c0.36,1.62,1.46,2.59,3.04,2.66
	c1.77,0.08,2.92-0.67,3.4-2.35c0.5-1.75,0.5-3.53-0.05-5.27c-0.45-1.45-1.56-2.2-3.1-2.21c-1.54-0.01-2.61,0.74-3.13,2.18
	C79.88,77.73,79.8,78.66,79.82,79.67z M65.97,82.63c0.11-0.32,0.31-0.48,0.5-0.64c0.58-0.5,1.16-0.99,1.74-1.49
	c0.57-0.49,1.08-1.04,1.43-1.71c0.89-1.7,0.12-3.48-1.73-3.97c-0.89-0.24-1.8-0.23-2.69,0.01c-1.08,0.3-1.81,0.95-2.1,2.06
	c-0.16,0.62-0.15,0.63,0.47,0.68c0.24,0.02,0.48,0.01,0.71,0.06c0.48,0.1,0.79,0.09,0.91-0.55c0.14-0.74,0.94-1.05,1.82-0.83
	c0.64,0.16,0.97,0.7,0.87,1.43c-0.07,0.55-0.39,0.97-0.79,1.32c-0.87,0.79-1.77,1.55-2.64,2.35c-0.75,0.69-1.36,1.47-1.63,2.48
	c-0.1,0.38-0.06,0.53,0.39,0.53c1.81-0.02,3.63,0,5.44-0.01c0.42,0,0.98,0.19,1.24-0.09c0.25-0.27,0.04-0.82,0.08-1.25
	c0.03-0.33-0.11-0.39-0.41-0.39C68.41,82.64,67.22,82.63,65.97,82.63z"/>
<path class="st15" d="M75.05,71.19c-5.57,0-11.15,0-16.72,0c-0.6,0-0.6,0-0.49-0.57c0.26-1.35,0.69-2.64,1.24-3.9
	c0.12-0.28,0.23-0.37,0.56-0.24c5.22,2.06,10.27,1.66,15.12-1.16c0.28-0.16,0.45-0.15,0.72,0.01c4.77,2.78,9.74,3.21,14.89,1.21
	c0.44-0.17,0.61-0.14,0.79,0.31c0.5,1.22,0.91,2.48,1.17,3.77c0.12,0.57,0.11,0.57-0.46,0.57C86.26,71.19,80.65,71.19,75.05,71.19z"
	/>
<path class="st0" d="M73.16,79.13c-0.81-0.35-1.36-0.84-1.46-1.7c-0.13-1.07,0.37-2,1.38-2.42c1.21-0.51,2.46-0.52,3.66,0.02
	c0.82,0.36,1.33,1.02,1.38,1.96c0.05,0.93-0.38,1.58-1.17,2.02c-0.07,0.04-0.13,0.08-0.23,0.15c0.82,0.34,1.43,0.84,1.67,1.68
	c0.35,1.25-0.22,2.63-1.43,3.22c-1.44,0.7-2.92,0.67-4.29-0.17c-1.84-1.13-1.7-3.63,0.22-4.61C72.96,79.24,73.03,79.2,73.16,79.13z
	 M76.43,81.5c0.03-0.94-0.54-1.54-1.47-1.56c-0.9-0.02-1.51,0.56-1.53,1.46c-0.02,0.94,0.59,1.61,1.48,1.63
	C75.81,83.05,76.4,82.45,76.43,81.5z M74.91,76.13c-0.79,0-1.29,0.45-1.29,1.15c0,0.71,0.5,1.16,1.28,1.16
	c0.78,0,1.28-0.45,1.29-1.16C76.2,76.59,75.69,76.13,74.91,76.13z"/>
<path class="st0" d="M79.82,79.67c-0.02-1.01,0.06-1.94,0.38-2.84c0.51-1.44,1.58-2.19,3.13-2.18c1.54,0.01,2.64,0.76,3.1,2.21
	c0.55,1.74,0.55,3.52,0.05,5.27c-0.48,1.68-1.63,2.44-3.4,2.35c-1.59-0.07-2.68-1.03-3.04-2.66C79.86,81.09,79.8,80.35,79.82,79.67z
	 M81.95,79.64c0.07,0.84-0.02,1.76,0.34,2.62c0.19,0.46,0.53,0.7,1.03,0.7c0.51-0.01,0.84-0.25,1.01-0.72
	c0.08-0.21,0.14-0.42,0.18-0.64c0.18-1.19,0.14-2.38,0.07-3.57c-0.02-0.43-0.11-0.85-0.31-1.24c-0.2-0.39-0.53-0.59-0.96-0.6
	c-0.45,0-0.8,0.2-0.99,0.62c-0.09,0.2-0.15,0.42-0.2,0.63C81.98,78.15,81.98,78.87,81.95,79.64z"/>
<path class="st14" d="M65.97,82.63c1.25,0,2.44,0.01,3.63-0.01c0.3,0,0.44,0.06,0.41,0.39c-0.04,0.42,0.17,0.98-0.08,1.25
	c-0.26,0.28-0.81,0.08-1.24,0.09c-1.81,0.01-3.63-0.01-5.44,0.01c-0.45,0.01-0.5-0.15-0.39-0.53c0.27-1.01,0.88-1.79,1.63-2.48
	c0.87-0.8,1.76-1.56,2.64-2.35c0.4-0.36,0.71-0.77,0.79-1.32c0.1-0.73-0.23-1.28-0.87-1.43c-0.88-0.22-1.68,0.1-1.82,0.83
	c-0.12,0.64-0.43,0.65-0.91,0.55c-0.23-0.05-0.47-0.05-0.71-0.06c-0.63-0.05-0.63-0.05-0.47-0.68c0.29-1.11,1.03-1.77,2.1-2.06
	c0.89-0.25,1.79-0.25,2.69-0.01c1.85,0.49,2.63,2.27,1.73,3.97c-0.35,0.67-0.86,1.22-1.43,1.71c-0.58,0.49-1.17,0.99-1.74,1.49
	C66.28,82.15,66.08,82.32,65.97,82.63z"/>
<path class="st11" d="M76.43,81.5c-0.03,0.95-0.61,1.55-1.51,1.53c-0.9-0.02-1.5-0.69-1.48-1.63c0.02-0.89,0.63-1.48,1.53-1.46
	C75.89,79.96,76.45,80.56,76.43,81.5z"/>
<path class="st11" d="M74.91,76.13c0.78,0,1.29,0.46,1.29,1.15c-0.01,0.7-0.51,1.15-1.29,1.16c-0.78,0-1.28-0.45-1.28-1.16
	C73.62,76.59,74.12,76.14,74.91,76.13z"/>
<path class="st11" d="M81.95,79.64c0.03-0.77,0.03-1.49,0.17-2.19c0.05-0.22,0.11-0.43,0.2-0.63c0.19-0.42,0.54-0.62,0.99-0.62
	c0.43,0,0.75,0.2,0.96,0.6c0.2,0.39,0.29,0.81,0.31,1.24c0.07,1.19,0.11,2.38-0.07,3.57c-0.03,0.22-0.1,0.43-0.18,0.64
	c-0.17,0.47-0.51,0.71-1.01,0.72c-0.51,0.01-0.84-0.24-1.03-0.7C81.93,81.4,82.02,80.48,81.95,79.64z"/>
</svg>
