<?xml version="1.0" encoding="utf-8"?>
<!-- Generator: Adobe Illustrator 24.0.0, SVG Export Plug-In . SVG Version: 6.00 Build 0)  -->
<svg version="1.1" id="Layer_1" xmlns="http://www.w3.org/2000/svg" xmlns:xlink="http://www.w3.org/1999/xlink" x="0px" y="0px"
	 viewBox="0 0 50 50" style="enable-background:new 0 0 50 50;" xml:space="preserve">
<style type="text/css">
	.st0{fill:none;}
	.st1{fill:none;stroke:#FFFFFF;}
</style>
<g id="Rectangle_31">
	<path class="st0" d="M6,19h39c2.76,0,5,2.24,5,5v4c0,2.76-2.24,5-5,5H6c-2.76,0-5-2.24-5-5v-4C1,21.24,3.24,19,6,19z"/>
	<path class="st1" d="M6,19.5h39c2.49,0,4.5,2.01,4.5,4.5v4c0,2.49-2.01,4.5-4.5,4.5H6c-2.49,0-4.5-2.01-4.5-4.5v-4
		C1.5,21.51,3.51,19.5,6,19.5z"/>
</g>
</svg>
