<?xml version="1.0" encoding="utf-8"?>
<!-- Generator: Adobe Illustrator 24.0.0, SVG Export Plug-In . SVG Version: 6.00 Build 0)  -->
<svg version="1.1" id="Layer_1" xmlns="http://www.w3.org/2000/svg" xmlns:xlink="http://www.w3.org/1999/xlink" x="0px" y="0px"
	 viewBox="0 0 49 14" style="enable-background:new 0 0 49 14;" xml:space="preserve">
<style type="text/css">
	.st0{fill:none;}
	.st1{fill:none;stroke:#FFFFFF;}
	.st2{fill:#FFFFFF;}
</style>
<g id="Rectangle_31_4_" transform="translate(288 57)">
	<path class="st0" d="M-283-57h39c2.76,0,5,2.24,5,5v4c0,2.76-2.24,5-5,5h-39c-2.76,0-5-2.24-5-5v-4C-288-54.76-285.76-57-283-57z"
		/>
	<path class="st1" d="M-283-56.5h39c2.49,0,4.5,2.01,4.5,4.5v4c0,2.49-2.01,4.5-4.5,4.5h-39c-2.49,0-4.5-2.01-4.5-4.5v-4
		C-287.5-54.49-285.49-56.5-283-56.5z"/>
</g>
<rect x="3" y="2" class="st0" width="43" height="10"/>
<g transform="translate(-248 -148)">
	<path id="Rectangle_9_4_" class="st2" d="M253,150h3c1.1,0,2,0.9,2,2v6c0,1.1-0.9,2-2,2h-3c-1.1,0-2-0.9-2-2v-6
		C251,150.9,251.9,150,253,150z"/>
</g>
<g transform="translate(-239 -148)">
	<path id="Rectangle_9-2_4_" class="st2" d="M253,150h3c1.1,0,2,0.9,2,2v6c0,1.1-0.9,2-2,2h-3c-1.1,0-2-0.9-2-2v-6
		C251,150.9,251.9,150,253,150z"/>
</g>
<g transform="translate(-230 -148)">
	<path id="Rectangle_9-3_4_" class="st2" d="M253,150h3c1.1,0,2,0.9,2,2v6c0,1.1-0.9,2-2,2h-3c-1.1,0-2-0.9-2-2v-6
		C251,150.9,251.9,150,253,150z"/>
</g>
</svg>
