<svg id="Layer_1" data-name="Layer 1" xmlns="http://www.w3.org/2000/svg" viewBox="0 0 16.48 17.68"><defs><style>.cls-1{fill:#fff;}</style></defs><g id="Group_663" data-name="Group 663"><g id="Group_660" data-name="Group 660"><g id="Group_659" data-name="Group 659"><g id="Group_658" data-name="Group 658"><path id="Path_297" data-name="Path 297" class="cls-1" d="M11.61,6.1l-1.38,0-.3,8.19,1.38,0Z"/><rect id="Rectangle_345" data-name="Rectangle 345" class="cls-1" x="7.55" y="6.07" width="1.38" height="8.19"/><path id="Path_298" data-name="Path 298" class="cls-1" d="M6.55,14.24,6.25,6,4.87,6.1l.3,8.19Z"/><path id="Path_299" data-name="Path 299" class="cls-1" d="M0,2.65V4H1.44l1.15,13a.69.69,0,0,0,.69.63h9.9a.69.69,0,0,0,.69-.63L15,4h1.47V2.65ZM12.55,16.3H3.91L2.83,4H13.62Z"/></g></g></g><g id="Group_662" data-name="Group 662"><g id="Group_661" data-name="Group 661"><path id="Path_300" data-name="Path 300" class="cls-1" d="M10.5,0H6A1.16,1.16,0,0,0,4.82,1.15v2.2H6.21v-2h4.06v2h1.39V1.15A1.16,1.16,0,0,0,10.5,0Z"/></g></g></g></svg>