<?xml version="1.0" encoding="utf-8"?>
<!-- Generator: Adobe Illustrator 24.0.0, SVG Export Plug-In . SVG Version: 6.00 Build 0)  -->
<svg version="1.1" id="Layer_3" xmlns="http://www.w3.org/2000/svg" xmlns:xlink="http://www.w3.org/1999/xlink" x="0px" y="0px"
	 viewBox="0 0 80 80" style="enable-background:new 0 0 80 80;" xml:space="preserve">
<style type="text/css">
	.st0{fill:none;stroke:#808080;stroke-width:3;stroke-miterlimit:10;stroke-dasharray:3;}
	.st1{fill:none;stroke:#808080;stroke-width:3;stroke-linecap:round;stroke-linejoin:round;stroke-miterlimit:10;}
</style>
<line class="st0" x1="7.12" y1="40" x2="72.07" y2="40"/>
<line class="st0" x1="40" y1="11.66" x2="40" y2="68.42"/>
<path class="st1" d="M8.01,40.04c0.95-4.47,2.25-8.9,3.9-13.16c2.08-5.37,6.72-16.52,14.46-13.54c4.31,1.66,6.85,7.12,8.51,11.02
	c2.14,5.03,3.56,10.35,4.72,15.68V40c0.92,4.49,2.27,8.94,3.92,13.2c2.1,5.41,6.82,16.7,14.61,13.42c4.42-1.86,6.94-7.53,8.61-11.61
	c1.98-4.83,3.33-9.92,4.44-15.01"/>
</svg>
