<?xml version="1.0" encoding="utf-8"?>
<!-- Generator: Adobe Illustrator 24.1.2, SVG Export Plug-In . SVG Version: 6.00 Build 0)  -->
<svg version="1.1" id="Layer_1" xmlns="http://www.w3.org/2000/svg" xmlns:xlink="http://www.w3.org/1999/xlink" x="0px" y="0px"
	 viewBox="0 0 512 512" style="enable-background:new 0 0 512 512;" xml:space="preserve">
<style type="text/css">
	.st0{fill:#FFFFFF;}
</style>
<g id="Group_689" transform="translate(-0.009)">
	<path class="st0" d="M343.62,495.64c-3.92,0-7.76-1.89-10.09-5.4c-3.71-5.57-2.21-13.09,3.36-16.8
		c47.79-31.86,75.18-85.15,73.27-142.57c-0.37-15.26-2.74-30.34-7.06-44.91C371.24,179.79,293.39,102.63,225.77,52.94
		c2.34,25.35,0.2,61.71-23.72,89.88c-20.83,23.01-40.32,47.19-58.15,72.15c-25.38,37.52-38.99,81.58-39.17,127.18
		c-0.05,51.19,25.29,98.85,67.79,127.45c5.55,3.74,7.03,11.26,3.29,16.82c-3.73,5.54-11.25,7.03-16.81,3.29
		c-49.22-33.12-78.57-88.3-78.5-147.62c0.21-50.46,15.25-99.19,43.52-140.95c18.55-25.98,38.62-50.89,59.82-74.3
		c31.12-36.67,13.39-96.58,13.2-97.18c-1.49-4.9,0.25-10.22,4.37-13.27c4.12-3.05,9.7-3.2,13.95-0.35
		c75.39,50.5,173.19,137.11,210.96,263c4.93,16.66,7.64,33.86,8.06,51.14c2.19,65.75-29.24,126.88-84.05,163.43
		C348.26,494.98,345.93,495.64,343.62,495.64z"/>
	<path class="st0" d="M313.05,458.29c-2.93,0-5.88-1.05-8.2-3.21c-4.93-4.53-5.24-12.19-0.71-17.11
		c26.18-28.45,37.46-58.69,33.51-89.88c-6.25-49.32-48.44-91.47-75.01-113.53c3.05,48.3-6.06,96.4-26.82,140.65
		c-2.36,5.04-7.83,7.89-13.33,6.73c-20.67-4.09-35.42-19.58-44.99-34.01c-8.62,53.69,40.24,86.52,42.65,88.1
		c5.58,3.67,7.16,11.17,3.51,16.76c-3.64,5.6-11.1,7.21-16.72,3.55c-29.71-19.26-76.88-74.4-42.79-145.21
		c2.13-4.42,6.8-7.08,11.64-6.83c4.91,0.3,9.16,3.54,10.75,8.19c3.29,9.64,14.66,33.21,31.8,42.43
		c19.27-45.85,25.21-95.75,17.16-145.03c-0.77-4.73,1.31-9.47,5.32-12.09c4-2.61,9.17-2.64,13.22-0.04
		c3.95,2.56,96.99,63.53,107.65,147.2c4.92,38.63-8.45,75.45-39.72,109.42C319.58,456.98,316.32,458.29,313.05,458.29z"/>
</g>
</svg>
