<?xml version="1.0" encoding="utf-8"?>
<!-- Generator: Adobe Illustrator 24.0.0, SVG Export Plug-In . SVG Version: 6.00 Build 0)  -->
<svg version="1.1" id="Layer_1" xmlns="http://www.w3.org/2000/svg" xmlns:xlink="http://www.w3.org/1999/xlink" x="0px" y="0px"
	 viewBox="0 0 50 50" style="enable-background:new 0 0 50 50;" xml:space="preserve">
<style type="text/css">
	.st0{fill:none;stroke:#FFFFFF;stroke-width:2.0418;stroke-linecap:round;stroke-linejoin:round;stroke-miterlimit:10;}
</style>
<path class="st0" d="M33.99,48.08c5.03-3.2,8.01-9.14,7.87-15.32c-0.04-1.6-0.28-3.21-0.76-4.8C37.85,17.11,29.71,8.5,20.48,2.31
	c0,0,2.04,6.63-1.58,10.89c0,0-3.62,3.99-5.88,7.3c0,0-4.22,5.66-4.14,13.42c0,5.73,2.9,10.78,7.32,13.76"/>
<path class="st0" d="M20.97,44.34c0,0-7.69-5-3.85-12.99c0,0,1.58,4.7,4.98,5.37c0,0,3.85-7.31,2.26-16.22
	c0,0,17.88,11.55,6.56,23.84"/>
</svg>
