<?xml version="1.0" encoding="utf-8"?>
<!-- Generator: Adobe Illustrator 24.1.2, SVG Export Plug-In . SVG Version: 6.00 Build 0)  -->
<svg version="1.1" id="Layer_1" xmlns="http://www.w3.org/2000/svg" xmlns:xlink="http://www.w3.org/1999/xlink" x="0px" y="0px"
	 viewBox="0 0 50.5 83.5" style="enable-background:new 0 0 50.5 97;" xml:space="preserve">
<style type="text/css">
	.st0{enable-background:new; stroke: none;}
	.st1{}
	.st2{fill:none;stroke-width:2;stroke-miterlimit:10;}
	.st3{fill:none;stroke-width:2;stroke-linecap:round;stroke-linejoin:round;}
</style>
<g id="Group_761" transform="translate(-121 -210)">
	<g id="Group_756" transform="translate(18.85 4)">
		<g id="Group_712" transform="translate(112.85 231.902)">
			<path id="Path_251" class="st2" d="M14.7,24.9c-0.9-0.5-1.7-1.1-2.6-1.8c-0.8-0.9-1.8-1.7-2.9-2.4c-0.6-0.3-1.3-0.5-1.9-0.6
				c-0.6,0-1.2-0.2-1.7-0.5c-0.4-0.3-0.8-0.5-1.3-0.7l-3.9-2.2c-0.4-0.2-0.5-0.7-0.3-1.1L6.8,3.9c0.2-0.4,0.7-0.5,1.1-0.3l7.1,4
				c0.1,0,0.1,0.1,0.2,0.1c1.1,0.2,2.2,0,3.1-0.5c0.3-0.1,0.7-0.1,1,0.2l7.3,8.9c0.5,0.6,1,1,1.6,1.5"/>
			<line id="Line_87" class="st3" x1="20.8" y1="9.3" x2="17.5" y2="10.6"/>
			<line id="Line_88" class="st3" x1="22.1" y1="11.1" x2="18.9" y2="12.5"/>
			<line id="Line_89" class="st3" x1="23.8" y1="13" x2="20.5" y2="14.3"/>
			<path id="Path_252" class="st3" d="M4.8,7.4c0,0,4.2,0.8,5.8,3.6c1.3,2.3,1,5.1-0.6,7.1"/>
			<path id="Path_253" class="st2" d="M20.6,23.6c2.9-5.7,7.5-5.8,7.5-5.8c0.5,0.3,1,0.6,1.4,0.9c0.8,0.5,1.5,1.2,2.3,1.7
				c0.2,0.2,0.7,0.4,0.7,0.7c0.1,0.7,0.1,1.3,0,2c-0.1,0.7-0.6,1.3-1.2,1.7c-0.9,0.7-2,1.3-3.1,1.6c-1.1,0.4-2.4,0.7-3.6,0.7
				c-1,0-2,0-3.1,0c-0.9,0.1-1.9,0-2.8-0.2c-0.8-0.3-1.6-0.6-2.3-1.1l-1.8-1"/>
			<path id="Path_254" class="st3" d="M24.6,19.1"/>
			<path id="Path_255" class="st3" d="M10.3,10.6c2.1,1,4.5,2,5.9,4c1.1,1.6,2.3,3.5,4,4.5c0.9,0.5,1.8,0.9,2.7,1.3"/>
			<path id="Path_256" class="st3" d="M1.5,13.2l0.8,0.5l13.1,7.6l1.8,1c0.9,0.5,1.8,0.9,2.8,1.2c2.1,0.5,4.2,0.8,6.3,1
				c0.7,0.1,1.4-0.5,1.9-0.9c0.7-0.4,1.2-1,1.6-1.8c0.4-0.2,0.8-0.4,1.3-0.4h0.7c0,0,0.9,0,0.9,0.4"/>
			<path id="Path_257" class="st2" d="M18.7,7.2V5c0,0,0.1-0.9-1.2-0.9l-4.2,0.3c-0.4,0-0.8,0.4-0.8,0.9c0,0,0,0.1,0,0.1l0,0.9"/>
			<path id="Path_258" class="st2" d="M6.8,3.9L5.6,1.5c0,0-0.4-1.2,1.2-1.5c0.5,0.1,0.8,0.5,0.9,1l0.1,0.8c0,0.6,0,1.1-0.2,1.7"/>
		</g>
		<g id="Group_751" transform="translate(103.15 207)">
			<path id="Path_564" class="st2" d="M44.4,9.9H37v2.8H11.5V9.9H4.1C1.9,9.9,0,11.8,0,14.1v49.1c0,2.3,1.9,4.1,4.1,4.1h40.2
				c2.3,0,4.1-1.9,4.1-4.1V14.1C48.5,11.8,46.6,9.9,44.4,9.9z"/>
			<path id="Path_565" class="st2" d="M11.5,6.4h6.4c1.8,0,3.2-1.4,3.2-3.2c0-1.8,1.4-3.2,3.2-3.2c1.8,0,3.2,1.4,3.2,3.2l0,0
				c0,1.8,1.4,3.2,3.2,3.2H37v6.4H11.5L11.5,6.4z"/>
		</g>
	</g>
</g>
</svg>
