<?xml version="1.0" encoding="utf-8"?>
<!-- Generator: Adobe Illustrator 24.1.2, SVG Export Plug-In . SVG Version: 6.00 Build 0)  -->
<svg version="1.1" id="Layer_1" xmlns="http://www.w3.org/2000/svg" xmlns:xlink="http://www.w3.org/1999/xlink" x="0px" y="0px"
	 viewBox="0 0 74 83.5" style="enable-background:new 0 0 74 97;" xml:space="preserve">
<style type="text/css">
	.st0{enable-background:new    ; stroke: none;}
	.st1{}
	.st2{fill:none;;stroke-width:2;stroke-miterlimit:10;}
</style>
<g id="Group_762" transform="translate(-192 -210)">
	<g id="Group_757" transform="translate(24.85 4)">
		<g id="Group_753" transform="translate(180.15 207)">
			<path id="Path_564" class="st2" d="M44.4,9.9H37v2.8H11.5V9.9H4.1C1.9,9.9,0,11.8,0,14.1v49.1c0,2.3,1.9,4.1,4.1,4.1h40.2
				c2.3,0,4.1-1.9,4.1-4.1V14.1C48.5,11.8,46.6,9.9,44.4,9.9z"/>
			<path id="Path_565" class="st2" d="M11.5,6.4h6.4c1.8,0,3.2-1.4,3.2-3.2c0-1.8,1.4-3.2,3.2-3.2c1.8,0,3.2,1.4,3.2,3.2l0,0
				c0,1.8,1.4,3.2,3.2,3.2H37v6.4H11.5L11.5,6.4z"/>
		</g>
		<g id="Group_754" transform="translate(190.423 231.902)">
			<path id="Path_540" class="st1" d="M23,1.2C22.6,0.5,21.8,0,20.9,0h-7.1c-1.3,0-2.4,1.1-2.4,2.4c0,0,0,0,0,0v3.2
				C11.4,7,12.5,8,13.8,8h4.8c0.4,0,0.8,0.4,0.8,0.8v6.3c-2.3-0.6-4.8-0.7-7.1-0.2c-2.9-2.8-7.5-2.6-10.3,0.3s-2.6,7.5,0.3,10.3
				c1.3,1.3,3.1,2,5,2c6.9,0,13.6-1.7,19.7-5c0.3-0.1,0.4-0.4,0.4-0.7v-3.5C27.5,12.3,26,6.4,23,1.2z M25.9,21.3
				c-5.7,3-12.1,4.6-18.6,4.6c-1.7,0-3.4-0.8-4.4-2.2c-1.1-1.4-1.5-3.2-1.1-4.9c0.8-3,3.9-4.9,6.9-4.1c0.6,0.2,1.2,0.4,1.7,0.7
				c-0.6,0.2-1.2,0.5-1.8,0.8c-0.4,0.2-0.6,0.7-0.4,1.1s0.7,0.6,1.1,0.4c3.8-1.9,8.4-1.9,12.2,0c0.4,0.2,0.9,0,1.1-0.4
				c0.2-0.4,0-0.9-0.4-1.1c-0.4-0.2-0.8-0.4-1.2-0.5V8.8c0-1.3-1.1-2.4-2.4-2.4h-0.8V4c0-0.4-0.4-0.8-0.8-0.8h-1.6
				c-0.4,0-0.8,0.4-0.8,0.8s0.4,0.8,0.8,0.8h0.8v1.6h-2.4c-0.4,0-0.8-0.4-0.8-0.8V2.4c0-0.4,0.4-0.8,0.8-0.8h7.1
				c0.3,0,0.6,0.1,0.7,0.4c2.8,5,4.3,10.6,4.3,16.3V21.3L25.9,21.3z"/>
		</g>
	</g>
</g>
</svg>
