<svg id="Layer_1" data-name="Layer 1" xmlns="http://www.w3.org/2000/svg" viewBox="0 0 25 25"><defs><style>.cls-1{fill:#fff;}</style></defs><g id="Group_1490" data-name="Group 1490"><path id="Path_304" data-name="Path 304" class="cls-1" d="M12.5.79A11.71,11.71,0,1,0,24.21,12.5,11.71,11.71,0,0,0,12.5.79Zm0,21.47a9.76,9.76,0,1,1,9.76-9.76A9.76,9.76,0,0,1,12.5,22.26Z"/><path id="Path_305" data-name="Path 305" class="cls-1" d="M12.5,11A1.46,1.46,0,1,0,14,12.5,1.46,1.46,0,0,0,12.5,11Z"/><path id="Path_306" data-name="Path 306" class="cls-1" d="M8.11,11A1.46,1.46,0,1,0,9.57,12.5,1.46,1.46,0,0,0,8.11,11Z"/><path id="Path_307" data-name="Path 307" class="cls-1" d="M16.89,11a1.46,1.46,0,1,0,1.47,1.46h0A1.47,1.47,0,0,0,16.89,11Z"/></g></svg>