<?xml version="1.0" encoding="utf-8"?>
<!-- Generator: Adobe Illustrator 24.1.2, SVG Export Plug-In . SVG Version: 6.00 Build 0)  -->
<svg version="1.1" id="Layer_1" xmlns="http://www.w3.org/2000/svg" xmlns:xlink="http://www.w3.org/1999/xlink" x="0px" y="0px"
	 viewBox="0 0 17 21" style="enable-background:new 0 0 17 21;" xml:space="preserve">
<style type="text/css">
	.st0{fill:none;stroke:#FFFFFF;stroke-miterlimit:10;stroke-dasharray:2,2;}
	.st1{fill:none;stroke:#FFFFFF;stroke-miterlimit:10;}
	.st2{fill:#FFFFFF;stroke:#FFFFFF;stroke-miterlimit:10;}
	.st3{fill:#FFFFFF;}
	.st4{fill:#FC4C02;}
</style>
<g id="Group_645" transform="translate(-49.221)">
	<g id="Group_644" transform="translate(49.221)">
		<path id="Path_275" class="st4" d="M13.47,5.41c1.07-1.35,0.85-3.3-0.5-4.38c-1.35-1.07-3.3-0.85-4.38,0.5
			C8.56,1.57,8.53,1.61,8.5,1.65c-1-1.4-2.95-1.72-4.35-0.72c-1.4,1-1.72,2.95-0.72,4.35C3.47,5.32,3.5,5.36,3.53,5.41H0.31v5.46
			h0.71v9.78h14.96v-9.78h0.71V5.41H13.47z M7.91,19.46h-5.7v-8.6h5.7V19.46z M7.91,9.68H1.5V6.59h5.47L5.34,8.23l0.84,0.84
			l1.73-1.73V9.68L7.91,9.68z M7.91,5.41H5.98c-1.06,0-1.93-0.86-1.93-1.93s0.86-1.93,1.93-1.93s1.93,0.86,1.93,1.93V5.41z
			 M9.09,3.48c0-1.06,0.86-1.93,1.93-1.93c1.06,0,1.93,0.86,1.93,1.93s-0.86,1.93-1.93,1.93l0,0H9.09V3.48z M14.79,19.46h-5.7v-8.6
			h5.7V19.46z M15.5,9.68H9.09V7.34l1.73,1.73l0.84-0.84l-1.63-1.63h5.47L15.5,9.68L15.5,9.68z"/>
	</g>
</g>
</svg>
