<svg enable-background="new 0 0 17 21" viewBox="0 0 17 21" xmlns="http://www.w3.org/2000/svg"><path d="m13.47 5.41c1.07-1.35.85-3.3-.5-4.38-1.35-1.07-3.3-.85-4.38.5-.03.04-.06.08-.09.12-1-1.4-2.95-1.72-4.35-.72s-1.72 2.95-.72 4.35c.04.04.07.08.1.13h-3.22v5.46h.71v9.78h14.96v-9.78h.71v-5.46zm-5.56 14.05h-5.7v-8.6h5.7zm0-9.78h-6.41v-3.09h5.47l-1.63 1.64.84.84 1.73-1.73zm0-4.27h-1.93c-1.06 0-1.93-.86-1.93-1.93s.86-1.93 1.93-1.93 1.93.86 1.93 1.93zm1.18-1.93c0-1.06.86-1.93 1.93-1.93 1.06 0 1.93.86 1.93 1.93s-.86 1.93-1.93 1.93h-1.93zm5.7 15.98h-5.7v-8.6h5.7zm.71-9.78h-6.41v-2.34l1.73 1.73.84-.84-1.63-1.63h5.47z" fill="#fff"/></svg>