<?xml version="1.0" encoding="utf-8"?>
<!-- Generator: Adobe Illustrator 24.0.0, SVG Export Plug-In . SVG Version: 6.00 Build 0)  -->
<svg version="1.1" id="Layer_1" xmlns="http://www.w3.org/2000/svg" xmlns:xlink="http://www.w3.org/1999/xlink" x="0px" y="0px"
	 viewBox="0 0 50 50" style="enable-background:new 0 0 50 50;" xml:space="preserve">
<style type="text/css">
	.st0{fill:none;stroke:#808080;stroke-width:2;stroke-linecap:round;stroke-miterlimit:10;}
	.st1{fill:none;stroke:#808080;stroke-width:2;stroke-linecap:round;stroke-linejoin:round;stroke-miterlimit:10;}
</style>
<line class="st0" x1="12.62" y1="1.45" x2="38.36" y2="1.45"/>
<line class="st0" x1="12.62" y1="48.24" x2="38.36" y2="48.24"/>
<path class="st1" d="M17.99,13.44h15c0.62,0,0.92,0.76,0.47,1.18l-7.61,7.1c-0.26,0.25-0.68,0.24-0.94-0.01l-7.39-7.1
	C17.08,14.19,17.38,13.44,17.99,13.44z"/>
<path class="st1" d="M32.99,45.6h-15c-0.62,0-0.92-0.76-0.47-1.18l5.86-7.1c0.26-0.25,4.18-0.24,4.44,0.01l5.64,7.1
	C33.9,44.85,33.6,45.6,32.99,45.6z"/>
<circle class="st1" cx="25.49" cy="28.63" r="0.74"/>
<g>
	<path class="st1" d="M37.46,2.52v11.49c0,0.88-0.35,1.72-0.97,2.34l-8.89,7.56c0,0-0.95,0.71,0,1.66l8.89,7.72
		c0.62,0.62,0.97,1.46,0.97,2.34v11.49"/>
	<path class="st1" d="M13.52,2.52v11.49c0,0.88,0.35,1.72,0.97,2.34l8.89,7.56c0,0,0.95,0.71,0,1.66l-8.89,7.72
		c-0.62,0.62-0.97,1.46-0.97,2.34v11.49"/>
</g>
<path class="st1" d="M27.18,35.88l-0.94-4.85c0,0-0.92-0.76-1.49,0l-0.94,4.85H27.18z"/>
</svg>
