<?xml version="1.0" encoding="utf-8"?>
<!-- Generator: Adobe Illustrator 24.1.2, SVG Export Plug-In . SVG Version: 6.00 Build 0)  -->
<svg version="1.1" id="Layer_1" xmlns="http://www.w3.org/2000/svg" xmlns:xlink="http://www.w3.org/1999/xlink" x="0px" y="0px"
	 viewBox="0 0 512 512" style="enable-background:new 0 0 512 512;" xml:space="preserve">
<style type="text/css">
	.st0{fill:#FFFFFF;}
</style>
<path class="st0" d="M464.9,112.5H293.7c6-9.7,9.5-21,9.5-33.2c0-34.8-28.4-63.2-63.2-63.2s-63.2,28.4-63.2,63.2
	c0,12.2,3.5,23.5,9.5,33.2H47.1c-26,0-47.1,21.1-47.1,47.1c0,26,21.1,47.1,47.1,47.1h129.6v65.3v1.1h-33.2
	c-43.7,0-79.3,35.6-79.3,79.3v96.4c0,26,21,47.1,47.1,47.1c26,0,47.1-21.1,47.1-47.1v-81.4h75.2l114.7,114.7
	c18.2,18.2,48,18.6,66.7,0c18.4-18.4,18.4-48.2,0-66.7l-89.7-89.7c-14.3-14.3-22.2-33.4-22.2-53.7v-65.3h161.7
	c26.1,0,47.1-21.1,47.1-47.1C512,133.6,490.9,112.5,464.9,112.5L464.9,112.5z M239.9,46.1c18.3,0,33.2,14.9,33.2,33.2
	s-14.9,33.2-33.2,33.2s-33.2-14.9-33.2-33.2S221.6,46.1,239.9,46.1L239.9,46.1z M47.1,176.7c-9.4,0-17.1-7.7-17.1-17.1
	c0-9.6,7.8-17.1,17.1-17.1h132.8c-2.1,5.3-3.2,11.1-3.2,17.1v17.1L47.1,176.7z M128.5,448.8c0,9.5-7.6,17.1-17.1,17.1
	c-9.5,0-17.1-7.7-17.1-17.1v-33.2h34.3L128.5,448.8L128.5,448.8z M143.5,337.4c-8.3,0-15,6.7-15,15v33.2H94.3v-33.2
	c0-27.2,22.1-49.3,49.3-49.3h35.3c2.5,8.6,7.1,16.5,13.6,23l11.2,11.2L143.5,337.4L143.5,337.4z M206.7,159.6
	c0-9.5,7.7-17.1,17.1-17.1h20.4c-2.1,5.3-3.2,11.1-3.2,17.1v0c0,20.7,13.5,38.4,32.1,44.7v52.8h-66.4L206.7,159.6L206.7,159.6z
	 M393.9,436.7c6.7,6.7,6.7,17.5,0,24.2c-6.7,6.7-17.5,6.7-24.2,0l-23.5-23.5l24.2-24.2L393.9,436.7z M304.1,346.9l45.1,45.1
	L325,416.2l-110-110c-5.1-5.1-8.1-12-8.3-19.2h67.4C277.4,309.7,287.7,330.5,304.1,346.9L304.1,346.9z M464.9,176.7H288.1
	c-9.5,0-17.1-7.7-17.1-17.1c0-9.5,7.7-17.1,17.1-17.1h176.7c9.3,0,17.1,7.5,17.1,17.1C482,169.1,474.4,176.7,464.9,176.7z"/>
</svg>
