<?xml version="1.0" encoding="utf-8"?>
<!-- Generator: Adobe Illustrator 24.1.2, SVG Export Plug-In . SVG Version: 6.00 Build 0)  -->
<svg version="1.1" id="outline" xmlns="http://www.w3.org/2000/svg" xmlns:xlink="http://www.w3.org/1999/xlink" x="0px" y="0px"
	 viewBox="0 0 512 512" style="enable-background:new 0 0 512 512;" xml:space="preserve">
<style type="text/css">
	.st0{fill:#FFFFFF;}
</style>
<path class="st0" d="M492.1,449.1l-36.6-21.9L443,307.8c-2.1-20.5-17.2-37.4-37.3-41.8L296,241.6v-30.3l5.2-5.2
	c14.4-14.4,14.4-37.8,0-52.3l-19.3-19.3c9-7.6,14.2-18.7,14.2-30.5V72c0-22.1-17.9-40-40-40c-12.3,0-23.9,5.6-31.5,15.3l-8.9-4.4
	c-13.5-6.8-30-1.3-36.8,12.3c-1.9,3.8-2.9,8-2.9,12.3v18.6c0.1,19.6-7.7,38.4-21.7,52.3c-3.1,3.1-3.1,8.2,0,11.3
	c1.5,1.5,3.5,2.3,5.7,2.3h24c16.7,0,32.2-8.7,40.9-22.9c2.1,2.6,4.5,4.9,7.1,6.9c-3,2.2-5.6,4.9-7.9,7.8l-26.5,35.4
	c-18.1,24.2-18.1,57.4,0,81.6l2.4,3.2v30.7L170.2,384H24c-4.4,0-8,3.6-8,8v80c0,4.4,3.6,8,8,8h16c2.8,0,5.4-1.5,6.9-3.9l21.4-35.6
	l121,12.7c18.9,2,37.3-7.4,46.7-23.9l48.7-85.3h92.8L400,456.8V472c0,4.4,3.6,8,8,8h80c4.4,0,8-3.6,8-8v-16
	C496,453.2,494.5,450.6,492.1,449.1z M296,180c0,5.6-2.2,10.9-6.1,14.8l-7.5,7.5c-1.5,1.5-2.3,3.5-2.3,5.7v32h-23.1l-7.6-15.3
	L282,179v0c3.3-4.6,5.4-10.1,5.9-15.8l2,2C293.8,169.1,296,174.4,296,180z M256,48c10.2,0,19.2,6.4,22.6,16H256
	c-2.1,0-4.2,0.8-5.7,2.3L236.7,80H232v-8C232,58.8,242.8,48,256,48z M184,136h-7.1c9.9-14.8,15.2-32.2,15.1-49.9V67.4
	c0-6.3,5.1-11.4,11.4-11.4c1.8,0,3.5,0.4,5.1,1.2l8.8,4.4C216.5,65,216,68.5,216,72v32C216,121.7,201.7,136,184,136z M232,96h8
	c2.1,0,4.2-0.8,5.7-2.3L259.3,80H280v24c0,13.3-10.7,24-24,24c-13.3,0-24-10.7-24-24V96z M210.4,188.8l26.5-35.4
	c4.5-5.9,11.4-9.4,18.8-9.4c9,0,16.2,7.3,16.2,16.2c0,3.4-1.1,6.7-3,9.4l-35.5,49.7c-1.7,2.4-2,5.6-0.6,8.2l24,48
	c0.9,1.9,2.6,3.3,4.6,4l22.2,7.4l2.6,2.6l-3.2,6.4H244l-33.6-44.8C196.5,232.7,196.5,207.3,210.4,188.8z M233.6,308.8
	c1.5,2,3.9,3.2,6.4,3.2h48c3,0,5.8-1.7,7.2-4.4l8-16c1.5-3.1,0.9-6.8-1.5-9.2l-8-8c-0.9-0.9-1.9-1.5-3.1-1.9l-20.9-7l-4.7-9.5h22.2
	l56.9,12.6V328h-96c-17.7,0-32-14.3-32-32v-10.7L233.6,308.8z M35.5,464H32v-64h17.4l6.1,30.5L35.5,464z M222,421.4
	c-6.3,11-18.5,17.3-31.1,15.9L70.7,424.7L65.8,400H176c3.4,0,6.5-2.2,7.6-5.5l7.4-22.1l45.9,22.9L222,421.4z M244.8,381.5
	l-48.7-24.4l11.7-35c8.8,13.7,24,21.9,40.3,21.9h18.2L244.8,381.5z M391.8,334.4c-0.7-3.7-4-6.4-7.8-6.4h-24v-55.8l42.2,9.4
	c13.4,3,23.5,14.2,24.9,27.9l12.5,118.3l-25.9,15.5L391.8,334.4z M480,464h-64v-3.5l32-19.2l32,19.2V464z"/>
</svg>
