<?xml version="1.0" encoding="utf-8"?>
<!-- Generator: Adobe Illustrator 24.1.2, SVG Export Plug-In . SVG Version: 6.00 Build 0)  -->
<svg version="1.1" id="Capa_1" xmlns="http://www.w3.org/2000/svg" xmlns:xlink="http://www.w3.org/1999/xlink" x="0px" y="0px"
	 viewBox="0 0 515.5 515.5" style="enable-background:new 0 0 515.5 515.5;" xml:space="preserve">
<style type="text/css">
	.st0{fill:#FFFFFF;}
</style>
<g>
	<path class="st0" d="M298.8,386.7c27.8,9.5,52.4,15.6,87.6,26.4C372.9,584.4,211,516.4,298.8,386.7z M443.4,229.4
		c-1.8-51.4-10.9-118.9-83-108.3c-33.8,8.8-58.8,46-70.6,110c-6.5,35.2-2.7,84.7,4.9,114.3c7,20.9,4.6,19.6,12.1,23.6
		c28.9,6.5,57.5,13.7,86.7,21.1C423.1,369.2,447.4,258.2,443.4,229.4z M220.8,225.5c7.6-29.6,11.4-79.1,4.9-114.3
		c-11.7-64.1-36.7-101.2-70.6-110C83-9.5,73.9,58,72.1,109.4c-4,28.8,20.3,139.8,49.9,160.7c29.1-7.4,57.8-14.6,86.7-21.1
		C216.2,245.1,213.8,246.4,220.8,225.5z M129,293.1c13.5,171.2,175.5,103.2,87.6-26.4C188.9,276.2,164.3,282.3,129,293.1z"/>
</g>
</svg>
