<?xml version="1.0" encoding="utf-8"?>
<!-- Generator: Adobe Illustrator 24.0.0, SVG Export Plug-In . SVG Version: 6.00 Build 0)  -->
<svg version="1.1" id="Layer_2" xmlns="http://www.w3.org/2000/svg" xmlns:xlink="http://www.w3.org/1999/xlink" x="0px" y="0px"
	 viewBox="0 0 150 105" style="enable-background:new 0 0 150 105;" xml:space="preserve">
<style type="text/css">
	.st0{fill:none;stroke:#808080;stroke-width:3;stroke-linecap:round;stroke-linejoin:round;stroke-miterlimit:10;}
</style>
<path class="st0" d="M76.37,102.04l38.8-37.91c0,0,0,0,7.98-8.65s8.2-21.28,8.2-21.28c-0.43-12.34-9.45-24.77-21.44-28.21
	c-10.47-3-23.49,0.74-31.29,8.21c-0.8,0.77-1.61,1.57-2.25,2.48c0,0-0.11,0-0.11,0c-0.28,0-1.6-1.84-1.82-2.06
	c-1.81-1.82-3.9-3.37-6.11-4.67C58.24,4.03,46.6,3.6,36.4,9.23C27.4,14.2,21.09,23.69,21.28,34.2c0,0,0.22,12.64,8.2,21.28
	c7.98,8.65,7.98,8.65,7.98,8.65l38.8,37.91H76.37z"/>
<polyline class="st0" points="1.33,54.59 47.22,54.59 59.41,30.43 76.31,73.88 91.78,38.41 99.98,54.81 147.87,55.04 "/>
</svg>
