<?xml version="1.0" encoding="utf-8"?>
<!-- Generator: Adobe Illustrator 24.1.2, SVG Export Plug-In . SVG Version: 6.00 Build 0)  -->
<svg version="1.1" id="outline" xmlns="http://www.w3.org/2000/svg" xmlns:xlink="http://www.w3.org/1999/xlink" x="0px" y="0px"
	 viewBox="0 0 265 512" style="enable-background:new 0 0 265 512;" xml:space="preserve">
<path d="M57,136v294.1l-7.2,14.3c-1.7,3.3-0.8,7.3,2,9.7l48,40c3.2,2.6,7.9,2.4,10.8-0.5l8-8c1.8-1.8,2.7-4.4,2.2-7l-7.8-46.7
	l31.8-206.7c0.1-0.4,0.1-0.8,0.1-1.2v-64h32c22.1,0,40-17.9,40-40V24c0-4.4-3.6-8-8-8h-32c-3,0-5.8,1.7-7.2,4.4l-8,16
	c-1.1,2.3-1.1,4.9,0,7.2l6.8,13.7L162.2,96h-29.5c2.8-4.9,4.3-10.4,4.3-16V42.4c0-14.6-11.8-26.4-26.4-26.4
	c-5.2,0-10.3,1.5-14.7,4.4L76.6,33.3c-2.2,1.5-3.6,4-3.6,6.7v40c0,7.2,2.4,14.2,6.9,19.8C65.9,106.5,57,120.5,57,136z M73,232h54.7
	l-11.1,72H73V232z M67,445.9l3-5.9h28.3l6.2,37.1L67,445.9z M98.1,424H73V320h41.1L98.1,424z M169,112c3.9,0,7.2-2.8,7.9-6.7l8-48
	c0.3-1.7,0-3.4-0.7-4.9L177.9,40l4-8H201v88c0,13.2-10.8,24-24,24h-24v-32H169z M105,96c-8.8,0-16-7.2-16-16V64h32v16
	C121,88.8,113.8,96,105,96z M104.8,33.8c4.8-3.2,11.3-1.9,14.5,2.9c1.1,1.7,1.7,3.7,1.8,5.8V48H89v-3.7L104.8,33.8z M97,112h40v32
	h-32v16h24v56H73v-80C73,122.8,83.8,112,97,112z"/>
</svg>
