<?xml version="1.0" encoding="utf-8"?>
<!-- Generator: Adobe Illustrator 24.1.2, SVG Export Plug-In . SVG Version: 6.00 Build 0)  -->
<svg version="1.1" id="Layer_1" xmlns="http://www.w3.org/2000/svg" xmlns:xlink="http://www.w3.org/1999/xlink" x="0px" y="0px"
	 viewBox="0 0 180.36 151.93" style="enable-background:new 0 0 180.36 151.93;" xml:space="preserve">
<style type="text/css">
	.st0{fill:none;stroke:#FFFFFF;stroke-width:1.27;}
	.st1{fill:#FFFFFF;}
	.st2{fill:none;stroke:#FFFFFF;stroke-width:1.5;}
	.st3{fill:#FC4C02;}
	.st4{fill:none;stroke:#FC4C02;stroke-width:2;stroke-linecap:round;stroke-linejoin:round;stroke-miterlimit:10;}
	.st5{fill:#FFFFFF;stroke:#FC4C02;stroke-width:2;stroke-linecap:round;stroke-linejoin:round;stroke-miterlimit:10;}
</style>
<g id="Group_529_1_" transform="translate(0.609 0.507)">
	<path class="st1" d="M79.86,134.36c-4.51-2.74-8.9-5.81-13.05-9.11l-0.43-0.4c-3.95-4.4-8.55-8.15-13.65-11.15
		c-2.49-1.27-5.33-2.19-8.27-2.62c-3.18-0.14-6.68-1.13-9.78-2.82c-1.47-0.91-2.79-1.65-4.12-2.41L8.89,93.36
		c-3.6-2.07-4.86-6.7-2.8-10.31l33.33-57.63c2.12-3.61,6.63-4.85,10.27-2.82l35.14,20.09c4.42,0.77,9.17,0.05,13.27-2.01
		c3.32-1.43,6.87-0.58,9.03,2.03L143.24,87c2.09,2.5,4.5,4.8,7.12,6.82l-4.26,5.55c-3.02-2.32-5.8-4.98-8.25-7.91l-36.1-44.29
		c-0.15-0.18-0.43-0.25-0.68-0.14c-5.3,2.68-11.42,3.6-17.5,2.57c-0.91-0.21-1.56-0.47-2.17-0.81L46.25,28.7
		c-0.26-0.15-0.62-0.04-0.79,0.25L12.16,86.54c-0.14,0.25-0.05,0.6,0.23,0.76l21.62,12.48c1.41,0.8,2.82,1.6,4.2,2.45
		c2,1.08,4.46,1.78,6.94,1.9c4.05,0.58,7.62,1.73,10.96,3.46c5.81,3.4,10.89,7.54,15.28,12.38c3.86,3.05,7.93,5.88,12.11,8.42
		L79.86,134.36z"/>
	<path class="st1" d="M95.48,63.93c-1.38,0-2.68-0.82-3.24-2.17c-0.73-1.79,0.12-3.83,1.9-4.57l16.13-6.65
		c1.79-0.73,3.83,0.12,4.57,1.9c0.73,1.79-0.12,3.83-1.9,4.57l-16.13,6.65C96.37,63.85,95.92,63.93,95.48,63.93z"/>
	<path class="st1" d="M102.26,73.19c-1.37,0-2.68-0.81-3.23-2.16c-0.74-1.78,0.11-3.83,1.89-4.57l16.13-6.69
		c1.79-0.73,3.83,0.11,4.57,1.89c0.74,1.78-0.11,3.83-1.89,4.57l-16.13,6.69C103.16,73.1,102.71,73.19,102.26,73.19z"/>
	<path class="st1" d="M110.32,82.4c-1.38,0-2.68-0.82-3.24-2.17c-0.73-1.79,0.12-3.83,1.9-4.57l16.13-6.64
		c1.78-0.73,3.83,0.12,4.57,1.9c0.73,1.79-0.12,3.83-1.9,4.57l-16.13,6.64C111.22,82.31,110.77,82.4,110.32,82.4z"/>
	<path class="st1" d="M58.17,101.33c-0.76,0-1.52-0.24-2.16-0.75c-1.52-1.19-1.78-3.39-0.59-4.91c7.1-9.04,8.08-21.38,2.49-31.43
		c-6.88-12.09-26.04-16.1-26.23-16.14c-1.89-0.38-3.12-2.23-2.74-4.12c0.38-1.89,2.23-3.14,4.12-2.74
		c0.91,0.18,22.47,4.66,30.95,19.57c6.97,12.55,5.76,27.92-3.09,39.18C60.23,100.87,59.2,101.33,58.17,101.33z"/>
	<path class="st1" d="M111.94,146.61c-3.45,0-7-0.38-10.49-1.15l-0.4-0.11c-4.25-1.48-8.35-3.42-12.18-5.78l-8.89-5.13l3.5-6.06
		l8.98,5.18c3.42,2.11,6.99,3.81,10.69,5.11c4.17,0.89,8.42,1.15,12.67,0.76l15.48-0.06c5.59-0.18,11.18-1.29,16.51-3.28
		c5.55-1.49,10.35-3.89,14.58-7.25c2.41-1.59,3.98-3.81,4.56-6.31c0.16-2.92,0.1-5.88-0.16-8.8c-0.3-0.24-0.84-0.55-1.16-0.74
		l-0.68-0.41c-2.16-1.41-4.12-2.96-6.02-4.46c-1.85-1.46-3.59-2.84-5.44-4.05c-2.02-1.35-4.04-2.65-6.1-3.91
		c-4.26,0.43-21.75,3.61-33.31,26.6l-6.25-3.14c14.94-29.73,39.34-30.5,40.37-30.52l1.01-0.02l0.86,0.52
		c2.48,1.5,4.9,3.04,7.29,4.64c2.09,1.37,4.04,2.91,5.92,4.4c1.85,1.47,3.61,2.85,5.45,4.05l0.46,0.27
		c1.57,0.92,4.48,2.63,4.57,6.07c0.31,3.22,0.38,6.73,0.18,10.19l-0.07,0.51c-0.92,4.41-3.61,8.34-7.39,10.79
		c-4.73,3.77-10.38,6.61-16.55,8.24c-5.71,2.15-12.05,3.4-18.52,3.61l-15.28,0.05C114.76,146.55,113.35,146.61,111.94,146.61z
		 M166.77,113.45c0,0.01,0,0.03,0.01,0.05C166.77,113.48,166.77,113.46,166.77,113.45z"/>
	<path class="st1" d="M122.47,112.59c-0.42,0-0.85-0.08-1.27-0.24c-4.81-1.87-9.5-4.14-13.93-6.75
		c-7.85-4.85-13.46-12.8-18.42-19.81c-0.85-1.2-1.69-2.39-2.53-3.55c-6.17-8.5-16.55-13.3-26.59-17.95l-1.57-0.73
		c-1.75-0.82-2.51-2.9-1.7-4.65c0.81-1.75,2.89-2.52,4.65-1.7l1.56,0.73c10.34,4.79,22.06,10.22,29.31,20.19
		c0.86,1.18,1.71,2.4,2.58,3.62c4.79,6.78,9.75,13.79,16.32,17.86c4.05,2.38,8.4,4.49,12.86,6.22c1.8,0.7,2.69,2.73,1.99,4.53
		C125.19,111.74,123.87,112.59,122.47,112.59z"/>
	<path class="st1" d="M139.68,133.27c-0.38,0-0.76-0.02-1.15-0.08c-10.47-1.11-21.12-2.86-31.54-5.18
		c-5.37-1.62-10.27-3.81-14.84-6.56L14.03,76.19c-1.64-1.02-2.15-3.18-1.13-4.82c1.02-1.64,3.18-2.15,4.82-1.13l3.99,2.47
		l74.01,42.7c4.13,2.49,8.5,4.44,13.06,5.82c9.9,2.2,20.28,3.91,30.6,5c1.54,0.23,4.21-1.86,5.81-3.09l1.08-0.82
		c3.05-1.95,5.34-4.49,6.84-7.5c0.29-0.58,0.74-1.07,1.3-1.42c2.38-1.47,5.12-2.33,7.92-2.48l3.45-0.01c4.96,0.1,7.99,2.2,7.99,5.47
		c0,1.93-1.57,3.5-3.5,3.5c-1.31,0-2.45-0.72-3.05-1.79c-0.44-0.1-1.03-0.17-1.52-0.18h-3.17c-1.18,0.07-2.47,0.42-3.66,1.02
		c-2.06,3.72-5.02,6.87-8.62,9.16l-0.78,0.61C146.92,130.66,143.53,133.27,139.68,133.27z"/>
	<path class="st1" d="M104.89,43.52h-7V32.79c-0.01-0.99-1.69-1.08-2.41-1.08l-20.54,1.32c-0.21,0.02-0.47,0.31-0.45,0.56l0.11,0.93
		l-0.05,4.35l-7-0.08l0.04-4c-0.04-0.23-0.07-0.46-0.08-0.69c-0.15-1.99,0.49-3.94,1.8-5.47c1.31-1.52,3.14-2.45,5.15-2.6l20.8-1.33
		c0.01,0,0.03,0,0.04,0c3.44,0,5.93,0.94,7.63,2.79c2.13,2.33,2,5.07,1.96,5.59L104.89,43.52z"/>
	<path class="st1" d="M39.31,28.76l-6.19-12.55c-0.13-0.39-1.21-3.93,0.85-7.26c1.54-2.48,4.24-4.01,8.03-4.55l0.69-0.1l0.67,0.17
		c3.73,0.96,6.49,4.03,7.04,7.84l0.37,4.18c0.12,3.37-0.25,6.53-1.07,9.61l-4.5-1.2l0.37,0.75L39.31,28.76z M39.75,13.89l3.78,7.62
		c0.23-1.52,0.32-3.05,0.26-4.59l-0.34-3.8c-0.1-0.64-0.58-1.29-1.26-1.65c-1.15,0.25-1.95,0.66-2.26,1.16
		C39.67,13.06,39.71,13.64,39.75,13.89z"/>
</g>
</svg>
