<?xml version="1.0" encoding="utf-8"?>
<!-- Generator: Adobe Illustrator 24.1.2, SVG Export Plug-In . SVG Version: 6.00 Build 0)  -->
<svg version="1.1" id="outline" xmlns="http://www.w3.org/2000/svg" xmlns:xlink="http://www.w3.org/1999/xlink" x="0px" y="0px"
	 viewBox="0 0 512 512" style="enable-background:new 0 0 512 512;" xml:space="preserve">
<style type="text/css">
	.st0{fill:#FFFFFF;}
</style>
<path class="st0" d="M349.8,343.7l56,16c3.7,1.1,7.6-0.7,9.4-4.1l8-16c1.5-3.1,0.9-6.8-1.5-9.2l-30.8-30.8L353,205
	c-9.1-22.7-34.2-34.4-57.4-26.6L240,196.9V192c12.4,0,24.2-4.9,33-13.7l33.9-33.9c9.1-9.1,9.1-23.8,0-32.9s-23.8-9.1-32.9,0
	c-1.1,1.1-2.1,2.3-2.9,3.6l-4.5,6.7L242.2,134L222,108.7c11-5.4,17.9-16.5,18-28.7V56c0-17.7-14.3-32-32-32
	c-5.7,0-11.4,1.5-16.3,4.4l-5.1-5.1c-9.8-9.8-25.6-9.8-35.3,0c-4.7,4.7-7.3,11-7.3,17.7v26.2c0,15.3-7.7,29.7-20.4,38.2
	c-1.7,1.1-2.8,2.8-3.3,4.7c-8.9,5.5-15.5,14.1-18.3,24.1l-11.4,39.9c-1.7,5.8-2.5,11.8-2.5,17.9v0.3c0,6.3,2.5,12.3,7,16.7
	c4.5,4.5,10.5,6.9,16.8,6.9h0.7c13,0,23.5-10.5,23.5-23.5c0,0,0,0,0,0l0-6.9l12.8-32.1l19.2,4.8v279.9l-7.2,14.3
	c-1.5,3.1-0.9,6.8,1.5,9.2l32,32c1.5,1.5,3.5,2.3,5.7,2.3h16c4.4,0,8-3.6,8-8c0-0.4,0-0.9-0.1-1.3l-7.8-46.8l23.2-170.2l68.6-27.4
	l36.1,79.5V336C344,339.6,346.4,342.7,349.8,343.7z M406.3,337.6l-2.5,4.9L360,330v-5l22.4-11.2L406.3,337.6z M224,201.1l-40,5.7
	v-51.5l23,23c4.8,4.8,10.6,8.5,17,10.8V201.1z M243.6,151.2l32-16c1.2-0.6,2.3-1.6,3.1-2.7l5.7-8.5c2.2-3.4,6.8-4.3,10.1-2
	c3.4,2.2,4.3,6.8,2,10.1c-0.3,0.4-0.6,0.8-0.9,1.1L261.7,167c-12,12-31.4,12-43.3,0L189,137.7c-3.2-3.2-5-7.5-5-12.1
	c0-7.5,6.1-13.6,13.6-13.6c4.1,0,8,1.9,10.6,5.1l25.5,31.9C236.1,151.9,240.2,152.8,243.6,151.2z M224,80c0,8.8-7.2,16-16,16
	s-16-7.2-16-16v0h0c2.1,0,4.2-0.8,5.7-2.3L211.3,64H224L224,80z M221.8,48H208c-2.1,0-4.2,0.8-5.7,2.3L192,60.7V56
	c0-8.8,7.1-16,16-16C213.7,40,219,43,221.8,48L221.8,48z M160,67.2V41c0-5,4-9,9-9c2.4,0,4.7,0.9,6.3,2.6l5.1,5.1
	c-2.9,4.9-4.4,10.5-4.4,16.2v24c0,13.2-10.8,24-24,24h-4.1C155.8,93.3,160,80.4,160,67.2z M145.9,136.2c-3.9-1-7.9,1.1-9.4,4.8
	l-16,40c-0.4,0.9-0.6,2-0.6,3l0,8.5c0,4.2-3.4,7.5-7.5,7.5c0,0,0,0,0,0h-0.7c-2.1,0-4.1-0.8-5.5-2.3c-1.4-1.4-2.3-3.4-2.2-5.4V192
	c0-4.6,0.6-9.1,1.9-13.5l11.4-39.9c3.1-11,13.2-18.6,24.6-18.6h26.6c-0.4,1.8-0.5,3.7-0.5,5.6v16.1L145.9,136.2z M203.3,480
	l-25.6-25.6l3.2-6.4h20.3l5.3,32H203.3z M201,432h-17V296h35.6L201,432z M229,256.6c-2.7,1.1-4.6,3.5-5,6.3l-2.3,17.1H184v-57.1
	l49.1-7l0,0c0.5-0.1,0.9-0.2,1.4-0.3l16.8-5.6l13,32.5L229,256.6z M319.3,228.7c-1.8-3.9-6.3-5.7-10.3-4.1l-29.8,11.9l-12.6-31.6
	l34.1-11.4c15.1-5,31.6,2.6,37.5,17.4l35.7,89.2l-18,9L319.3,228.7z"/>
</svg>
