<?xml version="1.0" encoding="utf-8"?>
<!-- Generator: Adobe Illustrator 24.0.0, SVG Export Plug-In . SVG Version: 6.00 Build 0)  -->
<svg version="1.1" id="Layer_2" xmlns="http://www.w3.org/2000/svg" xmlns:xlink="http://www.w3.org/1999/xlink" x="0px" y="0px"
	 viewBox="0 0 93.97 95.26" style="enable-background:new 0 0 93.97 95.26;" xml:space="preserve">
<style type="text/css">
	.st0{fill:none;stroke:#FFFFFF;stroke-width:3;stroke-miterlimit:10;}
	.st1{fill:none;stroke:#FFFFFF;stroke-width:3;stroke-linecap:round;stroke-miterlimit:10;}
	.st2{fill:none;stroke:#FFFFFF;stroke-width:3;stroke-linecap:round;stroke-linejoin:round;stroke-miterlimit:10;}
</style>
<path class="st0" d="M49.03,84.48V5.62c0-2-1.62-3.62-3.62-3.62h0c-2,0-3.62,1.62-3.62,3.62v78.86H49.03z"/>
<path class="st0" d="M21.95,90.46v-1.51c0-2.47,2-4.47,4.47-4.47h38.84c2.47,0,4.47,2,4.47,4.47v1.24L21.95,90.46z"/>
<path class="st1" d="M41.79,15.53c-5.41-1.71-12.09-2.62-17.26,0.3c-4.05,2.29-8.28,5.56-12.89,6.57h-1.55"/>
<polyline class="st2" points="29.16,58.09 14.65,21.43 2,58.09 "/>
<path class="st2" d="M15.58,68.85c11.47,0,13.58-10.75,13.58-10.75H2C2,58.09,4.11,68.85,15.58,68.85z"/>
<polyline class="st2" points="89.79,44.57 75.28,7.91 62.63,44.57 "/>
<path class="st2" d="M76.21,55.32c11.47,0,13.58-10.75,13.58-10.75H62.63C62.63,44.57,64.74,55.32,76.21,55.32z"/>
<path class="st1" d="M49.03,13.93c4.13-3.89,9.76-7.61,15.68-7.22c4.64,0.3,9.87,1.42,14.47,0.32l1.4-0.67"/>
</svg>
