<?xml version="1.0" encoding="utf-8"?>
<!-- Generator: Adobe Illustrator 24.1.2, SVG Export Plug-In . SVG Version: 6.00 Build 0)  -->
<svg version="1.1" id="Capa_1" xmlns="http://www.w3.org/2000/svg" xmlns:xlink="http://www.w3.org/1999/xlink" x="0px" y="0px"
	 viewBox="0 0 410.1 477.9" style="enable-background:new 0 0 410.1 477.9;" xml:space="preserve">
<style type="text/css">
	.st0{fill:#FFFFFF;}
</style>
<g>
	<g>
		<path class="st0" d="M405.3,4.3c-3.1-3.2-7.2-4.8-11.4-4.2L130.2,34.2c-7.4,1-13,8.3-13,17v304.1c-13.3-9.3-28.5-14.1-43.9-14
			C32.9,341.3,0,371.9,0,409.6s32.9,68.3,73.2,68.3s73.2-30.6,73.2-68.3V151.9l234.4-30.4v199.7c-13.3-9.2-28.5-14.1-43.9-14
			c-40.4,0-73.2,30.6-73.2,68.3s32.9,68.3,73.2,68.3s73.2-30.6,73.2-68.3V17.1C410.1,12.2,408.4,7.6,405.3,4.3z"/>
	</g>
</g>
</svg>
