<?xml version="1.0" encoding="utf-8"?>
<!-- Generator: Adobe Illustrator 24.0.0, SVG Export Plug-In . SVG Version: 6.00 Build 0)  -->
<svg version="1.1" id="Layer_1" xmlns="http://www.w3.org/2000/svg" xmlns:xlink="http://www.w3.org/1999/xlink" x="0px" y="0px"
	 viewBox="0 0 52 50" style="enable-background:new 0 0 52 50;" xml:space="preserve">
<style type="text/css">
	.st0{fill:none;stroke:#808080;stroke-width:1.935;stroke-linecap:round;stroke-linejoin:round;stroke-miterlimit:9.9998;}
	.st1{fill:none;stroke:#808080;stroke-width:1.935;stroke-linecap:round;stroke-linejoin:round;stroke-miterlimit:10;}
</style>
<rect x="6.43" y="23.8" transform="matrix(0.5 -0.866 0.866 0.5 -19.8706 21.5933)" class="st0" width="4.67" height="8.41"/>
<rect x="13.24" y="16.76" transform="matrix(0.866 -0.5 0.5 0.866 -8.3958 10.599)" class="st0" width="4.67" height="8.41"/>
<rect x="23.44" y="14.29" class="st1" width="4.67" height="8.41"/>
<rect x="31.25" y="18.62" transform="matrix(0.5 -0.866 0.866 0.5 -0.4208 41.182)" class="st0" width="8.41" height="4.67"/>
<rect x="38.4" y="26.28" transform="matrix(0.866 -0.5 0.5 0.866 -8.6019 25.1377)" class="st0" width="8.41" height="4.67"/>
<rect x="41.42" y="35.76" class="st1" width="8.41" height="4.67"/>
<rect x="1.59" y="35.76" class="st1" width="8.41" height="4.67"/>
<circle class="st1" cx="25.78" cy="38.09" r="2.57"/>
<line class="st1" x1="27.08" y1="35.88" x2="40.41" y2="13"/>
</svg>
