<?xml version="1.0" encoding="utf-8"?>
<!-- Generator: Adobe Illustrator 24.1.2, SVG Export Plug-In . SVG Version: 6.00 Build 0)  -->
<svg version="1.1" id="Layer_1" xmlns="http://www.w3.org/2000/svg" xmlns:xlink="http://www.w3.org/1999/xlink" x="0px" y="0px"
	 viewBox="0 0 102.59 102.59" style="enable-background:new 0 0 102.59 102.59;" xml:space="preserve">
<style type="text/css">
	.st0{fill:#FFFFFF;}
</style>
<path id="Path_9" class="st0" d="M73.73,102.59c-3.35-0.01-6.67-0.6-9.81-1.75c-14.26-5.21-27.22-13.47-37.97-24.2
	C15.23,65.89,6.97,52.93,1.76,38.67c-1.64-4.45-2.15-9.25-1.46-13.95c1.36-9.06,6.9-16.95,14.95-21.3c4.2-2.26,8.91-3.44,13.68-3.42
	c1.51,0,2.82,1.06,3.13,2.53l5.03,23.48c0.23,1.06-0.1,2.17-0.87,2.94l-8.6,8.6c8.14,16.15,21.25,29.26,37.4,37.4l8.6-8.6
	c0.77-0.77,1.88-1.1,2.94-0.87l23.48,5.03c1.48,0.32,2.53,1.62,2.53,3.14c0.02,4.77-1.15,9.47-3.42,13.68
	c-4.35,8.06-12.24,13.6-21.3,14.96C76.5,102.49,75.12,102.59,73.73,102.59L73.73,102.59z M26.38,6.55
	C14.05,7.95,5.19,19.08,6.59,31.41c0.2,1.73,0.59,3.43,1.18,5.07c9.82,27.14,31.2,48.51,58.34,58.33
	c11.67,4.2,24.54-1.86,28.74-13.53c0.59-1.64,0.99-3.34,1.18-5.07l-19.1-4.09l-8.98,8.98c-0.96,0.96-2.41,1.21-3.63,0.64
	c-19.11-8.99-34.48-24.37-43.47-43.47c-0.57-1.22-0.32-2.67,0.64-3.63l8.98-8.98L26.38,6.55z"/>
<path id="Path_10" class="st0" d="M99.38,54.5c-1.77,0-3.21-1.44-3.21-3.21C96.15,26.52,76.07,6.44,51.3,6.41
	c-1.77,0-3.21-1.44-3.21-3.21C48.09,1.44,49.53,0,51.3,0c28.33,0,51.29,22.96,51.29,51.29c0,0,0,0,0,0
	C102.59,53.06,101.16,54.5,99.38,54.5C99.38,54.5,99.38,54.5,99.38,54.5z"/>
<path id="Path_11" class="st0" d="M86.56,54.5c-1.77,0-3.21-1.44-3.21-3.21C83.34,33.6,68.99,19.25,51.3,19.23
	c-1.77,0-3.21-1.44-3.2-3.21c0-1.77,1.43-3.2,3.2-3.2c21.24,0.02,38.45,17.23,38.47,38.47C89.77,53.06,88.33,54.5,86.56,54.5z"/>
<path id="Path_12" class="st0" d="M73.74,54.5c-1.77,0-3.21-1.44-3.21-3.21c-0.01-10.62-8.62-19.22-19.24-19.24
	c-1.77,0.03-3.23-1.38-3.26-3.15c-0.03-1.77,1.38-3.23,3.15-3.26c0.04,0,0.08,0,0.11,0c14.16,0.02,25.63,11.49,25.65,25.65
	C76.94,53.06,75.51,54.5,73.74,54.5z"/>
</svg>
