<?xml version="1.0" encoding="utf-8"?>
<!-- Generator: Adobe Illustrator 24.1.2, SVG Export Plug-In . SVG Version: 6.00 Build 0)  -->
<svg version="1.1" id="Layer_1" xmlns="http://www.w3.org/2000/svg" xmlns:xlink="http://www.w3.org/1999/xlink" x="0px" y="0px"
	 viewBox="0 0 50.5 83.5" style="enable-background:new 0 0 50.5 97;" xml:space="preserve">
<style type="text/css">
	.st0{enable-background:new    ; stroke: none;}
	.st1{}
	.st2{fill:none;stroke-width:2;stroke-miterlimit:10;}
	.st3{fill:none;stroke-width:2;stroke-linecap:round;stroke-linejoin:round;}
</style>
<g id="Group_760" transform="translate(-38 -210)">
	<g id="Group_759" transform="translate(3 4)">
		<g id="Group_750" transform="translate(36 207)">
			<path id="Path_564" class="st2" d="M44.4,9.9H37v2.8H11.5V9.9H4.1C1.9,9.9,0,11.8,0,14.1v49.1c0,2.3,1.9,4.1,4.1,4.1h40.2
				c2.3,0,4.1-1.9,4.1-4.1V14.1C48.5,11.8,46.6,9.9,44.4,9.9z"/>
			<g id="Group_618" transform="translate(11.773 23.041)">
				<path id="Path_21" class="st3" d="M0,11.5C-0.3,6,3.6,0.1,9.5,0.1c0,0,7.3-1.5,10,7.3c0,0,0.1,0.7,1.6,1s1.5,0.3,1.5,0.3
					s1.6,0.1,0.7,1.5c-0.6,0.5-0.9,1.4-0.6,2.2c0.6,0.1,1,0.7,0.8,1.3c0,0-0.7,1.3,1.1,2.2c0,0,1.3,1.2-1.3,3.2
					c-0.8,0.6-2.3,0.8-3.2,1.5c-1,0.7-1.8,1.7-2.3,2.8c-1.2,2.6-0.6,6,0.4,8.6h-16c0,0,5.7-6.4,5.1-10.5c0-0.2-1-0.7-1.2-0.8
					c-1.3-1-2.5-2-3.6-3.2C1,15.9,0.1,13.8,0,11.5z"/>
				<path id="Path_22" class="st3" d="M10.2,12c-1,0-1.8,0.9-1.8,1.9c0,0.1,0,0.2,0,0.3c0,0-0.2,2.8,4,2.6"/>
			</g>
			<path id="Path_565" class="st2" d="M11.5,6.4h6.4c1.8,0,3.2-1.4,3.2-3.2c0-1.8,1.4-3.2,3.2-3.2c1.8,0,3.2,1.4,3.2,3.2l0,0
				c0,1.8,1.4,3.2,3.2,3.2H37v6.4H11.5L11.5,6.4z"/>
		</g>
	</g>
</g>
</svg>
