<?xml version="1.0" encoding="utf-8"?>
<!-- Generator: Adobe Illustrator 24.1.2, SVG Export Plug-In . SVG Version: 6.00 Build 0)  -->
<svg version="1.1" id="Layer_1" xmlns="http://www.w3.org/2000/svg" xmlns:xlink="http://www.w3.org/1999/xlink" x="0px" y="0px"
	 viewBox="0 0 93.36 117.98" style="enable-background:new 0 0 93.36 117.98;" xml:space="preserve">
<style type="text/css">
	.st0{fill:#FFFFFF;}
</style>
<path id="Path_6" class="st0" d="M39.4,117.97c8.1,0,16.2,0.02,24.3-0.01c4.53-0.02,5.4-1.15,4.3-5.44
	c-1.71-6.18-2.5-12.57-2.37-18.98c0.25-6.45,2.66-11.55,8.28-15.04c3.11-2.01,6.44-3.65,9.93-4.88c2.83-1.04,5.32-2.85,7.19-5.22
	c3.36-3.92,3.05-7.63-0.8-10.98c-1.73-1.27-2.49-3.48-1.91-5.55c0.65-2.58,0.05-5.32-1.62-7.39c-1.35-1.67-0.84-2.76,0.28-4.17
	c2.65-3.34,1.88-6.67-1.91-8.61c-2.24-1.15-4.72-1.73-7.23-1.71c-2.46,0.01-3.86-1.13-4.33-3.63c-0.9-4.11-2.58-8.02-4.95-11.5
	C59.03-0.3,35.41-3.18,22.91,3.15C4.39,12.53-4.7,34.53,2.43,53.43c3.92,10.38,10.86,18.61,19.86,25c2.56,1.82,3.18,3.8,2.45,6.64
	c-1.13,4.36-2.72,8.58-4.75,12.6c-2.64,5.05-5.54,9.96-8.7,14.7c-2.1,3.25-0.97,5.29,2.92,5.56c0.9,0.06,1.8,0.04,2.7,0.04
	C24.4,117.98,31.9,117.98,39.4,117.97z M39.7,112.38c-6.3,0-12.61-0.07-18.91,0.04c-2.58,0.04-2.71-0.78-1.5-2.72
	c3.3-5.25,6.15-10.77,8.52-16.51c1.47-3.62,2.33-7.46,2.54-11.36c0.28-2.54-0.95-5-3.15-6.3c-7.8-5.16-14.13-12.24-18.38-20.57
	C0.01,37.45,8.82,12.98,27.49,7.16c16.36-5.1,36.34,0,40.96,21.06c0.64,3.91,3.95,6.83,7.91,6.97c0.7,0.07,1.4,0.11,2.09,0.21
	c4.02,0.57,3.92,0.57,2.6,4.24c-1.08,3-2.34,6.17,1.29,8.58c1.06,0.71,0.93,1.94,0.68,3.03c-0.92,3.6,0.41,7.41,3.38,9.65
	c1.93,1.6,1.59,2.97,0.14,4.52c-1.28,1.41-2.87,2.5-4.65,3.18c-4.58,1.76-8.9,4.12-12.85,7.02c-5.48,3.95-8.04,9.26-8.51,15.79
	c-0.45,5.79-0.08,11.62,1.08,17.32c0.7,3.36,0.4,3.65-3,3.66C52.31,112.4,46.01,112.39,39.7,112.38L39.7,112.38z M43.81,65.2
	c0.5,0,1,0.01,1.5,0c2.08-0.05,4.09-0.61,3.9-3.07c-0.17-2.27-2.09-2.61-4.1-2.32c-1.79,0.25-3.62,0.08-5.34-0.49
	c-2.23-0.72-4.57-1.59-4.86-4.28c-0.31-2.85,0.02-5.62,3.17-7.1c1.41-0.67,2.68-1.75,1.77-3.54s-2.48-1.63-4.15-1
	c-3.94,1.5-5.49,4.66-6.13,8.53c-0.72,4.4,0.78,7.77,4.35,10.42C36.9,64.56,40.27,65.13,43.81,65.2L43.81,65.2z"/>
</svg>
