<?xml version="1.0"?>
<svg xmlns="http://www.w3.org/2000/svg" id="outline" viewBox="0 0 512 512" width="512" height="512"><path d="M473.37305,128H448a8.00235,8.00235,0,0,0-5.65723,2.34277l-8,8-17.373,17.37305a31.08071,31.08071,0,0,0-2.59619,2.96021A98.76332,98.76332,0,0,0,362.37207,144a158.341,158.341,0,0,0-68.78516,15.82129L46.16016,280H24a8.00039,8.00039,0,0,0-8,8v88a8.00039,8.00039,0,0,0,8,8H40a8.00153,8.00153,0,0,0,6.86035-3.88379l22.42188-37.37109L371.928,249.62329l12.10815,127.1355A8,8,0,0,0,392,384h48a8.00039,8.00039,0,0,0,8-8V360a8.00235,8.00235,0,0,0-2.34277-5.65723L432,340.68652v-133.417a30.58732,30.58732,0,0,0,28.28418-8.23926l17.37305-17.373,12.68652-12.68653A24,24,0,0,0,473.37305,128ZM57.80957,292.12939l137.57275-66.821,24.2002,54.45L69.11816,326.05469ZM209.783,218.314l63.07251-30.63525,26.95727,67.39307L234.98511,275.019ZM35.4707,368H32V296H42.2334l13.01318,39.03906ZM315.15625,250.35083,287.42773,181.0293l-4.99707,1.99853,18.14649-8.814A142.25243,142.25243,0,0,1,362.37207,160a82.89579,82.89579,0,0,1,45.8501,13.72852A31.10929,31.10929,0,0,0,408,177.37305a30.5074,30.5074,0,0,0,8,20.61792V248H387.8457l-3.88183-40.75879-15.92774,1.51758,2.34278,24.60034ZM432,368H399.27441l-9.90478-104H416v80a8.00235,8.00235,0,0,0,2.34277,5.65723L432,363.31348Zm16.96973-180.28418a14.62689,14.62689,0,1,1-20.68555-20.68555L440,155.31348,460.68652,176Zm30.05957-30.05957L472,164.68555,451.31445,144h22.0586a8,8,0,0,1,5.65625,13.65625Z"/></svg>
