<?xml version="1.0" encoding="utf-8"?>
<!-- Generator: Adobe Illustrator 24.0.0, SVG Export Plug-In . SVG Version: 6.00 Build 0)  -->
<svg version="1.1" id="Layer_2_1_" xmlns="http://www.w3.org/2000/svg" xmlns:xlink="http://www.w3.org/1999/xlink" x="0px" y="0px"
	 viewBox="0 0 93.97 95.26" style="enable-background:new 0 0 93.97 95.26;" xml:space="preserve">
<style type="text/css">
	.st0{fill:none;stroke:#808080;stroke-width:3;stroke-miterlimit:10;}
	.st1{fill:none;stroke:#808080;stroke-width:3;stroke-linecap:round;stroke-miterlimit:10;}
	.st2{fill:none;stroke:#808080;stroke-width:3;stroke-linecap:round;stroke-linejoin:round;stroke-miterlimit:10;}
</style>
<path class="st0" d="M50,84.48V5.62c0-2-1.62-3.62-3.62-3.62l0,0c-2,0-3.62,1.62-3.62,3.62v78.86H50z"/>
<path class="st0" d="M22.06,90.19v-1.24c0-2.47,2-4.47,4.47-4.47h38.84c2.47,0,4.47,2,4.47,4.47v1.51L22.06,90.19z"/>
<path class="st1" d="M81.7,22.4h-1.55c-4.61-1.01-8.84-4.28-12.89-6.57c-5.17-2.92-11.85-2.01-17.26-0.3"/>
<polyline class="st2" points="89.79,58.09 77.14,21.43 62.63,58.09 "/>
<path class="st2" d="M89.79,58.1H62.63c0,0,2.11,10.75,13.58,10.75S89.79,58.09,89.79,58.1z"/>
<polyline class="st2" points="29.16,44.57 16.51,7.91 2,44.57 "/>
<path class="st2" d="M29.16,44.57H2c0,0,2.11,10.75,13.58,10.75S29.16,44.57,29.16,44.57z"/>
<path class="st1" d="M11.21,6.36l1.4,0.67c4.6,1.1,9.83-0.02,14.47-0.32c5.92-0.39,11.55,3.33,15.68,7.22"/>
</svg>
