<?xml version="1.0"?>
<svg xmlns="http://www.w3.org/2000/svg" id="outline" viewBox="0 0 512 512" width="512" height="512"><path d="M55.09863,308.53223l68.61377,26.39013,79.26612,72.66016A62.309,62.309,0,0,0,245.18408,424H292a64.30494,64.30494,0,0,0,51.19971-25.6001L366.949,366.73438,392,402.52173V416a7.99977,7.99977,0,0,0,8,8h88a7.99977,7.99977,0,0,0,8-8V400a7.99977,7.99977,0,0,0-4.03076-6.9458l-36.58057-20.90308-18.39892-91.99585A40.10812,40.10812,0,0,0,397.76611,248H344.69189a67.16768,67.16768,0,0,0-47.80859,19.80322l-20.295,20.29505L256,253.78418V161.88867a50.141,50.141,0,0,0-5.26709-22.311A49.61639,49.61639,0,0,0,206.11133,112a104.08858,104.08858,0,0,0-29.92627,4.39209L109.70117,136.3374a7.99937,7.99937,0,0,0-4.35742,3.2251L90.86633,161.27863l-21.39612,7.132a8.00394,8.00394,0,0,0-3.54443,2.38282L30.68359,211.90967a60.994,60.994,0,0,0,24.415,96.62256ZM213.79,395.78857,202.17346,385.14,288,299.31348l35.21167,35.21167L281.97119,389.9165A46.46012,46.46012,0,0,1,213.79,395.78857Zm116.60986-6.98828A48.22961,48.22961,0,0,1,292,408h-5.12024a61.61889,61.61889,0,0,0,7.81116-8.377c.02588-.03321.05078-.0669.07617-.10059l49.0332-65.85791,13.49378,19.277ZM480,408H408v-4.68652l25.33594-25.33594L480,404.64258ZM397.76611,264a24.06456,24.06456,0,0,1,23.53418,19.293l14.78687,73.93555L406.83691,288.978A67.54616,67.54616,0,0,0,388.37549,264Zm-53.07422,0a51.55428,51.55428,0,0,1,47.439,31.28076l30.38257,70.89234-21.42774,21.42773-50.532-72.18872a8.00022,8.00022,0,0,0-12.9707-.18945l-4.7146,6.33227L299.31348,288l8.8833-8.8833A51.275,51.275,0,0,1,344.69189,264Zm-79.76525,35.75989-74.55848,74.55847-56.9624-52.21582a8.00406,8.00406,0,0,0-2.53369-1.56934L97.54468,307.71484l12.022-42.0769,23.0564,5.76416a41.92841,41.92841,0,0,0,67.36206-32.75873L202.5708,216H240v40a7.9971,7.9971,0,0,0,1.14014,4.11572Zm-77.5531-91.69977-21.7168-21.71686-5.57764-5.57764c-.08642-.08648-.17724-.166-.2644-.25128l31.09887-3.45526ZM148.6825,192.004l-18.33924,18.33923A7.99877,7.99877,0,0,0,128,216v12.68652l-7.99988,7.99988-7.31555-7.31579,5.61328-28.0669A18.04853,18.04853,0,0,1,148.6825,192.004ZM131.31348,248l10.34326-10.34326A7.99877,7.99877,0,0,0,144,232V219.31348l16-16,16.40234,16.40234a25.94129,25.94129,0,0,1-36.68652,36.68652ZM98.34326,237.65674l11.57691,11.577L84.415,242.85742l13.88257-23.13794-2.14234,10.71167A7.99967,7.99967,0,0,0,98.34326,237.65674ZM117.05811,150.835l63.72412-19.11767A88.10013,88.10013,0,0,1,206.11133,128a33.70473,33.70473,0,0,1,30.311,18.73291A34.06479,34.06479,0,0,1,240,161.88867V200H204.39783l3.55041-31.09229a7.99966,7.99966,0,0,0-8.83154-8.85888l-72,8a7.99845,7.99845,0,0,0-4.77344,2.29443l-9.09985,9.09992L105.61462,168ZM42.832,222.32227l33.79981-39.4336,16.10107-5.36719,8.97266,13.459L90.34326,202.34326a7.97378,7.97378,0,0,0-1.20312,1.541l-24,40a7.99978,7.99978,0,0,0,4.91943,11.877l23.97583,5.9939L82.55151,301.94836l-21.70922-8.34973A44.99362,44.99362,0,0,1,42.832,222.32227Z"/></svg>
