<svg xmlns="http://www.w3.org/2000/svg" width="41.909" height="27.241" viewBox="0 0 41.909 27.241"><defs><style>.a{fill:#fff;}</style></defs><path class="a" d="M19.413,129.159l5.991,2.3,6.921,6.344a5.44,5.44,0,0,0,3.685,1.433H40.1a5.615,5.615,0,0,0,4.47-2.235l2.074-2.765,2.187,3.125v1.177a.7.7,0,0,0,.7.7H57.21a.7.7,0,0,0,.7-.7v-1.4a.7.7,0,0,0-.352-.606l-3.194-1.825-1.606-8.032a3.5,3.5,0,0,0-3.425-2.807H44.7a5.864,5.864,0,0,0-4.174,1.729l-1.772,1.772-1.8-3v-8.023a4.378,4.378,0,0,0-.46-1.948A4.332,4.332,0,0,0,32.6,112a9.089,9.089,0,0,0-2.614.384l-5.8,1.741a.7.7,0,0,0-.38.282l-1.264,1.9-1.868.623a.7.7,0,0,0-.309.208l-3.077,3.59a5.325,5.325,0,0,0,2.132,8.436Zm13.855,7.618-1.014-.93,7.494-7.493,3.074,3.074-3.6,4.836a4.056,4.056,0,0,1-5.953.513Zm10.181-.61a4.211,4.211,0,0,1-3.353,1.676H39.65a5.381,5.381,0,0,0,.682-.731l.007-.009,4.281-5.75,1.178,1.683Zm13.062,1.676H50.225v-.409l2.212-2.212,4.074,2.328Zm-7.18-12.573a2.1,2.1,0,0,1,2.055,1.684l1.291,6.455-2.554-5.959a5.9,5.9,0,0,0-1.612-2.181Zm-4.634,0A4.5,4.5,0,0,1,48.839,128l2.653,6.19-1.871,1.871-4.412-6.3a.7.7,0,0,0-1.132-.017l-.412.553-2.93-2.93.776-.776A4.477,4.477,0,0,1,44.7,125.271Zm-6.964,3.122-6.51,6.51-4.973-4.559a.7.7,0,0,0-.221-.137l-2.91-1.119,1.05-3.674,2.013.5a3.661,3.661,0,0,0,5.881-2.86l.226-1.977h3.268v3.492a.7.7,0,0,0,.1.359Zm-6.771-8.006-1.9-1.9L28.579,118l-.023-.022,2.715-.3Zm-3.378-1.4-1.6,1.6a.7.7,0,0,0-.2.494v1.108l-.7.7-.639-.639.49-2.451a1.576,1.576,0,0,1,2.653-.812Zm-1.516,4.889.9-.9a.7.7,0,0,0,.2-.494v-1.108l1.4-1.4L30,121.4a2.265,2.265,0,1,1-3.2,3.2Zm-2.879-.9,1.011,1.011-2.227-.557,1.212-2.02L23,122.34A.7.7,0,0,0,23.189,122.971Zm1.634-7.58,5.564-1.669A7.692,7.692,0,0,1,32.6,113.4a2.943,2.943,0,0,1,2.646,1.636,2.974,2.974,0,0,1,.312,1.323v3.327H32.448l.31-2.715a.7.7,0,0,0-.771-.773l-6.286.7a.7.7,0,0,0-.417.2l-.795.795-.666-1Zm-6.481,6.242,2.951-3.443,1.406-.469.783,1.175-.992.992a.7.7,0,0,0-.105.135l-2.1,3.492a.7.7,0,0,0,.43,1.037l2.093.523-1,3.509-1.9-.729a3.928,3.928,0,0,1-1.572-6.223Z" transform="translate(-15.999 -112)"/></svg>