<?xml version="1.0" encoding="utf-8"?>
<!-- Generator: Adobe Illustrator 24.0.0, SVG Export Plug-In . SVG Version: 6.00 Build 0)  -->
<svg version="1.1" id="Layer_1" xmlns="http://www.w3.org/2000/svg" xmlns:xlink="http://www.w3.org/1999/xlink" x="0px" y="0px"
	 viewBox="0 0 162.8 25.6" style="enable-background:new 0 0 162.8 25.6;" xml:space="preserve">
<style type="text/css">
	.st0{fill:#FC4C02;stroke:#FC4C02;stroke-linejoin:round;stroke-miterlimit:10;}
	.st1{enable-background:new    ;}
	.st2{fill:#FC4C02;}
</style>
<g id="Path_118">
	<rect x="85.3" y="14.3" transform="matrix(0.3828 -0.9238 0.9238 0.3828 45.8776 98.2134)" class="st0" width="22.2" height="1"/>
</g>
<g class="st1">
	<path class="st0" d="M110.3,18.2h-4.8l-1.4,3.8h-1.2l4.4-11.9h1.3L113,22h-1.2L110.3,18.2z M107.9,11.3c0,0-0.2,1-0.5,1.6l-1.6,4.3
		h4.1l-1.6-4.3C108.2,12.3,108,11.3,107.9,11.3L107.9,11.3z"/>
	<path class="st0" d="M116.9,10h1.2V22h-1.2V10z"/>
	<path class="st0" d="M123.6,10h3.5c1.2,0,1.8,0.1,2.2,0.3c1.1,0.5,1.8,1.6,1.8,3.1c0,1.6-0.9,2.9-2.3,3.2v0c0,0,0.1,0.1,0.3,0.5
		l2.6,4.8h-1.3l-2.7-5h-3v5h-1.2L123.6,10L123.6,10z M127.6,15.9c1.4,0,2.4-0.9,2.4-2.4c0-1-0.4-1.7-1.1-2.1
		c-0.4-0.2-0.8-0.3-1.7-0.3h-2.4v4.8H127.6z"/>
	<path class="st0" d="M141.6,9.8c2.8,0,4.2,1.4,4.2,1.4l-0.6,0.9c0,0-1.4-1.2-3.6-1.2c-2.9,0-4.8,2.2-4.8,5.1c0,2.9,2,5.1,4.7,5.1
		c2.3,0,3.8-1.8,3.8-1.8v-2h-2v-1h3.2V22h-1.1v-0.9c0-0.2,0-0.5,0-0.5h0c0,0-1.4,1.6-3.9,1.6c-3.3,0-5.9-2.6-5.9-6.2
		C135.6,12.6,138.1,9.8,141.6,9.8z"/>
	<path class="st0" d="M156.5,9.8c3.4,0,6.1,2.7,6.1,6.1c0,3.5-2.7,6.3-6.1,6.3s-6.1-2.8-6.1-6.3C150.5,12.5,153.2,9.8,156.5,9.8z
		 M156.5,21.1c2.7,0,4.9-2.2,4.9-5.2c0-2.9-2.2-5-4.9-5c-2.7,0-4.9,2.2-4.9,5C151.7,18.9,153.8,21.1,156.5,21.1z"/>
</g>
<path id="Path_1" class="st0" d="M0.8,18.8c1.2,1.2,2.9,1.9,4.7,1.9c1.8,0,3.5-1,3.5-2.8c0-3.8-8.3-2.8-8.3-7.7
	c0-2.7,2.3-4.1,4.8-4.1C7.2,6,8.8,6.6,10,7.7l-0.8,1c-1-1-2.4-1.5-3.8-1.4C3.7,7.3,2,8.1,2,10.1c0,3.9,8.3,2.8,8.3,7.8
	c0,2.4-2.1,4.1-4.8,4.1c-2,0.1-4-0.7-5.5-2.2L0.8,18.8z"/>
<path id="Path_2" class="st0" d="M25.4,20.8c3.6,0,6.6-3,6.5-6.6c0,0,0-0.1,0-0.1c0.1-3.6-2.8-6.6-6.4-6.6s-6.6,2.8-6.6,6.4
	c0,0.1,0,0.2,0,0.2c-0.1,3.6,2.7,6.7,6.4,6.8C25.4,20.8,25.4,20.8,25.4,20.8 M25.4,6.1c4.3,0,7.8,3.4,7.8,7.7c0,0,0,0.1,0,0.1
	c0.1,4.3-3.3,7.9-7.6,8c-4.3,0.1-7.9-3.3-8-7.7c0-0.1,0-0.3,0-0.4c0-4.3,3.4-7.8,7.7-7.8C25.4,6.1,25.4,6.1,25.4,6.1"/>
<path id="Path_3" class="st0" d="M41.6,0h1.3v18.1c0,2.2,1.1,2.4,1.8,2.4c0.2,0,0.3,0,0.5,0v1.2c-0.2,0-0.4,0.1-0.6,0.1
	c-0.9,0-3-0.3-3-3.2L41.6,0L41.6,0z"/>
<path id="Path_4" class="st0" d="M59.6,20.8c3.6,0,6.6-3,6.5-6.7c0,0,0-0.1,0-0.1c0.1-3.6-2.8-6.6-6.4-6.6c-3.6-0.1-6.6,2.8-6.6,6.4
	c0,0.1,0,0.2,0,0.2c-0.1,3.6,2.7,6.7,6.4,6.8C59.5,20.8,59.5,20.8,59.6,20.8 M59.6,6.1c4.3,0,7.8,3.4,7.8,7.7c0,0,0,0.1,0,0.1
	c0.1,4.3-3.3,7.9-7.7,8c-4.3,0.1-7.9-3.3-8-7.7c0-0.1,0-0.3,0-0.4c0-4.3,3.4-7.8,7.7-7.8C59.5,6.1,59.5,6.1,59.6,6.1"/>
<path id="Path_5" class="st0" d="M75.5,18.8c1.2,1.2,2.9,1.9,4.7,1.9c1.8,0,3.5-1,3.5-2.8c0-3.8-8.3-2.8-8.3-7.7
	c0-2.7,2.3-4.1,4.8-4.1c1.7-0.1,3.3,0.5,4.5,1.6l-0.8,1c-1-1-2.4-1.5-3.8-1.4c-1.7,0-3.4,0.8-3.4,2.8c0,3.9,8.3,2.8,8.3,7.8
	c0,2.4-2.1,4.1-4.8,4.1c-2.1,0.1-4.1-0.7-5.5-2.2L75.5,18.8z"/>
<path id="Path_6" class="st2" d="M86.6,6.6L86.6,6.6c0-1,0.8-1.8,1.8-1.8c1,0,1.8,0.8,1.8,1.7v0v0c0,1-0.8,1.8-1.8,1.8
	C87.4,8.4,86.6,7.6,86.6,6.6C86.6,6.6,86.6,6.6,86.6,6.6 M90,6.6L90,6.6c0.1-0.9-0.6-1.6-1.5-1.7c-0.9-0.1-1.6,0.6-1.7,1.5
	c0,0.1,0,0.1,0,0.2v0c0,0.9,0.7,1.6,1.6,1.6c0,0,0,0,0,0C89.3,8.2,90,7.5,90,6.6C90,6.6,90,6.6,90,6.6 M87.7,5.7h0.8
	c0.2,0,0.4,0.1,0.5,0.2c0.1,0.1,0.2,0.2,0.2,0.3v0c0,0.3-0.2,0.5-0.5,0.5l0.6,0.7H89l-0.5-0.7H88v0.7h-0.3L87.7,5.7z M88.5,6.5
	c0.3,0,0.4-0.1,0.4-0.3v0c0-0.2-0.2-0.3-0.4-0.3H88v0.6H88.5z"/>
</svg>
