<?xml version="1.0" encoding="utf-8"?>
<!-- Generator: Adobe Illustrator 24.0.0, SVG Export Plug-In . SVG Version: 6.00 Build 0)  -->
<svg version="1.1" id="Layer_1" xmlns="http://www.w3.org/2000/svg" xmlns:xlink="http://www.w3.org/1999/xlink" x="0px" y="0px"
	 viewBox="0 0 162.79 25.58" style="enable-background:new 0 0 162.79 25.58;" xml:space="preserve">
<style type="text/css">
	.st0{fill:#808080;}
	.st1{enable-background:new    ;}
</style>
<g id="Path_118">
	
		<rect x="85.33" y="14.27" transform="matrix(0.3828 -0.9238 0.9238 0.3828 45.8776 98.2178)" class="st0" width="22.24" height="1"/>
</g>
<g class="st1">
	<path class="st0" d="M110.34,18.19h-4.81L104.17,22h-1.24l4.39-11.95h1.26L112.96,22h-1.24L110.34,18.19z M107.92,11.29
		c0,0-0.25,0.99-0.46,1.55l-1.6,4.33h4.11l-1.56-4.33c-0.2-0.56-0.46-1.55-0.46-1.55H107.92z"/>
	<path class="st0" d="M116.95,10.05h1.17V22h-1.17V10.05z"/>
	<path class="st0" d="M123.63,10.05h3.54c1.22,0,1.77,0.12,2.24,0.32c1.12,0.49,1.8,1.63,1.8,3.08c0,1.61-0.92,2.86-2.26,3.23v0.03
		c0,0,0.12,0.15,0.31,0.48l2.6,4.81h-1.34l-2.7-5.03h-3.01V22h-1.17V10.05z M127.64,15.92c1.45,0,2.36-0.94,2.36-2.43
		c0-0.99-0.39-1.72-1.09-2.09c-0.36-0.19-0.78-0.29-1.7-0.29h-2.41v4.81H127.64z"/>
	<path class="st0" d="M141.57,9.85c2.77,0,4.25,1.39,4.25,1.39l-0.63,0.88c0,0-1.39-1.19-3.57-1.19c-2.89,0-4.84,2.23-4.84,5.07
		c0,2.94,2.02,5.12,4.74,5.12c2.33,0,3.76-1.75,3.76-1.75v-2.02h-2.04v-1.05h3.16V22h-1.09v-0.9c0-0.25,0.02-0.51,0.02-0.51h-0.03
		c0,0-1.38,1.62-3.89,1.62c-3.26,0-5.85-2.63-5.85-6.19C135.55,12.57,138.13,9.85,141.57,9.85z"/>
	<path class="st0" d="M156.54,9.85c3.38,0,6.09,2.67,6.09,6.1c0,3.5-2.7,6.26-6.09,6.26s-6.08-2.75-6.08-6.26
		C150.46,12.51,153.16,9.85,156.54,9.85z M156.54,21.12c2.69,0,4.86-2.24,4.86-5.17c0-2.86-2.18-5.01-4.86-5.01
		c-2.7,0-4.86,2.16-4.86,5.01C151.68,18.87,153.84,21.12,156.54,21.12z"/>
</g>
<g id="Group_225" transform="translate(11.295 52)">
	<path id="Path_1" class="st0" d="M-10.48-33.15c1.25,1.24,2.94,1.93,4.7,1.91c1.84,0,3.48-0.97,3.48-2.85
		c0-3.85-8.33-2.76-8.33-7.7c0-2.7,2.27-4.09,4.85-4.09c1.65-0.1,3.28,0.49,4.48,1.63l-0.76,1.03c-1.03-0.98-2.41-1.49-3.82-1.43
		c-1.72,0-3.42,0.79-3.42,2.76c0,3.93,8.33,2.75,8.33,7.78c0,2.42-2.06,4.09-4.85,4.09c-2.05,0.08-4.05-0.72-5.49-2.18L-10.48-33.15
		z"/>
	<path id="Path_2" class="st0" d="M14.15-31.24c3.64-0.04,6.55-3.02,6.51-6.65c0-0.04,0-0.09,0-0.13c0.06-3.6-2.8-6.56-6.4-6.63
		s-6.56,2.8-6.63,6.4c0,0.08,0,0.15,0,0.23c-0.11,3.64,2.74,6.67,6.38,6.79C14.06-31.24,14.1-31.24,14.15-31.24 M14.15-45.88
		c4.3-0.03,7.81,3.43,7.84,7.73c0,0.04,0,0.08,0,0.12c0.11,4.33-3.31,7.93-7.65,8.04c-4.33,0.11-7.93-3.31-8.04-7.65
		c0-0.13,0-0.26,0-0.4c-0.03-4.3,3.43-7.82,7.73-7.85C14.07-45.88,14.11-45.88,14.15-45.88"/>
	<path id="Path_3" class="st0" d="M30.26-52h1.28v18.11c0,2.16,1.09,2.41,1.79,2.41c0.15,0,0.3-0.01,0.45-0.03v1.21
		c-0.18,0.04-0.36,0.06-0.55,0.06c-0.88,0-2.97-0.34-2.97-3.25L30.26-52L30.26-52z"/>
	<path id="Path_4" class="st0" d="M48.27-31.24c3.64-0.04,6.56-3.02,6.51-6.66c0-0.04,0-0.08,0-0.13c0.06-3.6-2.8-6.56-6.4-6.63
		c-3.6-0.06-6.56,2.8-6.63,6.4c0,0.08,0,0.15,0,0.23c-0.11,3.64,2.74,6.67,6.38,6.79C48.18-31.24,48.23-31.24,48.27-31.24
		 M48.27-45.88c4.3-0.03,7.81,3.43,7.84,7.73c0,0.04,0,0.08,0,0.12c0.11,4.33-3.31,7.93-7.65,8.04c-4.33,0.11-7.93-3.31-8.04-7.65
		c0-0.13,0-0.26,0-0.4c-0.03-4.3,3.43-7.82,7.73-7.85C48.19-45.88,48.23-45.88,48.27-45.88"/>
	<path id="Path_5" class="st0" d="M64.17-33.15c1.25,1.24,2.94,1.93,4.7,1.91c1.85,0,3.49-0.97,3.49-2.85c0-3.85-8.33-2.76-8.33-7.7
		c0-2.7,2.27-4.09,4.85-4.09c1.66-0.1,3.28,0.49,4.48,1.63l-0.76,1.03c-1.02-0.98-2.4-1.49-3.81-1.43c-1.73,0-3.42,0.79-3.42,2.76
		c0,3.93,8.33,2.75,8.33,7.78c0,2.42-2.06,4.09-4.85,4.09c-2.05,0.07-4.05-0.72-5.49-2.18L64.17-33.15z"/>
	<path id="Path_6" class="st0" d="M75.35-45.39L75.35-45.39c0-0.98,0.79-1.77,1.76-1.77c0.96,0,1.75,0.77,1.75,1.74
		c0,0,0,0.01,0,0.01v0.01c0,0.97-0.79,1.76-1.76,1.76C76.14-43.63,75.35-44.41,75.35-45.39C75.35-45.38,75.35-45.38,75.35-45.39
		 M78.71-45.39v-0.01c0.06-0.88-0.61-1.64-1.5-1.7c-0.88-0.06-1.64,0.61-1.7,1.5c0,0.07,0,0.14,0,0.21v0.01
		c-0.01,0.87,0.69,1.59,1.56,1.6c0.01,0,0.02,0,0.03,0c0.88,0,1.6-0.72,1.6-1.6C78.71-45.38,78.71-45.39,78.71-45.39 M76.42-46.34
		h0.8c0.2-0.01,0.39,0.06,0.53,0.19c0.1,0.09,0.15,0.22,0.15,0.35v0.01c0,0.27-0.2,0.5-0.46,0.53l0.56,0.72h-0.32l-0.52-0.68h-0.46
		v0.68h-0.27L76.42-46.34z M77.2-45.46c0.26,0,0.43-0.12,0.43-0.32v-0.01c0-0.19-0.16-0.31-0.41-0.31h-0.53v0.64L77.2-45.46z"/>
</g>
</svg>
