<?xml version="1.0" encoding="utf-8"?>
<!-- Generator: Adobe Illustrator 24.0.0, SVG Export Plug-In . SVG Version: 6.00 Build 0)  -->
<svg version="1.1" id="Layer_1" xmlns="http://www.w3.org/2000/svg" xmlns:xlink="http://www.w3.org/1999/xlink" x="0px" y="0px"
	 viewBox="0 0 51 50" style="enable-background:new 0 0 51 50;" xml:space="preserve">
<style type="text/css">
	.st0{fill:none;stroke:#808080;stroke-width:1.0558;stroke-linecap:round;stroke-linejoin:round;stroke-miterlimit:10;}
</style>
<path class="st0" d="M21.73,15.66c-1.48-2.88,0.15-5.77,0.15-5.77c0.34-0.61,0.5-1.33,0.43-2.08c-0.19-1.97-2.26-6.62-4.23-6.42
	c-1.97,0.19-3.1,5.15-2.91,7.12c0.09,0.88,0.48,1.65,1.07,2.22c0.51,0.72,1.73,2.77,1.1,5.22c-0.25,0.45-0.38,0.98-0.33,1.54
	c0.14,1.44,1.43,2.5,2.87,2.36s2.5-1.43,2.36-2.87C22.19,16.48,22,16.03,21.73,15.66L21.73,15.66z"/>
<path class="st0" d="M35.8,31.23c-0.75-3.14,1.51-5.57,1.52-5.57c0.47-0.52,0.8-1.17,0.91-1.92c0.28-1.96-0.63-6.96-2.59-7.24
	c-1.96-0.28-4.23,4.27-4.51,6.23c-0.12,0.88,0.08,1.72,0.52,2.41c0.32,0.82,1.02,3.1-0.17,5.33c-0.35,0.38-0.6,0.87-0.68,1.42
	c-0.2,1.44,0.79,2.77,2.23,2.97s2.77-0.79,2.97-2.23C36.06,32.14,35.98,31.66,35.8,31.23L35.8,31.23z"/>
<path class="st0" d="M21.1,42.98c-1.42-2.9,0.26-5.77,0.26-5.77c0.35-0.61,0.53-1.32,0.47-2.07c-0.16-1.98-2.14-6.66-4.11-6.5
	c-1.98,0.16-3.2,5.09-3.04,7.07c0.07,0.88,0.45,1.66,1.03,2.24c0.49,0.73,1.68,2.81,1,5.24c-0.26,0.45-0.4,0.98-0.35,1.53
	c0.11,1.45,1.38,2.53,2.83,2.41c1.45-0.11,2.53-1.38,2.41-2.83C21.55,43.81,21.37,43.36,21.1,42.98L21.1,42.98z"/>
<path class="st0" d="M24.17,34.89c0,0-0.22-7.22,5.73-6.85"/>
<path class="st0" d="M29.9,18.92c0,0,0.22-7.22-5.73-6.85"/>
</svg>
