<svg id="Capa_1" enable-background="new 0 0 512 512" height="512" viewBox="0 0 512 512" width="512"
    xmlns="http://www.w3.org/2000/svg">
    <g>
        <path d="m425.349 138.864 14.499-14.499 7.073 7.073c2.929 2.929 6.768 4.394 10.606 4.394s7.678-1.465 10.606-4.394c5.858-5.857 5.858-15.355 0-21.213l-35.359-35.36c-5.856-5.857-15.354-5.858-21.213 0-5.858 5.857-5.858 15.355 0 21.213l7.073 7.073-14.499 14.499c-29.631-25.994-65.012-43.47-103.135-51.168v-36.482h5c8.284 0 15-6.716 15-15s-6.716-15-15-15h-100c-8.284 0-15 6.716-15 15s6.716 15 15 15h5v36.482c-38.123 7.698-73.504 25.174-103.136 51.169l-14.499-14.499 7.073-7.073c5.858-5.858 5.858-15.355 0-21.213-5.857-5.858-15.355-5.858-21.213 0l-35.36 35.36c-5.858 5.858-5.858 15.355 0 21.213 2.929 2.929 6.768 4.394 10.606 4.394s7.678-1.464 10.606-4.394l7.073-7.073 14.499 14.499c-35.985 41.021-55.649 93.063-55.649 148.135 0 60.1 23.404 116.602 65.901 159.099s98.999 65.901 159.099 65.901 116.602-23.404 159.099-65.901 65.901-98.999 65.901-159.099c0-55.071-19.664-107.114-55.651-148.136zm-184.349-108.864h30v32.504c-4.972-.326-9.972-.504-15-.504s-10.028.178-15 .504zm15 452c-107.523 0-195-87.477-195-195s87.477-195 195-195 195 87.477 195 195-87.477 195-195 195z"/>
        <circle cx="256" cy="137" r="15"/>
        <circle cx="256" cy="437" r="15"/>
        <ellipse cx="181" cy="157.096" rx="15" ry="15" transform="matrix(.259 -.966 .966 .259 -17.589 291.269)"/>
        <path d="m323.5 403.913c-7.174 4.142-9.633 13.316-5.49 20.49 4.142 7.174 13.316 9.633 20.49 5.49 7.174-4.142 9.633-13.316 5.49-20.49-4.142-7.174-13.316-9.632-20.49-5.49z"/>
        <ellipse cx="126.096" cy="212" rx="15" ry="15" transform="matrix(.966 -.259 .259 .966 -50.573 39.86)"/>
        <path d="m393.404 349.01c-7.174-4.142-16.348-1.684-20.49 5.49s-1.684 16.348 5.49 20.49 16.348 1.684 20.49-5.49 1.684-16.348-5.49-20.49z"/>
        <circle cx="106" cy="287" r="15"/>
        <circle cx="406" cy="287" r="15"/>
        <ellipse cx="126.096" cy="362" rx="15" ry="15" transform="matrix(.259 -.966 .966 .259 -256.205 390.107)"/>
        <path d="m393.404 224.99c7.174-4.142 9.633-13.316 5.49-20.49-4.142-7.174-13.316-9.633-20.49-5.49-7.174 4.142-9.633 13.316-5.49 20.49 4.142 7.174 13.315 9.633 20.49 5.49z"/>
        <ellipse cx="181" cy="416.904" rx="15" ry="15" transform="matrix(.966 -.259 .259 .966 -101.735 61.052)"/>
        <path d="m338.5 144.106c-7.174-4.142-16.348-1.684-20.49 5.49s-1.684 16.348 5.49 20.49 16.348 1.684 20.49-5.49c4.143-7.174 1.684-16.348-5.49-20.49z"/>
        <path d="m256 242c-11.143 0-21.345 4.08-29.213 10.813l-41.229-23.803c-7.176-4.144-16.35-1.685-20.49 5.49-4.142 7.174-1.684 16.348 5.49 20.49l41.208 23.791c-.495 2.667-.766 5.411-.766 8.219 0 24.813 20.187 45 45 45s45-20.187 45-45-20.187-45-45-45zm0 60c-8.271 0-15-6.729-15-15 0-2.291.532-4.455 1.454-6.4.232-.335.456-.679.663-1.038.206-.357.384-.723.558-1.089 2.71-3.906 7.221-6.473 12.325-6.473 8.271 0 15 6.729 15 15s-6.729 15-15 15z"/>
    </g>
</svg>