<?xml version="1.0" encoding="utf-8"?>
<!-- Generator: Adobe Illustrator 24.0.0, SVG Export Plug-In . SVG Version: 6.00 Build 0)  -->
<svg version="1.1" id="Layer_2" xmlns="http://www.w3.org/2000/svg" xmlns:xlink="http://www.w3.org/1999/xlink" x="0px" y="0px"
	 viewBox="0 0 100 100" style="enable-background:new 0 0 100 100;" xml:space="preserve">
<style type="text/css">
	.st0{fill:none;stroke:#808080;stroke-width:3;stroke-miterlimit:10;}
	.st1{fill:none;stroke:#808080;stroke-width:3;stroke-linecap:round;stroke-miterlimit:10;}
	.st2{fill:none;stroke:#808080;stroke-width:3;stroke-linecap:round;stroke-miterlimit:10;stroke-dasharray:1.0905,6.5428;}
	.st3{fill:none;stroke:#808080;stroke-width:3;stroke-linecap:round;stroke-miterlimit:10;stroke-dasharray:0.9733,5.84;}
	.st4{fill:none;stroke:#808080;stroke-width:3;stroke-linecap:round;stroke-linejoin:round;stroke-miterlimit:10;}
</style>
<path class="st0" d="M52.15,25.6c0,0,1.66-3.82,1.66-8.15c0,0,0.67-11.31-7.15-11.31c0,0-6.65-0.17-6.65,9.73c0,0,0,5.57,1.66,9.73
	H52.15z"/>
<path class="st0" d="M41.84,34.08c0,0-0.98,10.14,5.08,10.14c0,0,5.73,1,5.4-10.14H41.84z"/>
<path class="st0" d="M17.9,75.48c0,0-1.66-3.82-1.66-8.15c0,0-0.67-11.31,7.15-11.31c0,0,6.65-0.17,6.65,9.73c0,0,0,5.57-1.66,9.73
	H17.9z"/>
<path class="st0" d="M28.21,83.96c0,0,0.98,10.14-5.08,10.14c0,0-5.73,1-5.4-10.14H28.21z"/>
<g>
	<g>
		<line class="st1" x1="46.66" y1="6.15" x2="47.16" y2="6.15"/>
		<line class="st2" x1="53.7" y1="6.15" x2="80.96" y2="6.15"/>
		<line class="st1" x1="84.24" y1="6.15" x2="84.74" y2="6.15"/>
	</g>
</g>
<g>
	<g>
		<line class="st1" x1="23.39" y1="56.03" x2="23.89" y2="56.03"/>
		<line class="st3" x1="29.73" y1="56.03" x2="81.32" y2="56.03"/>
		<line class="st1" x1="84.24" y1="56.03" x2="84.74" y2="56.03"/>
	</g>
</g>
<polyline class="st4" points="69.32,15.15 76.26,6.21 83.19,15.15 "/>
<polyline class="st4" points="83.19,47.09 76.26,56.03 69.32,47.09 "/>
<line class="st4" x1="76.26" y1="6.21" x2="76.26" y2="56.03"/>
</svg>
