<?xml version="1.0" encoding="utf-8"?>
<!-- Generator: Adobe Illustrator 24.0.0, SVG Export Plug-In . SVG Version: 6.00 Build 0)  -->
<svg version="1.1" id="Layer_3" xmlns="http://www.w3.org/2000/svg" xmlns:xlink="http://www.w3.org/1999/xlink" x="0px" y="0px"
	 viewBox="0 0 100 100" style="enable-background:new 0 0 100 100;" xml:space="preserve">
<style type="text/css">
	.st0{fill:#5280C0;}
	.st1{fill:#D8D8D8;}
	.st2{fill:#E2E0DF;}
	.st3{fill:#3F50A0;}
	.st4{fill:#6984C1;}
	.st5{fill:#FEFEFE;}
	.st6{fill:#5F7B89;}
	.st7{fill:#7F949F;}
	.st8{fill:#8296A0;}
	.st9{fill:#D9D9D9;}
</style>
<path class="st0" d="M1.61,6.49c0.61-2.6,2.11-4.31,4.78-4.89c12.29,0.02,24.57,0.04,36.86,0.07c0.87,0,1.76-0.12,2.56,0.4
	c1.78,5.46,3.56,10.93,5.35,16.39c0.25,0.76,0.54,1.51,0.82,2.26c1.79,2.61,2.27,5.71,3.24,8.62c1.59,4.78,3.03,9.62,4.72,14.37
	c0.46,1.27,0.7,2.61,1.26,3.84c1.6,6.11,3.89,12.01,5.66,18.07c0.48,1.72,1.14,3.38,1.76,5.05c0.64,2.25,1.27,4.5,2.01,6.72
	c0.3,0.88,0.63,1.8-0.09,2.66c-0.77,0.56-1.67,0.45-2.53,0.45c-5.64,0.02-11.28,0-16.91,0.02c-1.02,0-2-0.11-2.94-0.52
	C34.69,79.99,21.23,80.03,7.76,80C4.54,80,2.38,78.05,1.58,74.71c0.02-2.9,0.07-5.8,0.07-8.7C1.65,46.17,1.63,26.33,1.61,6.49z"/>
<path class="st1" d="M70.64,79.46c-0.63-3.05-2.07-5.87-2.54-8.96c0.95-1.59,2.47-2.65,3.68-4c1.1-1.22,2.02-0.95,2.99,0.22
	c2.59,3.11,5.51,5.89,8.58,8.54c1.03,0.89,1.65,0.75,2.53-0.12c0.95-0.95,0.62-1.61-0.2-2.34c-3-2.7-5.93-5.48-8.79-8.34
	c-1.18-1.18-1.35-2.13-0.25-3.44c2.61-3.11,4.71-6.55,6.37-10.27c0.16-0.12,0.34-0.17,0.54-0.16c1.19,0.56,1.94,1.64,2.84,2.53
	c3.49,3.45,6.95,6.94,10.43,10.41c0.67,0.67,1.31,1.35,1.71,2.22c0.01,8.5-0.06,17.01,0.06,25.51c0.06,4.32-2.76,7.22-6.72,7.27
	c-12.21,0.14-24.42,0.05-36.63,0.05c-0.35,0-0.67-0.06-0.87-0.39c0.58-1.5,1.91-2.42,2.92-3.55c4.23-4.77,8.45-9.56,12.81-14.2
	C70.42,80.17,70.88,80.01,70.64,79.46z"/>
<path class="st2" d="M98.53,65.73c-5.14-4.87-10.18-9.83-14.99-15.03c-0.65-2.4,0.17-3.63,2.57-3.79c1.34-0.09,2.69,0.02,4.03-0.06
	c0.75-0.04,1.55-0.11,1.59-1.13c0.05-1.18-0.83-1.24-1.65-1.26c-3.96-0.06-7.92,0-11.88-0.04c-0.4,0-0.8-0.04-1.2-0.09
	c-0.22-0.03-0.44-0.09-0.65-0.18c-1.02-0.64-1.87-1.45-2.45-2.53c-0.06-0.18-0.12-0.37-0.14-0.57c-0.27-2.69-0.27-2.69-2.91-2.84
	c-0.2-0.03-0.38-0.08-0.57-0.15c-1.94-1.36-3.43-3.2-5.1-4.84c-3.36-3.29-6.72-6.58-9.94-10.01c-0.9-0.96-2.39-1.14-2.9-2.48
	c13.22,0,26.45-0.02,39.67,0c3.7,0.01,6.53,2.83,6.53,6.53C98.56,40.08,98.53,52.91,98.53,65.73z"/>
<path class="st3" d="M70.56,80.33c-5.28,6.06-10.47,12.19-16.2,17.84c-1.92-5.94-3.83-11.89-5.75-17.83
	c0.9-0.42,1.86-0.19,2.79-0.19c5.73-0.03,11.45-0.02,17.18,0C69.24,80.14,69.93,79.96,70.56,80.33z"/>
<path class="st1" d="M52.34,20.73c1.52,0.33,2.49,1.44,3.51,2.48c4.77,4.83,9.55,9.65,14.33,14.47c-1.28,0.94-1.43,2.28-1.44,3.75
	c-0.02,2.52-0.49,3.02-2.96,2.98c-2.05-0.04-4.18,0.52-6.16-0.5c-1.1-1.5-1.32-3.34-1.87-5.04c-1.96-6.05-3.86-12.11-5.78-18.17
	C52.1,20.71,52.22,20.72,52.34,20.73z"/>
<path class="st4" d="M70.56,80.33c-7.32,0-14.63,0-21.95,0c-0.15-0.12-0.31-0.24-0.46-0.36c6.73-0.02,13.47-0.03,20.2-0.07
	c0.77,0,1.64,0.3,2.28-0.45C70.96,79.78,71.03,80.08,70.56,80.33z"/>
<path class="st5" d="M35.82,38.05c1.55,0,3.13,0.16,4.66-0.04c1.92-0.25,2.25,0.71,2.35,2.28c0.47,7.8-4.75,14.07-12.69,15.16
	c-7.06,0.97-14.43-4.37-15.9-11.53c-1.25-6.08,1.12-12.13,6.04-15.46c5.03-3.41,11.61-3.41,16.6-0.1c1.23,0.81,1.68,1.47,0.29,2.5
	c-0.38,0.28-0.72,0.63-1,1c-1.14,1.52-2.19,1.89-4.14,0.85c-3.79-2.02-8.61-0.26-10.88,3.53c-2.18,3.65-1.34,8.53,1.94,11.18
	c3.45,2.79,8.73,2.69,11.71-0.23c0.29-0.28,0.56-0.6,0.77-0.94c0.41-0.68,1.14-1.45,0.76-2.18c-0.36-0.67-1.35-0.22-2.06-0.29
	c-0.54-0.05-1.08-0.01-1.62-0.01c-4.13,0-4.56-0.57-3.92-4.76c0.16-1.01,0.74-0.96,1.42-0.96C32.04,38.05,33.93,38.05,35.82,38.05z"
	/>
<path class="st6" d="M83.21,50.8c-1.13,3.91-3.49,7.12-6.01,10.18c-1.08,1.31-1.11,2.07,0.18,3.24c3.1,2.8,6.03,5.79,9.08,8.64
	c0.82,0.76,1.17,1.22,0.15,2.19c-2.04,1.94-1.97,2.01-4.09,0.11c-2.91-2.61-5.73-5.33-8.27-8.3c-0.8-0.94-1.3-1.02-2.19-0.07
	c-1.23,1.32-2.4,2.73-3.97,3.7c-0.72-1.48-1.34-3-1.56-4.65c0.09-0.94,0.9-1.31,1.51-1.79c1.17-0.9,1.43-1.74,0.36-3.01
	c-1.69-2.01-3.22-4.15-4.5-6.46c-1.38-2.49-1.05-3.02,1.7-3.17c1.95-0.1,3.35,0.32,4.1,2.37c0.48,1.31,1.45,2.42,2.32,3.54
	c0.73,0.94,1.32,0.92,2.05-0.04c1.54-2.06,2.99-4.16,3.99-6.54c0.31-0.75,0.59-1.51,1.08-2.17c0.31-0.4,0.61-0.82,1.17-0.9
	C81.79,48.23,82.97,49.08,83.21,50.8z"/>
<path class="st1" d="M79.53,48.69c-1.43,3.44-3.21,6.67-5.56,9.6c-0.71,0.88-1.03,0.97-1.75,0.05c-1.3-1.65-2.55-3.32-3.49-5.2
	c-0.46-0.92-4.3-1.8-4.97-1.07c-0.5,0.55,0.02,1.14,0.27,1.64c1.29,2.62,2.96,5.02,4.92,7.15c1.25,1.37,1.14,2.19-0.23,3.19
	c-0.76,0.55-1.46,1.19-2.19,1.79c-2.14-5.75-3.89-11.62-5.69-17.47c-0.07-0.24,0.03-0.53,0.05-0.8c0.52-0.68,1.29-0.7,2.02-0.71
	c4.86-0.05,9.72-0.08,14.58,0.02C78.53,46.9,80.07,46.72,79.53,48.69z"/>
<path class="st6" d="M79.53,48.69c0.07-1.51-1.07-1.09-1.84-1.09c-5.6-0.03-11.2-0.02-16.79-0.03c-1.03-1-0.97-2.39-1.27-3.65
	c2.27-0.02,4.54-0.13,6.81-0.03c1.45,0.06,1.91-0.47,1.75-1.83c-0.08-0.73,0.08-1.48-0.03-2.2c-0.27-1.67,0.41-2.33,2.03-2.17
	c0.13,0.04,0.26,0.08,0.39,0.12c1.82,0.95,3.26,2.2,3.63,4.36c0.06,0.38,0.17,0.78,0.56,1c0.5,0.21,1.03,0.35,1.51,0.62l-0.03,0.11
	c1.95,0.73,3.52,1.84,4.07,3.99C80.05,48.15,79.79,48.42,79.53,48.69z"/>
<path class="st7" d="M80.3,47.89c-1.17-1.52-2.53-2.85-4.07-3.99c4.93-0.02,9.86,0.01,14.79-0.08c1.45-0.03,1.46,0.75,1.44,1.79
	c-0.02,1.04,0.15,2.09-1.47,1.96c-1.21-0.09-2.43-0.03-3.65-0.02c-3.72,0.05-2.93-0.45-3.81,3.14c-0.11,0.03-0.22,0.07-0.32,0.1
	C82.4,49.68,81.44,48.69,80.3,47.89z"/>
<path class="st8" d="M74.26,43.81c-0.2-2.64-2.01-4.27-3.7-5.99c3.41-0.18,3.41-0.18,3.72,4C74.6,42.48,74.83,43.15,74.26,43.81z"/>
<path class="st9" d="M74.26,43.81c0.01-0.66,0.02-1.33,0.03-1.99c0.77,0.54,1.43,1.2,1.97,1.98C75.6,43.8,74.93,43.8,74.26,43.81z"
	/>
</svg>
