<?xml version="1.0" encoding="utf-8"?>
<!-- Generator: Adobe Illustrator 24.0.0, SVG Export Plug-In . SVG Version: 6.00 Build 0)  -->
<svg version="1.1" id="Layer_2" xmlns="http://www.w3.org/2000/svg" xmlns:xlink="http://www.w3.org/1999/xlink" x="0px" y="0px"
	 viewBox="0 0 100 100" style="enable-background:new 0 0 100 100;" xml:space="preserve">
<style type="text/css">
	.st0{fill-rule:evenodd;clip-rule:evenodd;fill:#FFFFFF;}
	.st1{fill-rule:evenodd;clip-rule:evenodd;fill:#DD8E2C;}
</style>
<polygon class="st0" points="88.54,23.44 88.54,83.18 9.64,83.18 9.64,5.75 75.12,5.75 "/>
<path class="st1" d="M36.1,65.83c2.66-2.39,5.2-4.68,7.74-6.97c2.86-2.57,5.71-5.18,8.61-7.71c5.18-4.53,10.44-8.98,15.59-13.55
	c3.69-3.26,7.35-6.55,10.86-10c2.9-2.85,2.75-6.53,1.87-10.12c-1.23-5.01-5.77-6.85-9.54-6.88c-17.6-0.14-35.19-0.06-52.79-0.09
	c-1.27,0-1.75,0.32-1.63,1.7c0.22,2.37,0.01,4.8,0.38,7.14c0.65,4.04,2.98,5.9,7.24,5.96c6,0.07,12.01,0.03,18.02,0.03
	c4.71,0,9.42,0,14.59,0c-0.71,0.75-1.09,1.21-1.53,1.6c-8.3,7.44-16.6,14.88-24.93,22.29c-4.89,4.36-9.83,8.67-14.76,12.98
	c-5.03,4.39-5.83,10.79-1.58,16c2.03,2.48,5.3,2.78,8.34,2.91c3.11,0.14,6.22,0.04,9.33,0.04c18.09,0.01,36.18,0.02,54.27,0
	c1.46,0,2.53,0.26,3.23,1.76c2.22,4.77,4.57,9.47,6.87,14.21C96.5,97.56,96.63,98.02,97,99c-3.66-1.47-6.87-2.78-10.1-4.06
	c-4.55-1.81-9.1-3.63-13.69-5.36c-0.75-0.28-1.67-0.15-2.52-0.15c-17.24,0-34.49-0.11-51.73,0.04C10.6,89.55,2.79,81.64,2.91,73.45
	C3.17,54.94,3.2,36.42,2.89,17.91C2.73,8.6,10.61,1.21,18.32,1.36c1.9,0.04,3.81-0.2,5.71-0.2c15.4-0.02,30.81-0.05,46.22,0.01
	c4.11,0.01,8.15,0.43,11.6,3.14c3.86,3.01,6.6,6.71,6.64,11.7c0.12,15.83,0,31.66,0.08,47.48c0.01,2.14-0.93,2.39-2.68,2.38
	c-14.35-0.05-28.69-0.03-43.04-0.03C40.69,65.83,38.53,65.83,36.1,65.83z"/>
</svg>
