<?xml version="1.0" encoding="UTF-8" standalone="no"?>
<!-- Generator: Adobe Illustrator 15.0.0, SVG Export Plug-In . SVG Version: 6.00 Build 0)  -->

<svg
   xmlns:dc="http://purl.org/dc/elements/1.1/"
   xmlns:cc="http://creativecommons.org/ns#"
   xmlns:rdf="http://www.w3.org/1999/02/22-rdf-syntax-ns#"
   xmlns:svg="http://www.w3.org/2000/svg"
   xmlns="http://www.w3.org/2000/svg"
   xmlns:sodipodi="http://sodipodi.sourceforge.net/DTD/sodipodi-0.dtd"
   xmlns:inkscape="http://www.inkscape.org/namespaces/inkscape"
   version="1.1"
   id="Capa_1"
   x="0px"
   y="0px"
   width="487.79401"
   height="222.28799"
   viewBox="0 132.959 487.79399 222.288"
   enable-background="new 0 132.959 550.801 284.882"
   xml:space="preserve"
   inkscape:version="0.91 r13725"
   sodipodi:docname="aac-logo.svg"><metadata
   id="metadata4227"><rdf:RDF><cc:Work
       rdf:about=""><dc:format>image/svg+xml</dc:format><dc:type
         rdf:resource="http://purl.org/dc/dcmitype/StillImage" /><dc:title></dc:title></cc:Work></rdf:RDF></metadata><defs
   id="defs4225" /><sodipodi:namedview
   pagecolor="#ffffff"
   bordercolor="#666666"
   borderopacity="1"
   objecttolerance="10"
   gridtolerance="10"
   guidetolerance="10"
   inkscape:pageopacity="0"
   inkscape:pageshadow="2"
   inkscape:window-width="1106"
   inkscape:window-height="710"
   id="namedview4223"
   showgrid="false"
   fit-margin-top="0"
   fit-margin-left="0"
   fit-margin-right="0"
   fit-margin-bottom="0"
   inkscape:zoom="1.1292644"
   inkscape:cx="243.89651"
   inkscape:cy="114.19301"
   inkscape:window-x="-4"
   inkscape:window-y="-4"
   inkscape:window-maximized="1"
   inkscape:current-layer="Capa_1" />
<g
   id="g4215"
   transform="translate(-31.504,-34.346)">
	<path
   d="m 160.376,251.061 c -2.618,-8.754 -5.244,-19.687 -7.44,-28.427 l -0.438,0 c -2.181,8.741 -4.364,19.895 -6.776,28.427 l -8.738,31.26 32.574,0 -9.182,-31.26 z"
   id="path4217"
   inkscape:connector-curvature="0" />
	<path
   d="m 475.2,389.593 13.227,0 c 17.044,0 30.871,-13.827 30.871,-30.87 l 0,-160.542 C 519.297,181.129 505.47,167.31 488.426,167.31 l -13.227,0 -399.6,-0.005 -13.222,0 c -17.049,0 -30.873,13.818 -30.873,30.87 l 0,160.542 c 0,17.044 13.824,30.876 30.873,30.876 l 13.224,0 399.599,0 z m -110.13,-44.508 -35.85,0 -11.374,-37.831 -42.209,0 -10.491,37.831 -34.56,0 45.059,-147.374 43.746,0 45.679,147.374 z m -277.945,0 45.041,-147.374 43.734,0 45.716,147.374 -35.879,0 -11.361,-37.831 -42.211,0 -10.486,37.831 -34.554,0 z M 482.52,228.318 c -6.781,-2.835 -16.173,-5.464 -27.98,-5.464 -26.457,0 -47.027,15.958 -47.027,48.755 0,29.521 17.502,48.104 47.25,48.104 10.046,0 21.199,-2.184 27.759,-4.813 l 5.026,26.019 c -6.112,3.069 -19.897,6.351 -37.821,6.351 -50.947,0 -77.203,-31.705 -77.203,-73.688 0,-50.295 35.875,-78.289 80.488,-78.289 17.266,0 30.396,3.499 36.303,6.571 l -6.795,26.454 z"
   id="path4219"
   inkscape:connector-curvature="0" />
	<path
   d="m 303.846,251.061 c -2.616,-8.754 -5.242,-19.687 -7.436,-28.427 l -0.443,0 c -2.178,8.741 -4.366,19.895 -6.781,28.427 l -8.732,31.26 32.578,0 -9.186,-31.26 z"
   id="path4221"
   inkscape:connector-curvature="0" />
</g>
</svg>