<?xml version="1.0" encoding="utf-8"?>
<!-- Generator: Adobe Illustrator 15.0.0, SVG Export Plug-In . SVG Version: 6.00 Build 0)  -->
<!DOCTYPE svg PUBLIC "-//W3C//DTD SVG 1.1//EN" "http://www.w3.org/Graphics/SVG/1.1/DTD/svg11.dtd">
<svg version="1.1" id="Layer_1" xmlns:sketch="http://www.bohemiancoding.com/sketch/ns"
	 xmlns="http://www.w3.org/2000/svg" xmlns:xlink="http://www.w3.org/1999/xlink" x="0px" y="0px" width="1351.561px"
	 height="240.035px" viewBox="-276.78 -0.018 1351.561 240.035" enable-background="new -276.78 -0.018 1351.561 240.035"
	 xml:space="preserve">
<title>Slice 1</title>
<description>Created with Sketch (http://www.bohemiancoding.com/sketch)</description>
<path d="M797.683,99.975c9.563,0,17.455,4.903,20.82,11.51v-7.245c0-1.427,1.158-2.467,2.451-2.467h7.631
	c1.293,0,2.326,1.04,2.326,2.467v56.224c0,1.293-1.033,2.334-2.326,2.334h-7.631c-1.293,0-2.451-1.041-2.451-2.334V153.1
	c-3.5,6.59-11.258,11.375-20.945,11.375c-16.414,0-30.643-13.063-30.643-32.313C766.915,113.029,781.144,99.975,797.683,99.975
	 M799.111,153.1c11.25,0,19.52-9.311,19.52-20.805c0-11.643-8.27-20.692-19.52-20.692c-11.375,0-19.52,9.05-19.52,20.692
	C779.591,143.789,787.736,153.1,799.111,153.1"/>
<path d="M879.529,100.101c16.412,0,30.373,13.055,30.373,32.062c0,19.25-13.826,32.313-30.508,32.313
	c-8.916,0-17.186-4.271-21.064-10.988v34.127c0,1.285-1.033,2.326-2.324,2.326h-7.758c-1.293,0-2.326-1.041-2.326-2.326v-83.374
	c0-1.427,1.033-2.467,2.326-2.467h7.623c1.293,0,2.326,1.04,2.326,2.467v7.245C861.948,104.878,869.831,100.101,879.529,100.101
	 M877.849,153.1c11.242,0,19.385-9.176,19.385-20.805c0-11.508-8.143-20.692-19.385-20.692c-11.375,0-19.652,9.185-19.652,20.692
	C858.197,143.924,866.474,153.1,877.849,153.1"/>
<path d="M924.911,112.257h-9.049c-1.168,0-2.199-1.175-2.199-2.468v-5.558c0-1.419,1.031-2.459,2.199-2.459h9.049V83.294
	c0-1.427,1.033-2.46,2.461-2.46h7.623c1.285,0,2.316,1.033,2.316,2.46v18.479h18.756c1.293,0,2.324,1.04,2.324,2.459v5.558
	c0,1.293-1.031,2.468-2.324,2.468h-18.756v30.634c0,6.717,4.273,9.563,8.539,9.563c1.947,0,4.271-0.512,6.725-1.939
	c1.686-1.033,3.232-1.033,4.271,0.387l2.713,4.266c0.898,1.301,0.646,2.711-0.395,3.625c-3.611,3.225-9.043,5.037-15.381,5.037
	c-9.436,0-18.873-5.297-18.873-18.486V112.257z"/>
<path d="M973.134,162.797h-9.957c-1.939,0-2.324-1.68-1.553-2.846l30.643-43.437l-28.174-41.372
	c-0.781-1.151,0.125-2.838,1.678-2.838h9.563c1.68,0,2.586,0.914,3.359,1.938l22.49,32.708l22.365-32.708
	c0.646-1.024,1.68-1.938,3.357-1.938h9.438c1.813,0,2.326,1.687,1.434,2.838l-28.576,40.85l30.643,43.958
	c0.898,1.166,0.26,2.846-1.428,2.846h-10.477c-1.678,0-2.578-0.906-3.357-2.074l-24.037-34.514l-23.791,34.648
	C975.98,162.016,974.948,162.797,973.134,162.797"/>
<path d="M1042.146,71.736c0-0.299,0.252-0.606,0.551-0.606h12.818c0.26,0,0.561,0.308,0.561,0.606v1.198
	c0,0.348-0.301,0.607-0.561,0.607h-5.068v11.785c0,0.348-0.252,0.607-0.561,0.607h-1.553c-0.34,0-0.646-0.26-0.646-0.607V73.542
	h-4.99c-0.299,0-0.551-0.26-0.551-0.607V71.736z M1066.63,79.651l3.824-7.915c0.166-0.347,0.465-0.606,0.82-0.606h2.924
	c0.299,0,0.6,0.308,0.6,0.606v13.639c0,0.3-0.301,0.56-0.6,0.56h-1.6c-0.301,0-0.553-0.26-0.553-0.607v-11.1l-3.957,8.002
	c-0.182,0.394-0.48,0.56-0.82,0.56h-1.418c-0.348,0-0.654-0.166-0.813-0.56l-3.918-8.002v11.1c0,0.348-0.309,0.607-0.607,0.607
	h-1.545c-0.299,0-0.6-0.26-0.6-0.56V71.736c0-0.299,0.301-0.606,0.6-0.606h3.012c0.346,0,0.686,0.26,0.859,0.606L1066.63,79.651z"/>
<path d="M142.312,178.098l-6.851,0.016c-1.939,0-2.972-0.898-3.5-2.316l-5.574-14.475c-5.171,1.939-10.721,2.98-16.539,2.996
	c-25.857,0.031-46.567-19.977-46.598-46.875c-0.032-26.881,20.63-46.937,46.472-46.968c25.857-0.048,46.693,19.968,46.732,46.859
	c0.016,16.152-7.465,29.734-18.959,38.154l7.261,18.873C145.671,176.813,144.252,178.098,142.312,178.098 M109.833,152.557
	c4.391-0.016,8.53-0.789,12.274-2.217l-7.781-20.164c-0.906-2.445,0.646-3.746,2.586-3.746l6.464-0.008
	c2.326-0.008,3.358,1.16,3.871,2.453l5.582,14.473c6.456-6.338,10.193-15.529,10.177-25.998
	c-0.024-19.906-13.875-35.144-33.26-35.113c-19.385,0.016-33.205,15.286-33.181,35.191C76.589,137.342,90.44,152.58,109.833,152.557
	"/>
<path d="M180.026,135.914c0.016,10.729,5.708,17.707,16.697,17.682c10.729,0,17.186-7.379,17.162-17.596l-0.032-32.194
	c-0.008-1.284,1.167-2.317,2.326-2.317l7.623-0.008c1.301,0,2.459,1.024,2.459,2.451l0.063,56.225
	c0.008,1.293-1.151,2.332-2.444,2.332l-7.631,0.008c-1.159,0.008-2.326-0.906-2.333-2.199l-0.008-6.842
	c-3.737,6.338-10.453,10.744-20.662,10.752c-15.9,0.016-25.605-10.438-25.628-26.078l-0.047-34.252c0-1.293,1.167-2.333,2.459-2.333
	l7.615-0.009c1.301,0,2.333,1.025,2.333,2.326L180.026,135.914z"/>
<path d="M268.414,99.612c9.563-0.016,17.454,4.888,20.827,11.478l-0.008-7.236c-0.008-1.419,1.151-2.46,2.444-2.46l7.63-0.016
	c1.285,0,2.326,1.041,2.334,2.46l0.063,56.23c0.008,1.293-1.023,2.326-2.316,2.326l-7.631,0.016c-1.293,0-2.46-1.033-2.46-2.334
	l-0.008-7.363c-3.484,6.6-11.226,11.393-20.922,11.4c-16.421,0.016-30.666-13.008-30.69-32.283
	C237.661,112.698,251.866,99.628,268.414,99.612 M269.896,152.736c11.25-0.016,19.511-9.324,19.496-20.834
	c-0.016-11.636-8.301-20.67-19.543-20.662c-11.383,0.023-19.511,9.073-19.495,20.709
	C250.361,143.459,258.52,152.746,269.896,152.736"/>
<path d="M316.566,147.377l-0.088-73.031c0-1.293,1.152-2.451,2.443-2.467h7.633c1.418,0,2.332,1.158,2.332,2.451l0.088,71.1
	c0.008,4.004,2.072,6.449,6.471,6.449h3.232c1.293,0,2.453,0.771,2.461,2.316v5.439c0.008,2.066-1.672,2.713-2.973,2.713h-6.322
	C322.146,162.363,316.573,157.334,316.566,147.377"/>
<path d="M376.833,163.979c-17.975,0.023-32.086-13.787-32.102-32.148c-0.023-18.359,14.049-32.328,32.021-32.352
	c12.148-0.024,22.365,6.046,27.293,15.088c0.906,1.68,0.135,3.106-1.025,3.887l-4.785,3.105c-1.805,1.158-3.225,0.646-4.264-0.771
	c-4.139-6.196-9.445-9.697-17.076-9.682c-11.502,0.017-19.512,9.208-19.496,20.709c0.018,11.502,8.041,20.678,19.543,20.662
	c7.631-0.016,12.93-3.508,17.061-9.711c1.033-1.436,2.586-2.082,4.264-0.916l4.785,3.217c1.16,0.789,1.947,2.199,1.041,3.887
	C399.191,158.012,388.982,163.971,376.833,163.979"/>
<path d="M443.47,99.518c17.84-0.016,32.078,13.922,32.102,32.148c0.016,18.359-14.182,32.211-32.021,32.227
	c-17.84,0.031-32.078-13.781-32.102-32.141C411.433,113.519,425.63,99.541,443.47,99.518 M443.534,152.391
	c11.375-0.016,19.502-9.199,19.494-20.709c-0.016-11.636-8.166-20.678-19.543-20.654c-11.375,0.008-19.51,9.073-19.494,20.701
	C424.007,143.238,432.157,152.398,443.534,152.391"/>
<path d="M499.404,159.951c0,1.293-1.168,2.191-2.326,2.207h-7.758c-1.293,0-2.326-1.025-2.326-2.318l-0.07-56.239
	c0-1.419,1.033-2.459,2.318-2.459l7.756-0.008c1.168,0,2.326,1.032,2.326,2.325l0.008,6.591
	c3.492-6.086,11.234-10.611,20.293-10.627c9.947-0.008,17.318,5.021,20.693,12.377c5.162-8.664,13.559-12.424,22.602-12.44
	c17.066-0.016,25.619,11.873,25.637,26.086l0.039,34.395c0.008,1.293-1.168,2.199-2.453,2.199l-7.504,0.008
	c-1.293,0-2.451-0.898-2.451-2.191l-0.041-31.674c-0.008-9.949-5.061-17.438-15.664-17.438
	c-10.477,0.016-16.539,7.521-16.523,17.485l0.041,31.658c0,1.293-1.16,2.199-2.326,2.199l-7.623,0.018
	c-1.168,0-2.467-0.908-2.467-2.201l-0.041-31.674c-0.008-9.941-5.061-17.438-15.529-17.422c-10.596,0-16.666,7.52-16.65,17.469
	L499.404,159.951z"/>
<path d="M615.374,159.793c0,1.293-1.166,2.207-2.326,2.207l-7.748,0.008c-1.293,0-2.326-1.033-2.334-2.326l-0.063-56.223
	c-0.01-1.427,1.023-2.459,2.316-2.459l7.758-0.017c1.158,0,2.318,1.041,2.318,2.334l0.008,6.59
	c3.492-6.085,11.24-10.618,20.291-10.626c9.949-0.016,17.32,5.014,20.693,12.377c5.164-8.664,13.559-12.425,22.617-12.44
	c17.051-0.016,25.605,11.872,25.621,26.085l0.039,34.395c0,1.285-1.158,2.193-2.443,2.193l-7.506,0.008
	c-1.301,0-2.459-0.908-2.459-2.201l-0.039-31.666c-0.008-9.957-5.061-17.445-15.664-17.43c-10.469,0.016-16.539,7.52-16.523,17.469
	l0.039,31.676c0,1.293-1.158,2.199-2.326,2.199l-7.623,0.016c-1.166,0-2.459-0.906-2.459-2.199l-0.047-31.676
	c-0.008-9.949-5.063-17.438-15.531-17.422c-10.594,0-16.656,7.514-16.648,17.469L615.374,159.793z"/>
<path d="M726.915,90.026c-0.008-2.303-1.672-4.392-4.943-4.392l-4.84,0.008c-0.197,0-0.426,0.205-0.426,0.441l0.016,12.551
	c0,0.236,0.236,0.434,0.426,0.434h1.506c0.189,0,0.426-0.197,0.426-0.434v-4.202h2.529l2.422,4.171
	c0.164,0.283,0.369,0.449,0.74,0.449h1.615c0.285,0,0.426-0.261,0.285-0.513l-2.648-4.454
	C725.945,93.393,726.915,91.776,726.915,90.026 M721.98,92.446l-2.908,0.008l-0.008-4.833h2.908c1.49,0,2.523,0.907,2.531,2.381
	C724.503,91.477,723.47,92.415,721.98,92.446"/>
<path d="M721.097,80.393c-6.678,0.016-11.998,5.132-11.99,11.928c0.008,6.764,5.346,11.864,12.021,11.864
	c6.678,0,11.975-5.124,11.959-11.896C733.072,85.501,727.775,80.393,721.097,80.393 M721.128,102.442
	c-5.605,0.008-10.051-4.336-10.059-10.122c-0.008-5.826,4.43-10.17,10.035-10.178c5.605-0.016,10.02,4.336,10.02,10.153
	C731.132,98.083,726.734,102.435,721.128,102.442"/>
<g>
	<path id="Shape_5_" sketch:type="MSShapeGroup" d="M-276.78-0.018h240.307v240.035H-276.78V-0.018z"/>
	<path id="Shape_4_" sketch:type="MSShapeGroup" fill="#FFFFFF" d="M-80.203,205.246c-25.902-31.082-48.171-55.551-70.757-75.535
		c-16.808,18.732-32.618,37.463-45.042,56.523c-11.357,17.467-30.849,8.113-33.99,1.943c-3.141-6.17-4.957-22.854,13.878-34.877
		c15.154-9.682,31.024-22.244,48.604-37.345c-17.632-13.795-36.74-25.598-56.974-35.193c-23.534-11.228-19.925-28.155-15.6-34.173
		c4.324-6.018,26.863-8.465,44.538,6.403c16.839,14.276,32.944,29.394,48.254,45.296c17.463-15.583,36.662-33.214,58.415-52.684
		c9.106-8.195,14.908-2.973,5.696,8.406c-15.671,19.387-33.661,38.564-51.383,57.775c25.984,28.391,49.941,59.426,64.803,87.617
		C-62.329,213.629-71.4,215.818-80.203,205.246L-80.203,205.246z"/>
</g>
</svg>
