<?xml version="1.0" encoding="utf-8"?>
<!-- Generator: Adobe Illustrator 15.0.0, SVG Export Plug-In . SVG Version: 6.00 Build 0)  -->
<!DOCTYPE svg PUBLIC "-//W3C//DTD SVG 1.1//EN" "http://www.w3.org/Graphics/SVG/1.1/DTD/svg11.dtd">
<svg version="1.1" id="Layer_1" xmlns:sketch="http://www.bohemiancoding.com/sketch/ns"
	 xmlns="http://www.w3.org/2000/svg" xmlns:xlink="http://www.w3.org/1999/xlink" x="0px" y="0px" width="1206.697px"
	 height="240.035px" viewBox="0 0 1206.697 240.035" enable-background="new 0 0 1206.697 240.035" xml:space="preserve">
<title>Slice 1</title>
<description>Created with Sketch (http://www.bohemiancoding.com/sketch)</description>
<g>
	<g>
		<path id="Shape_4_" sketch:type="MSShapeGroup" d="M0,0h214.502v214.26H0V0z"/>
		<path id="Shape_3_" sketch:type="MSShapeGroup" fill="#FFFFFF" d="M175.468,183.223c-23.118-27.744-42.998-49.586-63.16-67.425
			c-15.004,16.722-29.115,33.44-40.205,50.454c-10.136,15.591-27.537,7.242-30.34,1.734s-4.424-20.4,12.39-31.133
			c13.524-8.645,27.69-19.854,43.384-33.333C81.797,91.205,64.742,80.669,46.679,72.105C25.673,62.082,28.893,46.973,32.754,41.601
			c3.859-5.372,23.978-7.556,39.755,5.715c15.032,12.743,29.406,26.238,43.072,40.433c15.589-13.908,32.726-29.647,52.144-47.026
			c8.127-7.315,13.306-2.654,5.082,7.502c-13.987,17.307-30.045,34.423-45.864,51.57c23.191,25.344,44.576,53.045,57.844,78.209
			C191.422,190.705,183.325,192.659,175.468,183.223L175.468,183.223z"/>
	</g>
	<path d="M959.417,26.169c8.535,0,15.572,4.388,18.57,10.274v-6.462c0-1.275,1.045-2.187,2.194-2.187h6.806
		c1.147,0,2.073,0.911,2.073,2.187v50.18c0,1.149-0.926,2.074-2.073,2.074h-6.806c-1.149,0-2.194-0.925-2.194-2.074v-6.573
		c-3.117,5.887-10.027,10.147-18.689,10.147c-14.647,0-27.334-11.647-27.334-28.832C931.97,37.817,944.649,26.169,959.417,26.169
		 M960.692,73.573c10.021,0,17.414-8.313,17.414-18.571c0-10.373-7.38-18.446-17.414-18.446c-10.162,0-17.424,8.073-17.424,18.446
		C943.267,65.262,950.53,73.573,960.692,73.573"/>
	<path d="M1032.45,26.281c14.646,0,27.102,11.648,27.102,28.608c0,17.185-12.342,28.832-27.221,28.832
		c-7.955,0-15.342-3.799-18.797-9.798v30.458c0,1.149-0.926,2.075-2.074,2.075h-6.924c-1.156,0-2.074-0.926-2.074-2.075V29.968
		c0-1.262,0.918-2.187,2.074-2.187h6.791c1.156,0,2.088,0.925,2.088,2.187v6.462C1016.751,30.557,1023.794,26.281,1032.45,26.281
		 M1030.95,73.573c10.021,0,17.303-8.186,17.303-18.571c0-10.261-7.281-18.446-17.303-18.446c-10.156,0-17.527,8.199-17.527,18.446
		C1013.415,65.388,1020.794,73.573,1030.95,73.573"/>
	<path d="M1072.944,37.116h-8.074c-1.037,0-1.955-1.023-1.955-2.187v-4.962c0-1.262,0.926-2.187,1.955-2.187h8.074V11.283
		c0-1.275,0.924-2.187,2.192-2.187h6.806c1.155,0,2.073,0.911,2.073,2.187v16.498h16.729c1.156,0,2.074,0.925,2.074,2.187v4.962
		c0,1.163-0.918,2.187-2.074,2.187h-16.729v27.36c0,5.999,3.8,8.522,7.619,8.522c1.73,0,3.806-0.448,5.998-1.738
		c1.5-0.925,2.881-0.925,3.808,0.364l2.432,3.785c0.791,1.163,0.566,2.438-0.356,3.237c-3.23,2.888-8.074,4.499-13.724,4.499
		c-8.432,0-16.848-4.724-16.848-16.497V37.116L1072.944,37.116z"/>
	<path d="M1115.974,82.235h-8.881c-1.723,0-2.073-1.499-1.381-2.551l27.34-38.742l-25.145-36.919
		c-0.695-1.038,0.119-2.537,1.498-2.537h8.537c1.5,0,2.313,0.813,3,1.737l20.069,29.169l19.962-29.169
		c0.573-0.925,1.5-1.737,3-1.737h8.416c1.61,0,2.073,1.499,1.27,2.537l-25.498,36.442l27.34,39.219
		c0.807,1.052,0.232,2.551-1.268,2.551h-9.351c-1.5,0-2.299-0.813-3-1.863l-21.45-30.795l-21.224,30.921
		C1118.517,81.535,1117.594,82.235,1115.974,82.235"/>
	<path d="M1177.549,0.968c0-0.267,0.238-0.533,0.504-0.533h11.438c0.238,0,0.506,0.267,0.506,0.533v1.079
		c0,0.294-0.268,0.532-0.506,0.532h-4.527v10.526c0,0.295-0.229,0.533-0.496,0.533h-1.381c-0.309,0-0.582-0.238-0.582-0.533V2.579
		h-4.442c-0.267,0-0.504-0.238-0.504-0.532V0.968H1177.549z M1199.401,8.032l3.42-7.064c0.147-0.309,0.428-0.533,0.735-0.533h2.607
		c0.266,0,0.533,0.267,0.533,0.533v12.166c0,0.267-0.268,0.49-0.533,0.49h-1.416c-0.272,0-0.504-0.224-0.504-0.519V3.196
		l-3.525,7.134c-0.153,0.351-0.428,0.505-0.735,0.505h-1.275c-0.295,0-0.574-0.154-0.729-0.505l-3.49-7.134v9.909
		c0,0.295-0.267,0.519-0.533,0.519h-1.387c-0.26,0-0.525-0.224-0.525-0.49V0.968c0-0.267,0.259-0.533,0.525-0.533h2.69
		c0.308,0,0.615,0.225,0.771,0.533L1199.401,8.032z"/>
	<path d="M362.959,211.891c0,1.148-1.037,2.2-2.187,2.2h-49.374c-1.156,0-2.074-1.052-2.074-2.2v-76.363
		c0-1.163,0.918-2.2,2.074-2.2h7.154c1.263,0,2.3,1.037,2.3,2.2v67.938h39.92c1.148,0,2.187,1.037,2.187,2.2V211.891
		L362.959,211.891z"/>
	<path d="M395.26,158.136c15.916,0,28.608,12.462,28.608,28.722c0,16.385-12.692,28.72-28.608,28.72s-28.601-12.335-28.601-28.72
		C366.666,170.598,379.352,158.136,395.26,158.136 M395.26,205.314c10.155,0,17.424-8.198,17.424-18.459
		c0-10.373-7.269-18.445-17.424-18.445c-10.154,0-17.415,8.072-17.415,18.445C377.852,197.116,385.105,205.314,395.26,205.314"/>
	<path d="M455.72,214.091h-8.642c-1.275,0-2.432-0.926-2.774-2.075l-16.842-49.729c-0.574-1.612,0.344-2.649,1.844-2.649h7.618
		c1.38,0,2.188,0.799,2.537,1.963l12.334,41.182l14.313-41.069c0.462-1.388,1.148-2.073,2.418-2.073h8.191
		c1.27,0,2.081,0.687,2.537,2.073l14.305,41.069l12.572-41.182c0.344-1.037,1.044-1.963,2.544-1.963h6.917
		c1.382,0,2.307,1.037,1.731,2.649l-16.841,49.729c-0.352,1.149-1.5,2.075-2.881,2.075h-8.432c-1.374,0-2.418-0.926-2.769-2.075
		l-13.954-40.031l-13.953,40.031C458.146,213.165,456.996,214.091,455.72,214.091"/>
	<path d="M607.436,211.891c0,1.148-1.037,2.2-2.193,2.2H555.87c-1.143,0-2.075-1.052-2.075-2.2v-76.363c0-1.163,0.934-2.2,2.075-2.2
		h7.155c1.274,0,2.306,1.037,2.306,2.2v67.938h39.919c1.148,0,2.187,1.037,2.187,2.2V211.891L607.436,211.891z"/>
	<path d="M638.589,158.023c8.537,0,15.572,4.388,18.572,10.273v-6.462c0-1.261,1.045-2.187,2.188-2.187h6.811
		c1.15,0,2.076,0.926,2.076,2.187v50.181c0,1.148-0.926,2.074-2.076,2.074h-6.811c-1.144,0-2.188-0.926-2.188-2.074v-6.574
		c-3.111,5.888-10.035,10.147-18.684,10.147c-14.648,0-27.341-11.647-27.341-28.846
		C611.136,169.672,623.829,158.023,638.589,158.023 M639.858,205.428c10.034,0,17.414-8.298,17.414-18.57
		c0-10.373-7.38-18.446-17.414-18.446c-10.156,0-17.416,8.073-17.416,18.446C622.442,197.13,629.702,205.428,639.858,205.428"/>
	<path d="M685.895,168.984h-8.074c-1.037,0-1.955-1.037-1.955-2.2v-4.962c0-1.262,0.918-2.188,1.955-2.188h8.074v-16.498
		c0-1.261,0.926-2.187,2.2-2.187h6.798c1.155,0,2.073,0.926,2.073,2.187v16.498h16.73c1.156,0,2.074,0.926,2.074,2.188v4.962
		c0,1.163-0.918,2.2-2.074,2.2h-16.73v27.332c0,6.014,3.813,8.537,7.619,8.537c1.726,0,3.799-0.463,5.998-1.726
		c1.5-0.925,2.881-0.925,3.799,0.337l2.433,3.813c0.799,1.149,0.575,2.426-0.351,3.225c-3.225,2.889-8.08,4.514-13.723,4.514
		c-8.424,0-16.848-4.736-16.848-16.498L685.895,168.984L685.895,168.984z"/>
	<path d="M776.344,185.482v2.074c0,1.148-0.582,2.187-2.2,2.187h-42.218c0.813,9.462,8.072,16.272,17.414,16.272
		c7.045,0,11.433-2.998,14.888-6.924c0.807-0.91,1.729-1.275,2.887-0.449l5.074,3.336c1.155,0.813,1.03,2.075,0.455,2.889
		c-4.611,6.224-12.343,10.723-23.525,10.723c-16.729,0-28.609-12.223-28.609-28.607c0-16.034,11.88-28.943,28.259-28.943
		C764.915,158.023,776.344,170.021,776.344,185.482 M748.885,167.247c-8.76,0-15.34,6.237-16.729,14.997h33.227
		C764.227,172.798,757.302,167.247,748.885,167.247"/>
	<path d="M828.149,184.669c0-10.161-5.535-16.385-15.349-16.385c-9.805,0-16.146,6.7-16.146,16.385v27.459
		c0,1.136-1.045,1.948-2.074,1.948h-6.932c-1.15,0-2.068-0.911-2.068-2.074v-50.18c0-1.262,0.918-2.188,2.068-2.188h6.932
		c1.029,0,2.074,0.926,2.074,2.074v5.999c3.11-5.424,10.028-9.573,19.146-9.573c14.527,0,23.422,9.91,23.422,23.646v30.346
		c0,1.137-1.051,1.948-2.192,1.948h-6.701c-1.148,0-2.186-0.813-2.186-1.948v-27.459L828.149,184.669L828.149,184.669z"/>
	<path d="M877.405,215.576c-16.021,0-28.594-12.335-28.594-28.721c0-16.371,12.571-28.847,28.594-28.847
		c10.848,0,19.959,5.438,24.346,13.513c0.814,1.5,0.119,2.762-0.924,3.447l-4.275,2.775c-1.61,1.037-2.873,0.574-3.799-0.701
		c-3.692-5.536-8.424-8.646-15.223-8.646c-10.273,0-17.422,8.198-17.422,18.459s7.147,18.445,17.422,18.445
		c6.799,0,11.529-3.111,15.223-8.634c0.927-1.29,2.308-1.864,3.799-0.813l4.275,2.889c1.043,0.687,1.738,1.947,0.924,3.447
		C897.364,210.277,888.253,215.576,877.405,215.576"/>
	<path d="M903.602,234.625c-0.808-0.813-1.031-2.201,0-3.462l2.655-3.351c1.269-1.5,2.761-1.149,3.916-0.238
		c2.195,1.738,4.381,2.775,7.269,2.775c4.282,0,7.155-3.111,8.537-6.574l3.813-9.686h-2.887c-1.39,0-2.076-0.701-2.545-1.851
		l-19.267-49.829c-0.573-1.389,0.119-2.775,1.955-2.775h7.961c1.271,0,1.963,1.037,2.308,2.074l15.916,43.256l16.035-43.256
		c0.35-1.037,1.036-2.074,2.536-2.074h7.38c1.618,0,2.307,1.262,1.729,2.775l-24.459,63.326
		c-3.111,8.187-8.871,14.298-18.803,14.298C911.794,240.035,906.944,237.961,903.602,234.625"/>
	<path d="M374.789,96.042l-6.111,0.015c-1.725,0-2.655-0.785-3.119-2.075l-4.976-12.909c-4.611,1.738-9.573,2.663-14.76,2.663
		c-23.071,0.042-41.552-17.829-41.58-41.825C304.215,17.928,322.647,0.028,345.718,0c23.072-0.042,41.665,17.815,41.693,41.812
		c0.021,14.424-6.651,26.548-16.919,34.047l6.482,16.848C377.788,94.893,376.526,96.042,374.789,96.042 M345.81,73.251
		c3.925-0.014,7.609-0.715,10.961-1.977l-6.952-17.997c-0.808-2.187,0.573-3.336,2.306-3.35h5.769c2.073,0,3,1.037,3.462,2.188
		l4.977,12.909c5.768-5.635,9.097-13.849,9.082-23.184c-0.021-17.773-12.384-31.355-29.68-31.341
		c-17.305,0.027-29.64,13.652-29.604,31.411C316.151,59.669,328.506,73.266,345.81,73.251"/>
	<path d="M408.443,58.394c0.015,9.588,5.096,15.797,14.906,15.797c9.573-0.014,15.327-6.602,15.313-15.699l-0.034-28.748
		c0-1.135,1.044-2.074,2.074-2.074h6.812c1.157,0,2.188,0.925,2.194,2.201l0.063,50.179c0.007,1.136-1.037,2.075-2.193,2.075h-6.805
		c-1.038,0.014-2.075-0.799-2.075-1.963l-0.014-6.097c-3.337,5.635-9.328,9.587-18.438,9.601
		c-14.192,0.015-22.854-9.32-22.876-23.281l-0.034-30.57c0-1.149,1.037-2.074,2.188-2.074l6.812-0.014
		c1.149,0,2.074,0.925,2.074,2.074L408.443,58.394z"/>
	<path d="M487.315,26.001c8.536-0.014,15.579,4.359,18.586,10.246l-0.007-6.447c-0.008-1.29,1.036-2.215,2.187-2.215h6.805
		c1.156,0,2.075,0.925,2.075,2.187l0.063,50.18c0.007,1.149-0.918,2.074-2.067,2.074l-6.805,0.015c-1.157,0-2.201-0.926-2.201-2.075
		l-0.007-6.573c-3.104,5.887-10.021,10.162-18.67,10.176c-14.654,0.014-27.354-11.605-27.375-28.804
		C459.877,37.691,472.548,26.015,487.315,26.001 M488.646,73.405c10.028-0.014,17.401-8.313,17.395-18.586
		c-0.014-10.372-7.407-18.446-17.443-18.432c-10.154,0.014-17.407,8.102-17.395,18.474
		C471.209,65.121,478.491,73.419,488.646,73.405"/>
	<path d="M530.289,68.626l-0.084-65.178c0-1.135,1.037-2.188,2.193-2.188l6.806-0.014c1.269,0,2.081,1.051,2.081,2.187l0.077,63.453
		c0,3.588,1.851,5.761,5.774,5.761h2.881c1.155,0,2.192,0.701,2.192,2.074l0.007,4.85c0,1.851-1.499,2.425-2.647,2.425h-5.656
		C535.265,81.997,530.296,77.513,530.289,68.626"/>
	<path d="M584.071,83.441c-16.035,0.014-28.622-12.307-28.645-28.692c-0.021-16.371,12.538-28.846,28.566-28.874
		c10.849-0.014,19.967,5.41,24.36,13.484c0.813,1.499,0.118,2.761-0.918,3.447l-4.268,2.775c-1.612,1.052-2.881,0.575-3.806-0.687
		c-3.7-5.522-8.432-8.648-15.236-8.634c-10.267,0.014-17.408,8.213-17.396,18.474c0.016,10.26,7.178,18.445,17.438,18.445
		c6.813-0.014,11.536-3.14,15.223-8.676c0.918-1.275,2.307-1.851,3.806-0.813l4.269,2.888c1.037,0.688,1.738,1.948,0.924,3.448
		C604.015,78.115,594.913,83.427,584.071,83.441"/>
	<path d="M643.538,25.917c15.914-0.028,28.613,12.419,28.635,28.678c0.021,16.386-12.649,28.748-28.565,28.763
		c-15.922,0.027-28.629-12.293-28.644-28.679C614.942,38.42,627.606,25.931,643.538,25.917 M643.592,73.097
		c10.148-0.014,17.402-8.214,17.396-18.474c-0.015-10.372-7.289-18.446-17.437-18.432c-10.155,0.014-17.416,8.102-17.401,18.487
		C626.157,64.925,633.438,73.111,643.592,73.097"/>
	<path d="M693.436,79.839c0,1.163-1.031,1.963-2.074,1.963l-6.924,0.014c-1.15,0-2.076-0.925-2.076-2.074l-0.063-50.18
		c0-1.262,0.927-2.201,2.074-2.201h6.924c1.039-0.014,2.076,0.911,2.076,2.061l0.006,5.901c3.111-5.438,10.029-9.489,18.104-9.489
		c8.879-0.014,15.459,4.471,18.473,11.045c4.605-7.737,12.098-11.087,20.17-11.102c15.23-0.014,22.849,10.597,22.875,23.282
		l0.035,30.683c0,1.135-1.037,1.948-2.193,1.948l-6.692,0.014c-1.148,0-2.187-0.799-2.187-1.948l-0.043-28.271
		c-0.014-8.887-4.52-15.572-13.975-15.559c-9.349,0.014-14.758,6.714-14.752,15.587l0.043,28.271
		c0.006,1.149-1.037,1.948-2.068,1.948l-6.813,0.014c-1.043,0-2.193-0.785-2.193-1.948l-0.035-28.258
		c-0.014-8.872-4.52-15.558-13.86-15.558c-9.461,0.014-14.88,6.714-14.865,15.6L693.436,79.839z"/>
	<path d="M796.934,79.713c0,1.149-1.037,1.962-2.074,1.962h-6.924c-1.148,0-2.068-0.911-2.082-2.074l-0.056-50.165
		c-0.008-1.276,0.918-2.201,2.074-2.201l6.916-0.014c1.037,0,2.074,0.925,2.082,2.074l0.008,5.887
		c3.111-5.424,10.021-9.475,18.094-9.475c8.896-0.015,15.47,4.471,18.482,11.045c4.604-7.737,12.096-11.087,20.17-11.102
		c15.229-0.014,22.861,10.583,22.875,23.282l0.035,30.682c0.014,1.149-1.037,1.949-2.193,1.949l-6.688,0.014
		c-1.156,0-2.199-0.799-2.199-1.963l-0.029-28.257c-0.014-8.887-4.532-15.572-13.975-15.559
		c-9.348,0.014-14.773,6.714-14.744,15.601l0.027,28.258c0,1.148-1.045,1.962-2.074,1.962l-6.805,0.014
		c-1.045,0-2.193-0.813-2.193-1.962l-0.029-28.258c-0.026-8.887-4.532-15.572-13.877-15.559
		c-9.461,0.015-14.871,6.714-14.862,15.587L796.934,79.713z"/>
	<path d="M896.46,17.451c0-2.061-1.492-3.925-4.414-3.925l-4.311,0.014c-0.185,0-0.388,0.168-0.388,0.379l0.017,11.228
		c0,0.196,0.194,0.378,0.385,0.378h1.346c0.168,0,0.38-0.182,0.38-0.393V21.39h2.25l2.163,3.715
		c0.148,0.266,0.339,0.406,0.675,0.406h1.43c0.252,0,0.379-0.225,0.252-0.463l-2.355-3.967
		C895.597,20.45,896.467,19.007,896.46,17.451 M892.051,19.609h-2.578l-0.014-4.317h2.586c1.338,0,2.256,0.813,2.265,2.131
		C894.315,18.727,893.397,19.581,892.051,19.609"/>
	<path d="M891.28,8.858c-5.963,0-10.707,4.569-10.701,10.639c0.008,6.027,4.766,10.597,10.723,10.583
		c5.957-0.015,10.683-4.569,10.675-10.61C901.962,13.4,897.237,8.845,891.28,8.858 M891.301,28.524
		c-4.996,0.014-8.971-3.869-8.977-9.027c0-5.2,3.951-9.082,8.955-9.082c5.004-0.015,8.942,3.868,8.951,9.055
		C900.231,24.642,896.304,28.524,891.301,28.524"/>
</g>
</svg>
