<?xml version="1.0" encoding="utf-8"?>
<!-- Generator: Adobe Illustrator 15.0.0, SVG Export Plug-In . SVG Version: 6.00 Build 0)  -->
<!DOCTYPE svg PUBLIC "-//W3C//DTD SVG 1.1//EN" "http://www.w3.org/Graphics/SVG/1.1/DTD/svg11.dtd">
<svg version="1.1" id="Layer_1" xmlns:sketch="http://www.bohemiancoding.com/sketch/ns"
	 xmlns="http://www.w3.org/2000/svg" xmlns:xlink="http://www.w3.org/1999/xlink" x="0px" y="0px" width="1551.748px"
	 height="240.035px" viewBox="0 0 1551.748 240.035" enable-background="new 0 0 1551.748 240.035" xml:space="preserve">
<title>Slice 1</title>
<description>Created with Sketch (http://www.bohemiancoding.com/sketch)</description>
<g>
	<path id="Shape_2_" sketch:type="MSShapeGroup" d="M0.002,0h240.307v240.035H0.002V0z"/>
	<path id="Shape_1_" sketch:type="MSShapeGroup" fill="#FFFFFF" d="M196.579,205.264c-25.9-31.082-48.171-55.551-70.757-75.535
		c-16.809,18.732-32.618,37.463-45.042,56.523c-11.356,17.467-30.85,8.113-33.99,1.943c-3.14-6.17-4.957-22.854,13.879-34.877
		c15.153-9.684,31.023-22.244,48.604-37.345c-17.633-13.796-36.74-25.599-56.975-35.193C28.764,69.551,32.372,52.625,36.697,46.606
		c4.323-6.018,26.862-8.465,44.538,6.403c16.839,14.276,32.943,29.394,48.254,45.296c17.463-15.582,36.662-33.214,58.415-52.684
		c9.105-8.195,14.907-2.973,5.695,8.406c-15.671,19.387-33.66,38.563-51.383,57.774c25.982,28.391,49.939,59.426,64.803,87.617
		C214.453,213.646,205.382,215.836,196.579,205.264L196.579,205.264z"/>
</g>
<path d="M1074.528,99.821c9.557,0,17.441,4.894,20.805,11.491v-7.245c0-1.421,1.168-2.446,2.461-2.446h7.617
	c1.295,0,2.328,1.025,2.328,2.446v56.24c0,1.295-1.033,2.32-2.328,2.32h-7.617c-1.293,0-2.461-1.025-2.461-2.32v-7.371
	c-3.496,6.599-11.256,11.381-20.947,11.381c-16.416,0-30.645-13.055-30.645-32.326
	C1043.748,112.875,1057.969,99.821,1074.528,99.821 M1075.948,152.938c11.24,0,19.518-9.299,19.518-20.806
	c0-11.617-8.277-20.693-19.518-20.693c-11.379,0-19.525,9.061-19.525,20.693C1056.422,143.623,1064.569,152.938,1075.948,152.938"/>
<path d="M1156.362,99.932c16.408,0,30.379,13.069,30.379,32.059c0,19.272-13.828,32.325-30.504,32.325
	c-8.918,0-17.197-4.262-21.064-10.984v34.126c0,1.294-1.035,2.336-2.328,2.336h-7.758c-1.295,0-2.32-1.042-2.32-2.336v-83.374
	c0-1.421,1.025-2.446,2.32-2.446h7.623c1.295,0,2.328,1.025,2.328,2.446v7.245C1138.778,104.715,1146.662,99.932,1156.362,99.932
	 M1154.682,152.938c11.244,0,19.383-9.172,19.383-20.806c0-11.507-8.146-20.693-19.383-20.693c-11.383,0-19.652,9.187-19.652,20.693
	C1135.03,143.766,1143.299,152.938,1154.682,152.938"/>
<path d="M1201.735,112.086h-9.029c-1.176,0-2.201-1.168-2.201-2.446v-5.572c0-1.405,1.033-2.446,2.201-2.446h9.029V83.137
	c0-1.42,1.035-2.462,2.471-2.462h7.615c1.295,0,2.328,1.042,2.328,2.462v18.484h18.744c1.287,0,2.328,1.041,2.328,2.446v5.572
	c0,1.278-1.041,2.446-2.328,2.446h-18.744v30.638c0,6.726,4.271,9.581,8.541,9.581c1.934,0,4.262-0.521,6.723-1.94
	c1.689-1.026,3.23-1.026,4.254,0.395l2.715,4.262c0.908,1.278,0.648,2.715-0.387,3.6c-3.613,3.252-9.043,5.052-15.389,5.052
	c-9.434,0-18.871-5.288-18.871-18.483V112.086z"/>
<path d="M1249.963,162.645h-9.943c-1.934,0-2.328-1.688-1.555-2.857l30.646-43.423l-28.186-41.371
	c-0.779-1.168,0.137-2.857,1.684-2.857h9.564c1.688,0,2.58,0.916,3.361,1.942l22.5,32.705l22.359-32.705
	c0.646-1.026,1.682-1.942,3.361-1.942h9.432c1.809,0,2.328,1.689,1.43,2.857l-28.578,40.851l30.646,43.943
	c0.906,1.169,0.26,2.857-1.422,2.857h-10.473c-1.682,0-2.59-0.916-3.363-2.067l-24.039-34.521l-23.785,34.631
	C1252.823,161.854,1251.787,162.645,1249.963,162.645"/>
<path d="M1318.975,71.583c0-0.316,0.26-0.616,0.561-0.616h12.816c0.26,0,0.561,0.3,0.561,0.616v1.199c0,0.332-0.301,0.6-0.561,0.6
	h-5.074v11.791c0,0.348-0.262,0.584-0.563,0.584h-1.537c-0.348,0-0.646-0.236-0.646-0.584V73.382h-4.988
	c-0.301,0-0.561-0.268-0.561-0.6v-1.199H1318.975z M1343.455,79.491l3.828-7.908c0.174-0.348,0.482-0.6,0.83-0.6h2.912
	c0.299,0,0.6,0.3,0.6,0.6v13.638c0,0.315-0.301,0.553-0.6,0.553h-1.58c-0.299,0-0.561-0.237-0.561-0.584V74.093l-3.963,7.986
	c-0.164,0.395-0.473,0.568-0.813,0.568h-1.42c-0.34,0-0.646-0.174-0.828-0.568l-3.9-7.986V85.19c0,0.347-0.307,0.584-0.605,0.584
	h-1.557c-0.299,0-0.6-0.237-0.6-0.553V71.583c0-0.316,0.301-0.616,0.6-0.616h3.016c0.348,0,0.688,0.269,0.867,0.616L1343.455,79.491
	z"/>
<path d="M1451.547,160.182c0,1.295-1.168,2.446-2.471,2.446h-8.002c-1.428,0-2.463-1.151-2.463-2.446V122.82h-51.189v37.361
	c0,1.295-1.168,2.446-2.461,2.446h-8.146c-1.285,0-2.32-1.151-2.32-2.446V74.598c0-1.294,1.035-2.463,2.32-2.463h8.146
	c1.293,0,2.461,1.169,2.461,2.463v36.589h51.189V74.598c0-1.294,1.035-2.463,2.463-2.463h8.002c1.303,0,2.471,1.169,2.471,2.463
	V160.182z"/>
<path d="M1551.748,117.39c0,26.896-17.449,45.254-47.432,45.254h-30.504c-1.303,0-2.328-1.168-2.328-2.463V74.598
	c0-1.294,1.025-2.446,2.328-2.446h30.504C1534.297,72.151,1551.748,90.382,1551.748,117.39 M1538.309,117.39
	c0-20.82-13.576-33.353-33.221-33.353h-20.686v66.705h20.686C1524.733,150.742,1538.309,137.939,1538.309,117.39"/>
<path d="M419.368,178.128h-6.851c-1.941,0-2.976-0.884-3.504-2.319l-5.564-14.476c-5.177,1.958-10.726,2.983-16.542,3
	c-25.854,0.031-46.563-19.983-46.61-46.864c-0.032-26.896,20.63-46.959,46.478-46.976c25.863-0.047,46.698,19.983,46.729,46.864
	c0.017,16.165-7.458,29.738-18.958,38.151l7.262,18.862C422.722,176.818,421.309,178.128,419.368,178.128 M386.891,152.573
	c4.396-0.017,8.532-0.789,12.271-2.21l-7.773-20.157c-0.916-2.446,0.639-3.74,2.581-3.756h6.463c2.32,0,3.362,1.151,3.875,2.446
	l5.571,14.475c6.456-6.346,10.189-15.532,10.174-25.997c-0.023-19.904-13.866-35.152-33.267-35.137
	c-19.375,0.047-33.194,15.311-33.163,35.215C353.649,137.355,367.5,152.589,386.891,152.573"/>
<path d="M457.077,135.938c0.016,10.732,5.714,17.693,16.708,17.679c10.718-0.017,17.182-7.388,17.166-17.601l-0.047-32.186
	c0-1.294,1.168-2.32,2.32-2.336h7.624c1.294,0,2.463,1.026,2.471,2.447l0.063,56.241c0,1.293-1.159,2.336-2.446,2.336h-7.624
	c-1.168,0-2.328-0.916-2.336-2.194v-6.866c-3.741,6.346-10.457,10.749-20.679,10.766c-15.902,0.016-25.609-10.435-25.626-26.093
	l-0.047-34.252c-0.008-1.294,1.16-2.32,2.455-2.32l7.624-0.016c1.294,0,2.328,1.025,2.328,2.32L457.077,135.938z"/>
<path d="M545.462,99.632c9.573-0.016,17.458,4.877,20.828,11.476l-0.008-7.229c0-1.437,1.16-2.463,2.462-2.463l7.616-0.016
	c1.286,0,2.32,1.026,2.32,2.463l0.077,56.241c0.01,1.277-1.032,2.319-2.327,2.319l-7.616,0.017c-1.294,0-2.462-1.059-2.47-2.336
	l-0.009-7.355c-3.473,6.582-11.238,11.38-20.922,11.396c-16.416,0.016-30.653-13.022-30.677-32.279
	C514.722,112.717,528.912,99.647,545.462,99.632 M546.954,152.747c11.254-0.017,19.509-9.329,19.494-20.836
	c-0.008-11.633-8.295-20.662-19.541-20.662c-11.381,0.016-19.51,9.076-19.494,20.709
	C527.42,143.466,535.581,152.764,546.954,152.747"/>
<path d="M593.621,147.396l-0.103-73.036c0-1.294,1.176-2.462,2.463-2.462h7.624c1.42,0,2.328,1.152,2.328,2.446l0.095,71.095
	c0.008,4.01,2.075,6.455,6.479,6.455h3.221c1.294,0,2.462,0.789,2.462,2.32l0.009,5.43c0,2.067-1.682,2.715-2.968,2.715h-6.33
	C599.201,162.375,593.635,157.34,593.621,147.396"/>
<path d="M653.885,163.984c-17.971,0.031-32.082-13.779-32.098-32.137c-0.023-18.357,14.048-32.327,32.011-32.357
	c12.154-0.017,22.384,6.045,27.291,15.09c0.916,1.673,0.15,3.109-1.024,3.883l-4.775,3.109c-1.807,1.168-3.228,0.646-4.262-0.773
	c-4.151-6.219-9.446-9.691-17.07-9.676c-11.516,0.016-19.51,9.187-19.494,20.709c0.017,11.507,8.042,20.662,19.541,20.662
	c7.624-0.016,12.928-3.504,17.048-9.725c1.033-1.42,2.58-2.066,4.263-0.914l4.781,3.234c1.177,0.773,1.941,2.194,1.051,3.885
	C676.252,158.02,666.048,163.984,653.885,163.984"/>
<path d="M720.52,99.537c17.837-0.031,32.082,13.922,32.113,32.152c0.023,18.357-14.189,32.201-32.026,32.217
	c-17.844,0.031-32.082-13.78-32.105-32.153C688.486,113.538,702.676,99.553,720.52,99.537 M720.591,152.398
	c11.373-0.016,19.502-9.201,19.486-20.709c-0.008-11.633-8.169-20.677-19.541-20.646c-11.373,0-19.51,9.061-19.494,20.692
	C701.058,143.244,709.218,152.415,720.591,152.398"/>
<path d="M776.453,159.96c0,1.295-1.168,2.194-2.313,2.194l-7.768,0.016c-1.285,0-2.318-1.025-2.328-2.32l-0.07-56.24
	c0-1.421,1.033-2.462,2.32-2.462h7.758c1.168,0,2.328,1.025,2.328,2.32l0.01,6.598c3.486-6.093,11.236-10.623,20.281-10.639
	c9.951,0,17.332,5.035,20.701,12.391c5.17-8.666,13.566-12.422,22.611-12.438c17.063-0.016,25.619,11.87,25.635,26.093l0.039,34.379
	c0,1.293-1.168,2.193-2.463,2.193l-7.49,0.016c-1.293,0-2.461-0.898-2.469-2.193l-0.041-31.663
	c-0.008-9.96-5.059-17.458-15.658-17.442c-10.465,0.016-16.533,7.529-16.518,17.474l0.031,31.664c0.008,1.293-1.16,2.209-2.32,2.209
	h-7.623c-1.168,0-2.463-0.885-2.463-2.193l-0.039-31.68c-0.008-9.944-5.068-17.441-15.533-17.426
	c-10.607,0.016-16.668,7.529-16.66,17.473L776.453,159.96z"/>
<path d="M892.43,159.818c0.008,1.293-1.16,2.193-2.32,2.193l-7.758,0.016c-1.279,0-2.32-1.041-2.328-2.336l-0.072-56.225
	c0-1.421,1.035-2.463,2.328-2.463h7.75c1.17,0,2.33,1.026,2.338,2.32l0.008,6.582c3.48-6.077,11.223-10.606,20.273-10.623
	c9.953,0,17.332,5.02,20.703,12.392c5.168-8.666,13.564-12.438,22.619-12.454c17.055-0.016,25.609,11.87,25.625,26.091l0.039,34.396
	c0,1.294-1.168,2.192-2.453,2.192l-7.498,0.017c-1.295,0-2.463-0.915-2.463-2.192l-0.039-31.681
	c-0.018-9.944-5.066-17.441-15.666-17.426c-10.475,0.016-16.535,7.513-16.527,17.473l0.033,31.664
	c0.008,1.295-1.16,2.194-2.32,2.194l-7.625,0.016c-1.168,0-2.455-0.884-2.455-2.193l-0.047-31.664
	c-0.008-9.959-5.059-17.441-15.531-17.426c-10.6,0-16.668,7.514-16.66,17.474L892.43,159.818z"/>
<path d="M1003.979,90.051c0-2.305-1.666-4.404-4.949-4.404l-4.83,0.016c-0.205,0-0.434,0.189-0.434,0.427l0.016,12.564
	c0,0.236,0.229,0.426,0.436,0.426h1.498c0.197,0,0.436-0.189,0.436-0.441l-0.008-4.184h2.525l2.432,4.151
	c0.164,0.3,0.369,0.458,0.74,0.458h1.609c0.285,0,0.436-0.236,0.285-0.505l-2.645-4.451
	C1003.006,93.413,1003.987,91.787,1003.979,90.051 M999.03,92.466h-2.896l-0.008-4.83h2.896c1.5,0,2.535,0.915,2.543,2.367
	C1001.573,91.487,1000.53,92.435,999.03,92.466"/>
<path d="M998.155,80.406c-6.67,0.016-11.988,5.13-11.98,11.934c0.008,6.771,5.344,11.869,12.021,11.869
	c6.668,0,11.955-5.146,11.947-11.901C1010.133,85.505,1004.838,80.406,998.155,80.406 M998.186,102.457
	c-5.596,0-10.047-4.341-10.063-10.117c0-5.841,4.443-10.182,10.039-10.182c5.596-0.016,10.023,4.325,10.023,10.149
	C1008.194,98.085,1003.797,102.441,998.186,102.457"/>
</svg>
