<svg id="Layer_1" data-name="Layer 1" xmlns="http://www.w3.org/2000/svg" viewBox="0 0 204.17 204.34"><defs><style>.cls-1{fill:#fff;}</style></defs><g id="Hayu1T"><path class="cls-1" d="M42,34,34.36,25.4l-3.72,3.43,8.4,7.9C40,35.8,41,34.9,42,34Z"/><path class="cls-1" d="M63.76,19.73C62.17,16.3,60.57,12.87,59,9.39l-4.42,2.19,5.3,10.09C61.12,21,62.43,20.34,63.76,19.73Z"/><path class="cls-1" d="M102.19,11.22c1.33,0,2.65,0,4,.09.16-3.72.32-7.44.47-11.19H102V11.23Z"/><path class="cls-1" d="M48.79,28.55l-6.71-9.22-3.95,3,7.16,8.93C46.44,30.3,47.6,29.42,48.79,28.55Z"/><path class="cls-1" d="M80.19,13.91l-2.71-11L72.7,4.19c1.09,3.66,2.17,7.27,3.25,10.88C77.35,14.65,78.76,14.26,80.19,13.91Z"/><path class="cls-1" d="M88.75,12.21C88.2,8.51,87.66,4.8,87.11,1l-4.88.85C83,5.61,83.7,9.29,84.42,13,85.85,12.68,87.29,12.43,88.75,12.21Z"/><path class="cls-1" d="M71.83,16.42c-1.26-3.57-2.52-7.13-3.78-10.72L63.44,7.47,67.72,18C69.08,17.43,70.45,16.91,71.83,16.42Z"/><path class="cls-1" d="M97.43,11.35c-.2-3.77-.4-7.54-.6-11.35L92,.45c.37,3.79.74,7.52,1.11,11.23C94.51,11.53,96,11.42,97.43,11.35Z"/><path class="cls-1" d="M56.06,23.78,50.27,14l-4.19,2.59,6.26,9.55C53.56,25.3,54.8,24.52,56.06,23.78Z"/><path class="cls-1" d="M14.56,77.75l-11.1-3.1c-.38,1.77-.71,3.27-1,4.85L13.49,82C13.81,80.58,14.17,79.16,14.56,77.75Z"/><path class="cls-1" d="M12.63,86.27l-11.38-2C1,86.05.85,87.44.63,89.14L12,90.59Q12.26,88.42,12.63,86.27Z"/><path class="cls-1" d="M17.31,69.47,6.59,65.32,5,70l10.86,3.6C16.29,72.21,16.78,70.83,17.31,69.47Z"/><path class="cls-1" d="M11.53,94.91,0,94v5.15H11.3C11.35,97.72,11.42,96.31,11.53,94.91Z"/><path class="cls-1" d="M30.1,46.73l-9-7c-1,1.32-1.86,2.45-3,3.94l9.42,6.57Q28.76,48.47,30.1,46.73Z"/><path class="cls-1" d="M20.83,61.49,10.61,56.35,8.45,60.81,19,65.46C19.55,64.12,20.18,62.79,20.83,61.49Z"/><path class="cls-1" d="M25.11,53.88l-9.73-6.1L12.9,52.05l10,5.61Q24,55.74,25.11,53.88Z"/><path class="cls-1" d="M35.74,40.09l-8.4-7.84L24.13,36l8.69,7.39C33.77,42.25,34.74,41.15,35.74,40.09Z"/><path class="cls-1" d="M183.28,61l10-5.12L191,51.5l-9.76,5.59C181.92,58.36,182.61,59.65,183.28,61Z"/><path class="cls-1" d="M173.93,46.27l8.85-6.91-3.13-3.85-8.52,7.35Q172.57,44.53,173.93,46.27Z"/><path class="cls-1" d="M186.87,68.94l10.45-4.11c-.7-1.62-1.3-3-2-4.54l-10.2,4.59C185.76,66.21,186.33,67.57,186.87,68.94Z"/><path class="cls-1" d="M179,53.39l9.47-6c-1-1.46-1.79-2.64-2.78-4.1l-9.15,6.48Q177.77,51.53,179,53.39Z"/><path class="cls-1" d="M189.67,77.21l10.81-3.08c-.54-1.65-1-3.06-1.53-4.7L188.36,73C188.83,74.4,189.26,75.8,189.67,77.21Z"/><path class="cls-1" d="M191.65,85.72l11-2c-.34-1.65-.61-3-1-4.81l-10.91,2.55C191.09,82.84,191.38,84.28,191.65,85.72Z"/><path class="cls-1" d="M192.59,93l11.16-1c-.18-1.67-.32-3-.53-4.89l-11.1,1.48C192.31,90,192.47,91.49,192.59,93Z"/><path class="cls-1" d="M193,100.27l11.15.12c-.09-1.48-.16-2.66-.26-4.33l-11.13.34Q192.95,98.34,193,100.27Z"/><path class="cls-1" d="M155.08,28.18c2.18-3.05,4.37-6.09,6.56-9.16l-4.11-2.78-6.1,9.46C152.67,26.5,153.88,27.32,155.08,28.18Z"/><path class="cls-1" d="M131.83,16.17c1.23-3.55,2.46-7.11,3.7-10.71l-4.75-1.34-3.14,10.72C129.05,15.25,130.45,15.69,131.83,16.17Z"/><path class="cls-1" d="M168.23,39.64l7.67-7.29-3-4-7.8,8.14Q166.71,38.05,168.23,39.64Z"/><path class="cls-1" d="M123.44,13.72c.87-3.62,1.74-7.25,2.64-11l-4.82-1.08c-.71,3.75-1.41,7.45-2.11,11.13C120.59,13.08,122,13.39,123.44,13.72Z"/><path class="cls-1" d="M140,19.42l4.7-10.28-4.58-1.89c-1.41,3.51-2.79,7-4.17,10.43C137.27,18.23,138.63,18.81,140,19.42Z"/><path class="cls-1" d="M147.73,23.43l5.65-9.73L149,11.37q-2.61,5-5.15,10C145.17,22,146.46,22.7,147.73,23.43Z"/><path class="cls-1" d="M161.93,33.6l7.36-8.47c-1.32-1.09-2.42-2-3.79-3.16l-7,8.81C159.69,31.7,160.82,32.63,161.93,33.6Z"/><path class="cls-1" d="M114.87,12.11c.46-3.28.92-6.56,1.35-9.82.07-.48-.71-1.38-1.26-1.55a15.73,15.73,0,0,0-3.44-.26c-.35,3.74-.69,7.43-1,11.12C112,11.74,113.42,11.9,114.87,12.11Z"/><path class="cls-1" d="M184.45,141l10.21,4.8,2-4.55-10.38-4.29C185.68,138.31,185.08,139.65,184.45,141Z"/><path class="cls-1" d="M134.41,187.23c1.35,3.55,2.7,7.09,4.05,10.65l4.54-1.95-4.52-10.35C137.14,186.16,135.78,186.71,134.41,187.23Z"/><path class="cls-1" d="M142.41,183.75,147.49,194l4.31-2.44c-1.86-3.31-3.68-6.57-5.5-9.82C145,182.42,143.73,183.1,142.41,183.75Z"/><path class="cls-1" d="M150,179.53l6,9.64,4.09-2.74c-2.17-3.13-4.3-6.22-6.43-9.31C152.49,178,151.27,178.75,150,179.53Z"/><path class="cls-1" d="M157.2,174.58l6.87,9,3.89-3.05-7.32-8.68Q159,173.26,157.2,174.58Z"/><path class="cls-1" d="M166.48,166.49c-.84.84-1.71,1.67-2.58,2.48l7.85,8.44,3.08-3.54-.76.84Z"/><path class="cls-1" d="M109,192.86c.28,3.79.57,7.57.86,11.39l4.92-.55c-.48-3.81-1-7.55-1.42-11.27C111.87,192.61,110.41,192.76,109,192.86Z"/><path class="cls-1" d="M117.56,191.81c.63,3.65,1.31,7.3,2,11.19l4.78-1c-.83-3.71-1.64-7.38-2.45-11C120.47,191.28,119,191.56,117.56,191.81Z"/><path class="cls-1" d="M126.11,189.93q1.52,5.48,3,11l4.7-1.5c-1.19-3.63-2.35-7.2-3.51-10.75C128.93,189.12,127.53,189.54,126.11,189.93Z"/><path class="cls-1" d="M170,162.75l8.5,7.55c1.13-1.41,2-2.53,3.08-3.84l-8.74-7.05Q171.47,161.12,170,162.75Z"/><path class="cls-1" d="M190.36,124.52l10.89,2.73c.38-1.66.7-3,1.1-4.82l-11-2.2C191.05,121.68,190.72,123.1,190.36,124.52Z"/><path class="cls-1" d="M11.26,103.73H.07v5L11.43,108C11.34,106.58,11.29,105.16,11.26,103.73Z"/><path class="cls-1" d="M102.19,193.11l-1.83,0v11.25h4V193.09Z"/><path class="cls-1" d="M193,107.82l11.1.59v-4.88h-11C193.11,105,193.07,106.4,193,107.82Z"/><path class="cls-1" d="M175.51,156l9.16,6.69,2.75-4.1-9.39-6.2Q176.82,154.2,175.51,156Z"/><path class="cls-1" d="M187.81,132.9l10.59,3.79c.59-1.81,1-3.15,1.55-4.7l-10.76-3.27C188.76,130.13,188.3,131.52,187.81,132.9Z"/><path class="cls-1" d="M180.34,148.69l9.69,5.74,2.42-4.29-9.94-5.28C181.81,146.16,181.09,147.43,180.34,148.69Z"/><path class="cls-1" d="M192.09,116l11.13,1.69c.2-1.77.36-3.19.56-4.91l-11.13-1.14C192.5,113.06,192.31,114.52,192.09,116Z"/><path class="cls-1" d="M18.37,137.52,7.8,142l1.94,4.56,10.43-5C19.54,140.2,18.94,138.87,18.37,137.52Z"/><path class="cls-1" d="M22.13,145.35,12,150.84l2.47,4.28,9.84-6C23.55,147.9,22.83,146.64,22.13,145.35Z"/><path class="cls-1" d="M26.63,152.79l-9.55,6.44,2.87,4,9.21-6.88C28.29,155.2,27.44,154,26.63,152.79Z"/><path class="cls-1" d="M11.81,112.3.32,113.58c.28,1.69.53,3.16.81,4.86l11.26-1.8C12.16,115.2,12,113.76,11.81,112.3Z"/><path class="cls-1" d="M31.82,159.78l-8.89,7.32,3.23,3.73,8.52-7.73Q33.21,161.48,31.82,159.78Z"/><path class="cls-1" d="M15.37,129.33,4.44,132.75c.54,1.68,1,3.11,1.53,4.72l10.81-4C16.28,132.12,15.81,130.73,15.37,129.33Z"/><path class="cls-1" d="M13.18,120.9,1.87,123.27l1.23,4.8,11.08-2.9C13.81,123.76,13.48,122.34,13.18,120.9Z"/><path class="cls-1" d="M44.07,172.12,36.71,181l4,3,6.85-9.13C46.35,174,45.2,173.05,44.07,172.12Z"/><path class="cls-1" d="M66.3,185.75c-1.49,3.5-3,7-4.52,10.55l4.62,1.81,4-10.72C69,186.88,67.65,186.33,66.3,185.75Z"/><path class="cls-1" d="M74.49,188.81,71,199.72l4.73,1.39,2.95-11.06C77.29,189.67,75.88,189.26,74.49,188.81Z"/><path class="cls-1" d="M82.92,191.06c-.79,3.71-1.59,7.42-2.4,11.16l4.85,1c.63-3.83,1.25-7.59,1.86-11.34C85.79,191.64,84.35,191.37,82.92,191.06Z"/><path class="cls-1" d="M58.46,181.93q-2.73,5-5.51,10.07l4.42,2.26,5-10.31C61.05,183.31,59.75,182.63,58.46,181.93Z"/><path class="cls-1" d="M91.54,192.49c-.43,3.74-.87,7.49-1.31,11.29l4.91.55c.25-3.85.5-7.65.74-11.44C94.42,192.79,93,192.66,91.54,192.49Z"/><path class="cls-1" d="M37.91,166.51l-8.17,8.13,3.34,3.13,7.74-8.49C39.83,168.38,38.86,167.45,37.91,166.51Z"/><path class="cls-1" d="M51,177.37l-6.44,9.51,4.15,2.7,6-9.82Q52.84,178.61,51,177.37Z"/></g></svg>